<?xml version="1.0" standalone="no"?>
<!DOCTYPE svg PUBLIC "-//W3C//DTD SVG 1.1//EN" "http://www.w3.org/Graphics/SVG/1.1/DTD/svg11.dtd" >
<svg xmlns="http://www.w3.org/2000/svg">
<metadata></metadata>
<defs>
<font id="chalkboard_selight" horiz-adv-x="1165" >
<font-face units-per-em="2048" ascent="1638" descent="-410" />
<missing-glyph horiz-adv-x="782" />
<glyph unicode="&#xfb01;" horiz-adv-x="1181" d="M125.5 811q1.5 33 27.5 60t76 30h65v237v73q5 43 22 80t32 62q14 20 40 56.5t69 61.5q66 41 135 50t137 -7t129 -53.5t111 -91.5q29 -41 23.5 -78t-29.5 -58.5t-61.5 -20.5t-73.5 37q-29 29 -68.5 54t-82.5 33t-85 -3t-72 -52q-11 -18 -21 -33t-15 -33t-6 -34t-1 -34 v-246h462q36 -11 53 -28.5t29 -53.5v-740q-2 -50 -29.5 -76t-60.5 -27t-61 23t-35 73v643h-358v-636q-2 -50 -29 -76t-60 -27t-61 23t-35 73v643h-70q-50 7 -74 35t-22.5 61z" />
<glyph unicode="&#xfb02;" horiz-adv-x="1384" d="M125.5 811q1.5 33 27.5 60t76 30h63v167v68t2 72q5 52 32 103t61 90q68 77 166.5 108.5t202.5 23.5t202.5 -48.5t168.5 -106.5q9 -14 12.5 -18t5.5 -7.5t3.5 -9.5t5.5 -19v-1195q7 -5 15 -10.5t17 -9.5q41 -29 47.5 -66.5t-10.5 -65t-52 -38.5t-80 11q-20 14 -40.5 27.5 t-43.5 27.5q-20 18 -27 33.5t-11 45.5v1188q-93 59 -195 71.5t-204 -28.5q-45 -38 -69 -74.5t-24 -93.5v-246h286q43 -14 63 -41t19 -55.5t-23.5 -54.5t-65.5 -35h-279v-636q-2 -50 -29 -76t-60 -27t-61 23t-35 73v643h-70q-50 7 -74 35t-22.5 61z" />
<glyph horiz-adv-x="0" />
<glyph horiz-adv-x="0" />
<glyph unicode="&#xd;" horiz-adv-x="825" />
<glyph horiz-adv-x="0" />
<glyph horiz-adv-x="0" />
<glyph horiz-adv-x="825" />
<glyph unicode=" "  horiz-adv-x="782" />
<glyph unicode="&#x09;" horiz-adv-x="782" />
<glyph unicode="&#xa0;" horiz-adv-x="782" />
<glyph unicode="!" horiz-adv-x="522" d="M147 115q0 52 36.5 88.5t85.5 36.5q52 0 88.5 -36.5t36.5 -88.5q0 -50 -36.5 -86t-88.5 -36q-50 0 -86 36t-36 86zM167 502v781q9 43 35.5 65.5t54.5 24t55 -19t41 -63.5v-781q-2 -50 -29.5 -76t-60 -27t-61 23t-35.5 73z" />
<glyph unicode="&#x22;" horiz-adv-x="927" d="M136 1138v324q11 45 36 67.5t57 22.5q29 0 55 -20t37 -63v-324q-2 -52 -30 -78t-62 -26q-32 0 -59 23.5t-34 73.5zM545 1134v323q11 45 36 68t57 23q29 0 55.5 -20.5t37.5 -63.5v-323q-2 -52 -30.5 -78.5t-62.5 -26.5q-32 0 -59 24t-34 74z" />
<glyph unicode="#" horiz-adv-x="1633" d="M64.5 424q1.5 33 27.5 60t75 30h236q11 70 19 140t19 143h-210q-50 7 -73.5 35t-22.5 61t27 60t76 29h228q11 79 21.5 157t21.5 158q11 50 42 71t62.5 16.5t56.5 -32.5t22 -78l-40 -292h382q11 79 22.5 158.5t22.5 158.5q11 50 42 71.5t62.5 17t56.5 -33t23 -78.5 q-11 -75 -20.5 -148t-20.5 -146h258q43 -14 63.5 -41t19 -55t-24 -54t-65.5 -35h-276q-11 -72 -19 -142.5t-19 -140.5h260q43 -14 63.5 -41t19 -55.5t-24 -54.5t-65.5 -35h-278q-11 -86 -22.5 -171t-23.5 -171q-16 -41 -45 -59t-57.5 -14.5t-52 27.5t-28.5 69 q11 79 21.5 159.5t21.5 159.5h-382q-11 -86 -23.5 -171t-24.5 -171q-16 -41 -45 -59t-57.5 -14.5t-52.5 27.5t-28 69q11 79 21.5 159.5t21.5 159.5h-217q-50 7 -74 35t-22.5 61zM591 514h382q11 70 19 140t17 143h-382q-9 -72 -18 -142.5t-18 -140.5z" />
<glyph unicode="$" horiz-adv-x="1185" d="M136 1012q0 61 25 118.5t71 105t114 79t154 43.5v77q0 77 16 134.5t79 57.5q61 0 77 -53t16 -126q0 -25 -1 -47.5t-1 -47.5q29 -5 82 -20.5t106.5 -39t92 -56.5t38.5 -74q0 -34 -25 -60t-66 -26q-27 0 -58.5 11.5t-63.5 25t-60 27t-46 20.5q-2 -100 -1 -197t-2 -199 q72 -27 145 -56.5t131.5 -72.5t96 -102t37.5 -140q0 -95 -37.5 -161t-96 -110t-132 -69t-146.5 -38v-78t2 -81q-11 -43 -37 -63t-55 -20q-41 0 -60.5 23.5t-26 60t-6.5 81.5t-2 86l-3 2q-70 18 -121 38.5t-88 46.5t-67 56.5t-59 66.5q-16 20 -19 48.5t6 53.5t29.5 42 t49.5 17q23 0 45.5 -16t49.5 -38.5t61 -48.5t77 -49l41 -20l2 423q-43 20 -106.5 49.5t-120 74t-97 104.5t-40.5 137zM330 1043q0 -66 51 -116.5t119 -84.5v321q-20 -7 -45 -13.5t-49 -20t-44 -34t-32 -52.5zM681 208q38 5 77 19.5t91 44.5q41 34 49.5 79t-22.5 90 q-45 38 -87.5 69t-105.5 63q0 -93 -1 -183.5t-1 -181.5z" />
<glyph unicode="%" horiz-adv-x="1661" d="M143 1202q5 81 35 142t75.5 102t103 60t116.5 19q61 0 120 -20t105.5 -61t74.5 -100t28 -136t-29.5 -139t-77 -107t-108.5 -70t-127 -25q-57 0 -111 22.5t-98 64.5t-73 104.5t-34 143.5zM253 9q0 32 21 66q136 192 260.5 372t247.5 356.5t248.5 356.5t261.5 372 q36 29 75 29q36 0 61 -24.5t25 -63.5q0 -20 -11 -50q-136 -192 -260.5 -370.5t-248 -356.5t-249 -358t-261.5 -372q-18 -25 -41.5 -34t-42.5 -9q-34 0 -60 24t-26 62zM326 1179l2 29q5 -79 50 -116t97 -37t96.5 37t44.5 110q0 59 -46.5 100.5t-105.5 41.5q-34 0 -59 -15.5 t-42 -39.5t-26 -53.5t-11 -56.5zM935 269q5 81 34 140t74 99t100.5 59t114.5 19t118 -20.5t104 -59t73.5 -97t28.5 -133.5q0 -77 -27 -139t-73.5 -105t-105.5 -66t-122 -23q-54 0 -108.5 19.5t-98.5 59t-74.5 101.5t-37.5 146zM1118 247l2 29q5 -75 48 -112t95 -37 q48 0 90.5 35t42.5 107q0 61 -43 96.5t-97 35.5q-38 0 -64.5 -15t-41 -36.5t-22.5 -48.5t-10 -54z" />
<glyph unicode="&#x26;" horiz-adv-x="1450" d="M120 382q0 72 20.5 129t54.5 102.5t80 82.5t98 69q-45 68 -84.5 156t-39.5 179q0 68 29.5 120t76 89t103 56.5t110.5 19.5q61 0 117.5 -20.5t101 -60t70.5 -95t26 -127.5q0 -57 -17 -113.5t-49 -105t-73.5 -88.5t-94.5 -64l136 -157q38 -43 75.5 -81.5t78.5 -74.5 q70 86 128 175.5t98 161.5q18 32 42 45.5t47 13.5q34 0 61 -24.5t27 -65.5q0 -29 -25 -81.5t-63.5 -110t-83.5 -117.5t-86 -108q59 -38 122.5 -69t133.5 -51q52 -36 52 -88q0 -34 -26 -60t-74 -26q-14 0 -20 2q-81 25 -159.5 63.5t-152.5 90.5q-97 -93 -193.5 -140 t-203.5 -47q-86 0 -166 30.5t-141 87t-98.5 133.5t-37.5 169zM303 382q0 -52 21.5 -95t58 -74.5t84 -48.5t96.5 -17q27 0 55.5 6t53.5 17q34 16 69 39.5t71 55.5q-93 79 -175.5 167t-154.5 181q-34 -20 -65.5 -40.5t-56.5 -46.5t-41 -61t-16 -83zM444 1082q0 -14 1 -27.5 t3 -27.5q5 -38 28.5 -83.5t57.5 -92.5q61 38 113 95t52 147q0 50 -44 79.5t-96 29.5q-59 0 -87 -35.5t-28 -84.5z" />
<glyph unicode="'" horiz-adv-x="396" d="M93 1107v344q11 45 36 67.5t57 22.5q29 0 55 -20.5t37 -63.5v-344q-2 -52 -30 -78t-62 -26q-32 0 -59 24t-34 74z" />
<glyph unicode="(" horiz-adv-x="644" d="M82.5 760.5q14.5 176.5 66.5 334.5q23 66 50 123.5t59 112t68 107.5t75 110q34 27 66.5 29.5t56.5 -14.5t33 -50t-7 -74q-36 -57 -69 -103t-60 -92.5t-52 -96t-45 -113.5q-38 -118 -53 -274t2 -316.5t65.5 -307.5t134.5 -245q18 -20 41 -39.5t43 -37.5q25 -36 25 -70 t-19.5 -55.5t-52.5 -28t-73 13.5q-27 25 -56.5 47.5t-50.5 52.5q-97 131 -157 295t-82.5 339.5t-8 352z" />
<glyph unicode=")" horiz-adv-x="644" d="M77 -256q0 34 25 70q20 18 42.5 37.5t41.5 39.5q86 97 134.5 244.5t65.5 308t2 317t-53 273.5q-20 63 -45 113t-52.5 96.5t-59 93t-69.5 102.5q-16 41 -7 74t32.5 50t56.5 14.5t67 -29.5q38 -57 74.5 -110t68 -107.5t59 -112t49.5 -123.5q52 -158 67 -334.5t-8 -352 t-83 -339.5t-157 -295q-20 -29 -49.5 -52t-56.5 -48q-41 -20 -74 -13.5t-52 28t-19 55.5z" />
<glyph unicode="*" horiz-adv-x="1020" d="M88 1405q0 36 24 61t62 25q27 -2 58 -20t60 -42t57.5 -51t53.5 -50q0 5 -1 9.5t-1 8.5q9 48 16.5 105.5t21.5 108.5t37.5 85t64.5 34q34 0 61 -26t27 -76q0 -79 -18 -144.5t-35 -106.5t-19.5 -53.5t27.5 15.5q29 16 66.5 37t73.5 41.5t70 34t57 13.5q41 0 65.5 -27 t24.5 -61q0 -32 -29 -60t-72 -53t-92 -46.5t-87 -39.5q-7 -2 -21 -2l109 -129q25 -32 25 -70t-25 -62t-61 -24q-16 0 -50 21.5t-69 54t-65.5 71t-41.5 72.5q-5 -9 -18 -27l-177 -149q-34 -20 -66 -21q-38 0 -62 26t-24 60q0 20 10.5 43t32.5 41l166 140q-20 5 -46.5 23 t-52.5 40.5t-52 47.5t-49 43q-36 38 -36 79z" />
<glyph unicode="+" horiz-adv-x="1104" d="M91 468q0 34 26 62.5t78 30.5h251v333q11 45 36 67.5t57 22.5q29 0 55 -20t37 -63v-340h301q43 -11 63.5 -37t20.5 -56q0 -32 -22.5 -56.5t-67.5 -35.5h-295v-340q-2 -52 -30 -78t-62 -26q-32 0 -59 24t-34 73v347h-258q-50 7 -73.5 34t-23.5 58z" />
<glyph unicode="," horiz-adv-x="522" d="M86 -166q0 8 2 17q43 86 85 174t85 174q36 59 88 59q34 0 61 -25t27 -66q0 -20 -11 -49q-43 -86 -85 -174.5t-85 -174.5q-18 -25 -40.5 -35t-42.5 -10q-34 0 -59 25t-25 70v15z" />
<glyph unicode="-" horiz-adv-x="975" d="M97 457q0 32 26 62.5t78 30.5h114.5t188 1t187.5 1h115q43 -11 63 -37t20 -56q0 -32 -22.5 -56.5t-67.5 -35.5q-152 0 -302 -1.5t-302 -1.5q-50 7 -74 34t-24 59z" />
<glyph unicode="." horiz-adv-x="604" d="M170 118q0 52 39.5 90.5t100.5 38.5q54 0 94 -38.5t40 -90.5t-40 -89.5t-94 -37.5q-61 0 -100.5 37.5t-39.5 89.5z" />
<glyph unicode="/" horiz-adv-x="1115" d="M131 -48.5q0 7.5 3 16.5q170 396 340.5 787.5t342.5 787.5q36 59 88 59q34 0 61 -25t27 -65q0 -20 -11 -50q-170 -396 -340.5 -787.5t-342.5 -787.5q-18 -25 -41 -35t-43 -10q-34 0 -59 24.5t-25 70.5v14.5z" />
<glyph unicode="0" d="M58 607.5q1 91.5 14 180.5q14 95 51.5 196.5t98.5 187.5t147 144t197 62q52 2 100.5 -1t96.5 -26t90.5 -50t78.5 -65q66 -70 102 -157.5t52 -181.5t16 -190t-11 -184q-20 -84 -60 -180t-98.5 -180t-138 -144t-174.5 -71q-66 -9 -126 -5.5t-121 34.5q-48 25 -91.5 50 t-75.5 70q-54 72 -87 156t-47.5 173.5t-13.5 181zM243 674.5q-10 -133.5 15 -259t90 -200.5q38 -45 82.5 -62t101.5 -29q86 9 148 45.5t106.5 91t72.5 124.5t46 147l2 13q9 68 11.5 136t-8.5 138q-9 59 -24 118t-46 111q-34 59 -85 95t-109 46t-116.5 -7t-110.5 -64 q-75 -68 -120.5 -189t-55.5 -254.5z" />
<glyph unicode="1" d="M348 79q0 32 26.5 62.5t78.5 30.5h65v935q-32 -23 -68 -23q-38 0 -62 26t-24 60q0 20 10.5 43t32.5 41l156 102q29 11 50 11q70 0 91 -79v-1116h97q43 -11 63.5 -37t20.5 -56q0 -32 -22.5 -56.5t-68.5 -36.5h-348q-50 5 -74 33.5t-24 59.5z" />
<glyph unicode="2" d="M233 100q9 75 22.5 146t38.5 137.5t63.5 124.5t97.5 105q52 41 120 77t129 80.5t104 103t43 142.5q0 23 -9 48t-11 27q-18 41 -49 68t-62 31q-100 0 -181.5 -53t-149.5 -125q-32 -23 -68 -23q-38 0 -62 26t-24 67q0 36 21 70q43 45 92.5 89t106 78t116.5 54.5t124 20.5 q72 0 135.5 -30.5t110 -86t73.5 -132.5t27 -167q0 -29 -7 -61q-25 -104 -76 -170t-113 -112.5t-129 -83.5t-124.5 -82.5t-100.5 -110t-57 -163.5h430q27 0 41 7.5t21 12.5q5 5 24 27.5t28 26.5q11 7 25.5 9.5t26.5 2.5q41 0 65.5 -28.5t24.5 -66.5q0 -25 -5.5 -38.5 t-10.5 -18.5q-43 -61 -100.5 -98.5t-132.5 -37.5h-538q-88 9 -100 107z" />
<glyph unicode="3" d="M197 208q0 38 25 62t63 24q29 0 61 -21.5t66 -46.5t71 -46.5t80 -21.5q61 0 110 26t82 69t49.5 97.5t16.5 111.5q0 59 -39.5 97t-97 61t-118.5 32t-107 9q-43 11 -63 37t-20 56q0 29 22.5 55t67.5 37q41 5 86 15t88 27t78.5 43t53.5 65l2 56l-9 48q-5 25 -23 40.5 t-44 24.5t-55.5 12.5t-56.5 3.5q-52 0 -113 -10t-91 -26q-25 -18 -45 -30.5t-45 -12.5q-36 0 -62 28.5t-26 82.5q7 38 38.5 65.5t75.5 43t92.5 25t87 14t60 4.5t12.5 0q81 0 151.5 -19.5t123.5 -59t84 -100.5t31 -145q0 -16 -2.5 -47.5t-16 -69t-46.5 -79.5t-94 -82 q41 -23 80.5 -56t70 -74.5t48.5 -91.5t18 -107q0 -86 -39.5 -169.5t-101.5 -148t-141.5 -104t-158.5 -39.5q-102 0 -190 49.5t-165 115.5q-25 34 -25 70z" />
<glyph unicode="4" d="M100 391q0 11 4 30q124 224 251 440t254 438q18 29 41.5 43t48.5 14q32 0 60.5 -25t28.5 -68q0 -20 -14 -48q-106 -183 -211.5 -366.5t-211.5 -366.5q77 -2 161.5 -3.5t175.5 -3.5v251q11 45 35 67t55 22q32 0 58 -19.5t38 -62.5v-260h133q45 -16 65.5 -41t20.5 -54 q0 -32 -24 -58t-69 -37h-61t-65 2v-242q-2 -52 -30.5 -79t-65.5 -27q-32 0 -57.5 23.5t-32.5 75.5v251q-129 2 -254.5 3.5t-236.5 3.5q-97 11 -97 97z" />
<glyph unicode="5" d="M170 1254q0 36 27 67.5t79 31.5q18 0 65.5 1.5t112 2.5t136 2t135 2t112 2.5t64.5 1.5q45 -11 65.5 -38.5t20.5 -59.5q0 -34 -24 -61t-69 -38q-127 -5 -250.5 -5t-247.5 -4q2 -72 4.5 -146t4.5 -149q41 11 84 17t86 6q111 0 200 -37.5t151.5 -100.5t96.5 -142.5 t34 -165.5q0 -81 -35 -162.5t-99.5 -148.5t-153 -108.5t-194.5 -41.5q-95 0 -188 30.5t-172 82.5q-36 38 -36 84q0 38 25 64t68 26q23 0 43 -7q59 -38 122 -60.5t133 -22.5q59 0 111 20t93 57.5t64.5 89.5t23.5 115t-29.5 107.5t-73.5 71.5t-96 39.5t-97 12.5 q-38 0 -75.5 -5.5t-76.5 -16.5q-16 -9 -26 -19.5t-20 -19.5t-22.5 -14.5t-30.5 -5.5q-34 0 -62.5 25t-35.5 79q-5 115 -7 230.5t-6 235.5q-34 32 -34 75z" />
<glyph unicode="6" d="M177 516q0 115 35 236.5t96 236.5t142.5 218t171.5 185q36 29 75 29q36 0 61 -25t25 -61q0 -39 -29 -75q-106 -93 -200.5 -225t-146.5 -279q129 84 274 84q86 0 159.5 -26t128 -77t85 -124.5t30.5 -168.5q0 -102 -30.5 -183.5t-87 -137t-133.5 -85t-172 -29.5 q-106 0 -203.5 41t-156.5 120q-32 43 -50 70t-29.5 54t-19 59t-19.5 84q-7 38 -6 79zM364 464q2 -25 11.5 -49t15.5 -48q66 -100 130.5 -135t134.5 -35q88 0 136 30.5t70.5 70t27 79t4.5 60.5q0 61 -18 103t-48.5 66.5t-67 36t-74.5 11.5q-86 0 -162 -44t-130 -119 q-7 -9 -15 -16t-15 -11z" />
<glyph unicode="7" d="M52 1256q0 34 26 62t78 31h844q79 -20 79 -91q0 -20 -11 -50q-32 -38 -62.5 -75.5t-59.5 -77.5q-77 -111 -145 -235.5t-121 -256t-88 -268t-49 -272.5q-16 -38 -41 -56.5t-52 -18.5q-32 0 -59 25t-31 72q14 138 52 290t94.5 299t131.5 284t159 245h-648q-50 7 -73.5 34 t-23.5 59z" />
<glyph unicode="8" d="M143 326q16 68 31.5 129t72.5 118q38 45 86.5 77.5t100.5 64.5q-95 70 -159.5 164t-64.5 216q0 86 43 144t111 94t149.5 51t158.5 15q63 0 130 -15t122.5 -48t90.5 -87t35 -133q0 -72 -19 -129t-55.5 -104.5t-89.5 -88t-121 -81.5q59 -36 116.5 -78t104 -90.5t74.5 -104 t28 -123.5q0 -61 -33.5 -121t-87 -109t-118 -81.5t-123.5 -41.5q-86 -16 -160 -16q-84 0 -157.5 23.5t-152.5 82.5q-66 48 -82 111.5t-27 130.5zM335 319q5 -20 7 -40.5t6 -38.5q25 -41 54.5 -64.5t62.5 -36t64.5 -15t58.5 -2.5q41 0 89.5 10.5t91.5 35t76 65.5t47 102 q-7 43 -41 81.5t-78 73.5t-93 65.5t-89 55.5q-84 -54 -138.5 -98t-99.5 -119q-5 -18 -9.5 -37.5t-8.5 -37.5zM396 1095q2 -16 4.5 -32.5t4.5 -32.5q38 -66 89 -116t115 -95q72 43 132 93t105 122q5 18 7 36t7 34q-5 11 -6 24t-5 24q-38 45 -87 58.5t-106 13.5 q-34 0 -75.5 -6.5t-80 -21.5t-68 -40t-36.5 -61z" />
<glyph unicode="9" d="M100 907q0 86 32.5 170t97 150.5t158.5 108.5t216 42q57 0 104 -16q100 -27 162 -76.5t98.5 -115.5t51 -146t16.5 -173q0 -147 -39.5 -284t-115 -254.5t-184.5 -212.5t-249 -163q-9 -2 -16 -3.5t-16 -1.5q-45 0 -71 25t-26 59q0 45 45 81q149 72 259 185.5t169 258.5 q-118 -50 -235 -50q-115 0 -201.5 38.5t-143 98.5t-84.5 133.5t-28 145.5zM285 905q0 -38 12.5 -74t41.5 -68q48 -48 102.5 -69.5t112.5 -21.5q77 0 152 30.5t134 75.5q5 0 5.5 9.5t0.5 21.5v23.5v18.5q0 66 -11 129t-39.5 112t-78 78t-124.5 29q-61 0 -116.5 -22.5 t-98.5 -62t-68 -94t-25 -115.5z" />
<glyph unicode=":" horiz-adv-x="583" d="M140 821q0 57 41 98t97 41q57 0 96.5 -41t39.5 -98q0 -61 -39.5 -100.5t-96.5 -39.5t-97.5 39.5t-40.5 100.5zM154 124q0 59 39.5 97.5t93.5 38.5q57 0 94.5 -38.5t37.5 -97.5q0 -54 -37.5 -93.5t-94.5 -39.5q-54 0 -93.5 39.5t-39.5 93.5z" />
<glyph unicode=";" horiz-adv-x="742" d="M213 -98v-15q0 -45 25 -70t58 -25q20 0 43 10t41 35q43 86 85 174.5t85 174.5q11 29 11 49q0 41 -27 66t-61 25q-52 0 -88 -59q-43 -86 -85 -174t-85 -174q-2 -9 -2 -17zM306 819q0 50 38 86t95 36q54 0 94 -36t40 -86q0 -54 -40 -91.5t-94 -37.5q-57 0 -95 37.5 t-38 91.5z" />
<glyph unicode="&#x3c;" horiz-adv-x="871" d="M81 482q0 45 43 79q11 9 51 41t96.5 75t119 92.5t119 92.5t97 76t49.5 40q29 11 50 11q38 0 63 -25t25 -61q0 -38 -29 -75q-38 -32 -97 -77t-122.5 -95t-122.5 -95t-97 -77q45 -34 105 -78t121 -90.5t121 -90.5t105 -78q25 -34 25 -70t-24.5 -60t-63.5 -24q-25 0 -56 14 q-57 41 -127 93t-142.5 106t-142.5 107.5t-129 93.5q-36 36 -37 75z" />
<glyph unicode="=" horiz-adv-x="997" d="M95 279.5q0 44.5 37.5 70.5t91.5 26h602q111 0 131 -61q5 -75 -33.5 -103.5t-97.5 -28.5h-602q-61 0 -95 26t-34 70.5zM95 677q5 34 20 47q25 38 111 39h598q81 0 106 -39q23 -36 23 -47q0 -57 -36.5 -82t-92.5 -25h-598q-57 0 -94 25t-37 82z" />
<glyph unicode="&#x3e;" horiz-adv-x="905" d="M104 77q0 36 25 70q45 34 105 78t121 90.5t121 90.5t106 78q-38 32 -97.5 77t-122.5 95t-122 95.5t-97 76.5q-29 36 -30 75q0 36 25 61t63 25q20 0 50 -11q11 -7 51 -40t96.5 -76t118.5 -92.5t118.5 -92.5t96.5 -75t51 -41q43 -34 43 -79q0 -38 -36 -75q-57 -41 -128 -94 t-143.5 -107t-142.5 -106t-127 -93q-29 -14 -57 -14q-38 0 -63 24t-25 60z" />
<glyph unicode="?" horiz-adv-x="921" d="M51 1040q-8 37 19 80q45 59 107.5 113.5t133.5 90.5t146 52t143 1t125.5 -64.5t95.5 -144.5q25 -61 20.5 -118t-27 -109t-61 -96t-85.5 -82q-16 -14 -55.5 -40t-76 -59t-58 -68t-5.5 -69q5 -5 7 -4q7 -5 14.5 -5t14.5 -2q48 -14 67 -46.5t12.5 -64.5t-37.5 -54.5 t-80 -15.5q-68 14 -113.5 53.5t-65.5 91.5t-11 113t52 118q27 36 73.5 73t94 74.5t88 76t57.5 80.5t2.5 86t-80.5 92q-7 2 -13.5 4t-15.5 5q-97 -5 -179 -59.5t-140 -130.5q-32 -38 -69.5 -43t-64.5 14.5t-35 56.5zM319 104q0 52 36 88.5t89 36.5q52 0 89 -36.5t37 -88.5 t-37 -89.5t-89 -37.5t-88.5 37.5t-36.5 89.5z" />
<glyph unicode="@" horiz-adv-x="1672" d="M113 625q0 165 59 312t162 256.5t244.5 173t304.5 63.5q136 0 255.5 -42t210 -123t144 -202.5t53.5 -279.5q0 -70 -18.5 -142.5t-59 -129t-106 -93t-160.5 -36.5q-29 0 -68 3.5t-61 17.5q-48 -59 -113.5 -96.5t-133.5 -37.5q-54 0 -106 27.5t-92 75t-63.5 110.5 t-23.5 138q0 88 25 174q59 143 157 214t194 71q66 0 113 -32.5t77.5 -84.5t46.5 -120t16 -136q0 -77 -16 -138q11 0 20.5 -1t20.5 -1q48 0 79.5 17t50.5 46.5t28 67.5t9 81q0 129 -39.5 218.5t-105 144t-149.5 78t-172 23.5q-143 0 -253.5 -49.5t-186.5 -134.5t-116.5 -196 t-40.5 -231q0 -149 43 -251t114 -165t160.5 -90.5t180.5 -27.5q127 0 255.5 38.5t239.5 93.5q29 11 50 11q41 0 65.5 -27t24.5 -61q0 -50 -70 -94t-170.5 -77t-209 -52.5t-185.5 -19.5q-172 0 -301 62.5t-214 164.5t-127 229.5t-42 259.5zM724 627q0 -25 5.5 -54.5t18 -54.5 t34 -42t53.5 -17q41 0 69 23t46.5 59t26 81.5t7.5 90.5q0 32 -3 64.5t-12 58.5t-24 43t-38 17q-32 0 -66.5 -27.5t-52.5 -47.5q-34 -41 -49 -94t-15 -100z" />
<glyph unicode="A" horiz-adv-x="1321" d="M61 102q75 328 180 641.5t264 612.5q14 43 63 54q16 6 30 6q10 0 18 -2q22 -6 38 -22q2 0 2 -1.5t3 -1.5q118 -113 197 -255.5t144 -289.5q25 -52 46.5 -104t41.5 -104l120 2q44 -14 64 -41q20 -26 19 -52q1 -29 -23 -57q-22 -26 -66 -35h-48q29 -93 51 -187t33 -191 q-2 -43 -22 -71q-20 -26 -50 -32l-16 -2l-44 12q-30 16 -49 54q-14 106 -39 209t-58 205l-600 -4q-5 0 -10.5 1t-10.5 1q-57 -192 -101 -398q-18 -48 -52 -64q-22 -10 -42 -9q-12 0 -22 3q-30 8 -50 40q-13 22 -14 52q0 14 3 30zM398 631l494 5q-29 68 -60 133.5t-63 131.5 q-36 66 -72 133.5t-84 128.5q-63 -129 -116 -262.5t-99 -269.5z" />
<glyph unicode="B" horiz-adv-x="1167" d="M79 1174q0 50 54.5 93t131.5 76t159.5 51t138.5 18q102 0 185 -34t140.5 -87t88 -117.5t30.5 -125.5q0 -86 -44 -166.5t-123 -139.5q113 -57 167 -144t54 -182q0 -63 -22.5 -123t-62 -112t-94 -91.5t-119.5 -60.5q-84 -27 -171 -35t-173 -8q-32 0 -62.5 0.5t-62.5 2.5 q-50 5 -73.5 33t-23.5 59q0 16 9 39v978q-20 -7 -41 -7q-38 0 -62 25t-24 58zM391 170q48 0 129.5 4.5t159.5 26t136 69t58 133.5q0 45 -20.5 86t-63.5 68q-52 36 -114.5 53t-127.5 24q-38 -5 -78 -8.5t-79 -3.5v-452zM391 824q36 0 71.5 -1.5t71.5 -3.5q32 2 81.5 17t95 41 t78 64.5t32.5 90.5q0 50 -24.5 86t-63 60t-87.5 35t-94 11q-86 0 -161 -29v-371z" />
<glyph unicode="C" horiz-adv-x="1201" d="M95 593q0 95 25 176q34 109 79 190.5t107.5 143.5t143 111t184.5 92q68 29 125.5 45t109.5 16q79 0 142.5 -45.5t119.5 -153.5q7 -20 7 -41q0 -41 -25 -66t-61 -25q-43 0 -79 37q-32 61 -56.5 86t-56.5 25q-25 0 -59 -12.5t-86 -30.5q-86 -34 -165 -83t-139 -118 t-95 -159.5t-35 -205.5q0 -81 24.5 -159.5t71 -140.5t114.5 -99.5t156 -37.5q52 0 97.5 20.5t84 54.5t70 74.5t56.5 81.5q36 29 75 29q36 0 61 -25t25 -63q0 -20 -12 -50q-38 -59 -84.5 -114t-103 -97t-123.5 -68t-148 -26q-122 0 -223 49.5t-174.5 135.5t-113 202.5 t-39.5 250.5z" />
<glyph unicode="D" horiz-adv-x="1303" d="M20 1154q0 50 58 86t137 60t166 35t144 11q165 0 294 -54t217.5 -145.5t134.5 -214t46 -255.5q0 -136 -49.5 -266t-151.5 -228q-70 -68 -157 -107.5t-182 -63t-192.5 -35t-190.5 -20.5q-34 5 -56.5 19.5t-33.5 34.5l-7 14q-5 11 -9.5 23.5t-4.5 23.5v1016 q-20 -7 -32.5 -12.5t-35.5 -5.5q-43 0 -69 25t-26 59zM369 149q66 7 139.5 16t143.5 27t131 47.5t102 75.5q72 79 109.5 178.5t37.5 203.5q0 91 -33 174.5t-97.5 148t-159.5 103t-219 38.5q-38 0 -77 -4.5t-77 -11.5v-996z" />
<glyph unicode="E" horiz-adv-x="1120" d="M100 1208.5q0 27.5 18 53.5t56 39q88 27 180 37.5t184.5 14t185.5 3.5t183 4h7q46 0 72 -22q28 -24 32 -57q1 -6 1 -11q1 -26 -17 -52q-22 -30 -72 -41q-106 -5 -222 -5h-66h-26q-139 0 -270 -20v-398q56 -2 113 -2q62 0 124 2q119 6 238 18h7q46 0 72 -23q28 -25 32 -57 q1 -5 1 -10q1 -26 -17 -52q-22 -30 -72 -42q-124 -11 -250 -18q-74 -4 -146 -4q-52 0 -102 2v-367q91 -13 186 -14q48 0 96 4q146 10 273 44h8q38 0 63 -17q28 -19 36 -47t-4.5 -59t-50.5 -53q-81 -23 -174 -37q-93 -12 -188 -16q-32 -1 -63 -2q-63 0 -125 5q-93 7 -177 27 q-36 18 -52 44t-13 51v3v993q-29 9 -45 31.5t-16 50z" />
<glyph unicode="F" horiz-adv-x="1025" d="M70 702q0 25 15 48.5t44 34.5v16q0 27 1 64.5t1 80.5q0 66 -6.5 127t-31.5 97q-14 32 -14 57q0 66 70 88q84 14 169 17t170 4t171 3.5t169 13.5q54 0 82.5 -25t28.5 -63q0 -32 -21.5 -58t-66.5 -37q-131 -17 -261 -17h-15h-28l-248 -8q11 -48 14.5 -98.5t3.5 -100.5 q0 -38 -1 -72t-1 -66v-23q122 0 251 6t224 35q52 0 81.5 -25t29.5 -63q0 -57 -63.5 -85t-154 -39.5t-192.5 -11.5h-176v-541q-2 -52 -30.5 -78t-62.5 -26q-32 0 -59 24t-34 73v564q-59 27 -59 84z" />
<glyph unicode="G" horiz-adv-x="1360" d="M81 665q0 66 16 143t49 151.5t82.5 140t117.5 108.5q122 79 250 130t262 51q38 0 92.5 -7.5t105.5 -24.5t87 -46.5t36 -72.5q0 -36 -25 -61t-63 -25q-20 0 -47.5 9t-58 19t-63.5 19t-64 9q-23 0 -43.5 -2t-40.5 -9q-88 -27 -178.5 -64.5t-164 -98.5t-119 -150.5 t-45.5 -222.5q0 -109 38.5 -205t102 -166t147 -111t174.5 -41q79 0 156 31.5t140 95.5v308q-86 -2 -171 -2.5t-171 -0.5q-50 7 -73.5 34t-23.5 59t26 62.5t78 30.5q23 0 96.5 1t157 1t157 1t96.5 1q43 -11 63.5 -37t20.5 -55q0 -27 -18 -51t-52 -38v-339q0 -50 -33 -84 t-62 -63q-72 -72 -171 -105t-200 -33q-165 0 -290 69t-207.5 174t-124.5 229.5t-42 237.5z" />
<glyph unicode="H" horiz-adv-x="1274" d="M106 93v1170q0 38 11.5 63t30.5 38.5t42 18t43 4.5q29 0 49.5 -25t20.5 -77v-550h618v528q0 38 12.5 63t30.5 38.5t42 18t44 4.5q32 0 52 -25t20 -77v-550q66 0 85.5 -31.5t19.5 -69.5t-19.5 -70t-85.5 -34v-439q0 -70 -35 -95t-75 -25q-34 0 -62.5 29t-28.5 91v439h-618 v-437q0 -70 -35 -95t-73 -25q-34 0 -61.5 29.5t-27.5 90.5z" />
<glyph unicode="I" horiz-adv-x="907" d="M153 1335q26 27 76 30h466q43 -14 63 -41t19 -55.5t-23.5 -54.5t-65.5 -35h-138v-991q29 0 58.5 1t61.5 3h7q45 0 71 -22q28 -24 32 -57q1 -6 1 -11q1 -26 -17 -52q-22 -30 -72 -41q-91 -4 -180 -4q-27 1 -54 1q-116 2 -234 1q-50 7 -74 35q-23 27 -22 58v3q1 33 27 60 t76 29h66.5t66.5 -2v989h-142q-50 7 -74 35q-23 26 -23 57q0 35 28 64z" />
<glyph unicode="J" horiz-adv-x="1126" d="M-7 281q0 36 24 61t62 25q36 0 70 -25q20 -20 34 -42t25.5 -43.5t25 -43t35.5 -41.5q29 -27 66.5 -39.5t76.5 -12.5q50 0 97.5 18t81.5 52q16 14 25 25t14.5 21.5t11 23t12.5 30.5q11 88 14.5 176t3.5 177q0 61 -1 127.5t-2 137t-3.5 138t-4.5 128.5q-122 -5 -241 -5 q-12 0 -24 1h-53q-105 0 -212 -2q-45 7 -70 35t-23 60q0 59 77 90q220 2 448.5 3.5t450.5 5.5h9q48 -2 73.5 -30.5t23.5 -61.5q0 -32 -22.5 -57t-67.5 -34q-41 -2 -93 -2h-91l3 -815q0 -127 -61 -224q-29 -48 -72.5 -86t-94.5 -64t-106.5 -41t-111.5 -15q-77 0 -148.5 28.5 t-123.5 89.5q-7 7 -25 31.5t-38 53t-36 53.5t-16 29q-23 29 -23 64z" />
<glyph unicode="K" horiz-adv-x="1197" d="M100 86q2 294 2 584t-2 604q11 45 36 68t56 23q29 0 55.5 -20.5t37.5 -63.5q0 -129 -1 -246.5t-1 -249.5q100 43 171 97.5t132 121t122 147t141 173.5q36 29 74 29q36 0 61 -25t25 -63q0 -20 -11 -50q-68 -79 -122.5 -148t-106.5 -130t-105 -114.5t-116 -98.5 q134 -143 265 -282t262 -281q25 -32 25 -70t-25 -62t-61 -24q-18 0 -39.5 7.5t-39.5 28.5q-16 18 -59 63t-98.5 105t-118 127t-117.5 127t-98 105t-59 63q-43 -20 -104 -43q0 -131 2 -249.5t7 -247.5q-2 -52 -30.5 -78.5t-62.5 -26.5q-32 0 -61.5 25t-35.5 75z" />
<glyph unicode="L" horiz-adv-x="1061" d="M124 79q0 299 2.5 595.5t2.5 597.5q9 43 35 65.5t54 23.5h3q27 0 53 -19q27 -20 41 -63q0 -281 -2.5 -556t-2.5 -556q152 5 303.5 6t305.5 6q43 -14 63 -41q19 -25 20 -52q0 -31 -24 -58q-22 -26 -66 -35q-174 -5 -346 -6t-344 -5q-88 9 -98 97z" />
<glyph unicode="M" horiz-adv-x="1694" d="M66 52q14 145 28.5 300t29 312t29 313.5t28.5 301.5q9 41 35 63.5t58 22.5q50 0 84 -50q61 -111 122 -232t122 -244.5t123.5 -244.5t123.5 -232q45 111 91.5 232t92.5 244.5t92.5 245.5t94.5 233q18 29 40.5 43t47.5 14q27 0 53 -20.5t38 -59.5q41 -143 78 -296.5 t70 -310.5t57.5 -314.5t38.5 -304.5q-2 -52 -30.5 -78t-62.5 -26q-32 0 -60 23.5t-33 73.5q-11 109 -28 230t-38.5 244.5t-47.5 243t-55 224.5q-43 -104 -86 -218.5t-87.5 -231t-87.5 -232t-88 -219.5q-36 -43 -79 -43q-34 0 -75 36l-448 876q-11 -109 -22.5 -229 t-21.5 -242t-21.5 -242t-22.5 -229q-16 -38 -41 -56t-52 -18q-32 0 -59 25t-31 72z" />
<glyph unicode="N" horiz-adv-x="1344" d="M102 1297q9 41 34 63.5t56 22.5q32 0 68 -25q104 -124 203.5 -243t196 -239t187 -245.5t176.5 -261.5q9 249 12.5 477.5t3.5 479.5q11 45 36 68t56 23q29 0 55.5 -20.5t37.5 -63.5q0 -324 -4 -627t-23 -627l2 -2h-2q-2 -11 -2 -19v-17q-14 -36 -37.5 -54.5t-50.5 -18.5 q-41 0 -77 37q-5 9 -9.5 15.5t-8.5 13.5h-3v4q-81 138 -167 264t-176.5 247t-184.5 239.5t-194 243.5v-232v-226.5t1.5 -239t1.5 -268.5q-2 -52 -30.5 -78t-62.5 -26q-32 0 -59 23.5t-34 73.5q0 306 -1 619t-1 619z" />
<glyph unicode="O" horiz-adv-x="1486" d="M102 593q0 34 2 66.5t7 64.5q11 72 39.5 156t71.5 164.5t98.5 148t118.5 108.5q79 52 169.5 78t183.5 26q154 0 289.5 -72.5t215.5 -221.5q38 -72 54 -152.5t16 -161.5q0 -52 -4.5 -105.5t-13.5 -105.5q-20 -79 -57.5 -167.5t-88.5 -167.5t-118 -144.5t-146 -99.5 q-36 -14 -63 -24t-54.5 -17t-58 -12.5t-68.5 -7.5q-5 0 -11.5 -1.5t-13.5 -1.5q-59 0 -120 19.5t-116 37.5q-93 34 -156 97.5t-102.5 143.5t-56.5 170.5t-17 181.5zM283 584q0 -91 23.5 -173.5t74.5 -144.5t128 -100.5t181 -38.5q43 0 87 11t81 32q66 36 116.5 88t89 113 t65.5 130t45 137l-6 -29q7 45 12.5 91.5t5.5 93.5q0 59 -11.5 120t-40.5 113q-52 97 -151.5 149.5t-208.5 52.5q-129 0 -231 -75q-63 -48 -112 -115.5t-81.5 -144.5t-49.5 -157.5t-17 -152.5z" />
<glyph unicode="P" horiz-adv-x="1185" d="M57 566q0 29 20 53t59 33v606q11 45 36 66.5t57 21.5q18 0 27 -4q86 38 181 63t190 25q63 0 123 -12.5t117 -43.5q61 -32 110.5 -82t83.5 -110t53.5 -127.5t19.5 -135.5q0 -131 -70 -242q-75 -115 -183.5 -184.5t-249.5 -80.5q-27 -2 -55 -3.5t-53 -1.5q-52 0 -102 4.5 t-100 11.5v-194.5t3 -194.5q-2 -52 -30.5 -78t-62.5 -26q-32 0 -59 23.5t-34 73.5v441q-7 0 -16 5q-34 18 -49.5 43t-15.5 50zM321 611q48 -11 95.5 -17t97.5 -6q48 0 95 7q66 11 130 32.5t114 74.5q45 50 68 108.5t23 117.5q0 86 -42.5 162t-123.5 121q-70 36 -153 36 q-79 0 -158.5 -24t-145.5 -55v-557z" />
<glyph unicode="Q" horiz-adv-x="1556" d="M102 611v66q5 75 26 163t58.5 173t87.5 159.5t111 121.5q77 59 165 94t181 42q29 3 57 3q125 0 242 -51q142 -63 237 -208q45 -72 68 -151t30 -163q5 -54 5 -108t-5 -107q-20 -122 -72.5 -258t-140.5 -240q61 -45 129 -81t147 -68q54 -32 59 -84v-6q0 -30 -21 -55 q-22 -27 -61 -30q-7 -1 -14 -1q-20 0 -42 11q-192 77 -340 192q-5 -2 -9 -7q-34 -18 -61 -31.5t-54 -22.5t-56.5 -17t-68.5 -15q-5 0 -11.5 -1t-13.5 -1q-16 -1 -32 -1q-44 0 -90 9q-63 14 -122 30q-95 27 -165 86t-116.5 137t-72.5 168.5t-33 183.5q-2 34 -2 68zM287 550 q7 -91 39 -173.5t88.5 -142.5t137.5 -92q64 -26 143 -26q22 0 45 2q32 5 63.5 12.5t63.5 23.5q-45 45 -85 96t-78 108q-9 16 -12.5 29.5t-8.5 26.5v6q0 34 21 58q22 27 59 31h9q45 0 81 -43q38 -54 78 -102.5t81 -91.5q70 79 108.5 180.5t60.5 206.5q2 45 3 91q1 11 1 22 q0 35 -4 70q-7 63 -22.5 122t-47.5 111q-61 95 -167 139q-89 37 -180 37q-19 0 -38 -2q-63 -7 -119.5 -29.5t-104.5 -67.5q-61 -54 -104 -126.5t-70 -154t-37 -163.5q-6 -52 -6 -101q0 -29 2 -57z" />
<glyph unicode="R" horiz-adv-x="1278" d="M66 1224q0 20 10 43t33 41q97 61 217 98.5t242 37.5q100 0 191.5 -27.5t168.5 -88.5q91 -72 131.5 -158t40.5 -177q0 -72 -24 -142t-67 -132.5t-103 -113.5t-134 -85q86 -97 185.5 -205.5t185.5 -203.5q25 -32 25 -70t-25 -62t-61 -24q-18 0 -39.5 8t-39.5 28 q-14 16 -48 53t-77 83.5t-90.5 100t-89.5 99.5t-76 82.5t-47 52.5q-61 -11 -122.5 -16t-122.5 -7v-373q-2 -52 -30 -78t-62 -26q-32 0 -59 23.5t-34 73.5v1079q-36 5 -57.5 28.5t-21.5 57.5zM330 625q86 5 172 13.5t170 40.5q50 18 94 52t78 77t53.5 91.5t19.5 96.5 q0 52 -25 101.5t-84 90.5q-54 38 -118.5 54t-132.5 16q-59 0 -115.5 -11t-111.5 -32v-590z" />
<glyph unicode="S" horiz-adv-x="1203" d="M140 231q0 38 24 62t60 24t70 -25q38 -45 89 -75.5t109 -47.5t118 -24t116 -7q38 14 53 17t24 7.5t20.5 14t43.5 31.5q11 16 20 29.5t20 29.5l21 61v30.5t-2 32.5q-5 16 -12 31t-13 31q-14 16 -26.5 29.5t-25.5 28.5q-20 11 -40.5 25t-45.5 21q-93 32 -171 44t-147 31.5 t-130.5 60t-119.5 131.5q-11 18 -13.5 27t-4.5 32q-2 18 -3.5 35t-1.5 32q0 41 8 73t24 61t40.5 59.5t58.5 67.5q38 41 88 66.5t104.5 40.5t112 20.5t112.5 5.5h32.5t30.5 -2q52 -5 98.5 -25t96.5 -34q52 -36 52 -88q0 -34 -26 -60t-74 -26q-5 0 -10.5 1t-9.5 1 q-72 23 -128 35.5t-108 12.5q-54 0 -110.5 -18.5t-131.5 -61.5q-14 -18 -27.5 -32.5t-26.5 -30.5q-7 -14 -12.5 -27.5t-10.5 -26.5q0 -14 1.5 -27.5t3.5 -24.5q9 -11 15.5 -22.5t15.5 -23.5l96 -54q68 -16 126.5 -27t113 -26t107.5 -35t114 -54q32 -18 54.5 -46.5 t42.5 -53.5q36 -43 53.5 -97.5t17.5 -112.5q0 -81 -32 -158.5t-91 -127.5q-20 -18 -41.5 -32.5t-41.5 -28.5q-48 -32 -106.5 -47.5t-124.5 -15.5q-75 0 -150.5 17t-146 47.5t-129 71t-99.5 88.5q-14 32 -14 59z" />
<glyph unicode="T" d="M41 1260q2 34 28 61.5t78 27.5h96h159.5h192.5h192.5t159.5 1t96 1q41 -14 61 -41q18 -24 18 -49v-7q-2 -32 -24.5 -56t-67.5 -33l-353 -2l2 -1104q-2 -52 -30.5 -78t-62.5 -26q-32 0 -59 23.5t-34 73.5l-2 1111h-357q-48 9 -72 37q-21 25 -21 53v7z" />
<glyph unicode="U" horiz-adv-x="1346" d="M172 1014q2 136 2 256q11 45 36 67.5t57 22.5q29 0 55 -20.5t38 -63.5q0 -75 -2.5 -171t-3.5 -199v-46q0 -80 2 -160q4 -103 14 -193.5t31.5 -160.5t57.5 -106q48 -50 108 -67t116 -17q68 0 134 29.5t118 95.5q27 34 44 105t29.5 161.5t19 193.5t11 202.5t6 188 t3.5 149.5q11 45 36 67.5t57 22.5q29 0 55 -20t37 -63q-2 -143 -7.5 -300t-20.5 -305.5t-41 -278.5t-71 -221q-25 -54 -71.5 -93.5t-104 -65.5t-121 -38.5t-122.5 -12.5q-70 0 -136.5 16t-124.5 48.5t-102 81t-67 114.5q-38 109 -52 239t-18 268q-2 88 -3 175q0 50 1 99z " />
<glyph unicode="V" horiz-adv-x="1323" d="M59 1281q0 48 26 73.5t60 25.5q52 0 88 -52q59 -152 106.5 -280.5t92.5 -249.5t90.5 -240t95.5 -255q25 66 53 132.5t55 132.5q79 192 161 382.5t186 371.5q35 58 86 58h2q34 0 61 -24.5t27 -65.5q0 -20 -11 -50q-161 -283 -286.5 -593t-240.5 -613q-14 -36 -39 -54 t-52 -18q-25 0 -48.5 15.5t-39.5 47.5q-120 310 -236.5 617.5t-234.5 617.5q0 5 -1 10.5t-1 10.5z" />
<glyph unicode="W" horiz-adv-x="2023" d="M32 1299q0 38 24.5 63t61.5 25q23 0 45.5 -11t40.5 -39q52 -104 96 -222.5t85 -227.5q59 -154 108.5 -293t92.5 -286q29 72 54 143.5t52 141.5q57 149 109 312t88 319q34 57 86 57q50 0 84 -50q52 -136 96 -257t86 -237.5t83 -229.5t88 -231q36 84 69 189t65 189 q59 152 112 316t80 327q11 45 37 66.5t58 21.5q34 0 61 -26t27 -76v-9q-27 -170 -82.5 -342t-116.5 -330q-54 -145 -112 -310t-128 -303q-36 -43 -79 -43q-57 0 -88 63q-50 129 -92 240t-79 215t-74.5 206t-80.5 208q-27 -86 -57.5 -169.5t-62.5 -167.5 q-50 -134 -103 -278.5t-119 -271.5q-36 -43 -79 -43q-57 0 -88 63q-52 208 -121 408.5t-146 399.5q-38 102 -78 214t-90 209q-14 32 -13 57z" />
<glyph unicode="X" horiz-adv-x="1341" d="M140 70q0 32 21 66q122 143 243 282t241 284q-109 143 -221 272.5t-247 247.5q-20 18 -28.5 39.5t-8.5 39.5q0 36 24 61t62 25t70 -25q134 -118 247 -245.5t222 -267.5q104 131 201.5 255.5t183.5 269.5q36 29 74 29q36 0 61 -25t25 -63q0 -20 -11 -50 q-95 -156 -198 -289.5t-218 -276.5q113 -140 225 -286t195 -304q7 -20 7 -41q0 -41 -25 -66t-61 -25q-43 0 -79 37q-77 145 -177.5 278t-204.5 262q-115 -140 -234 -275.5t-237 -273.5q-34 -20 -66 -21q-38 0 -62 24t-24 62z" />
<glyph unicode="Y" horiz-adv-x="1201" d="M29 1285q0 48 26 74t60 26q52 0 89 -52q50 -161 142.5 -291t207.5 -245q109 129 219 259t189 279q18 32 41.5 45.5t46.5 13.5q34 0 61 -25t27 -66q0 -20 -11 -49q-93 -170 -219.5 -320.5t-248.5 -299.5l-10 -9q0 -136 0.5 -270.5t2.5 -270.5q-2 -52 -30.5 -78t-62.5 -26 q-32 0 -59 23.5t-34 73.5q0 138 -1 275t-1 277q-140 136 -256.5 291t-175.5 345q0 5 -1.5 10.5t-1.5 9.5z" />
<glyph unicode="Z" horiz-adv-x="1344" d="M95 84q0 25 14 45q2 5 3 9.5t6 8.5q154 258 358.5 495.5t412.5 455.5q-127 -2 -250 -4.5t-250 -2.5h-96.5t-95.5 2q-50 7 -73.5 34t-23.5 59q0 34 26 62t78 31q66 -5 129 -5h126q172 0 344 4.5t342 4.5q79 -25 79 -90q0 -18 -6.5 -36.5t-22.5 -36.5 q-179 -140 -328.5 -311t-291.5 -347q-52 -66 -104 -131.5t-100 -133.5h50q109 0 218.5 -7t220.5 -7q79 0 157 7t157 27h7q50 0 77 -26t27 -62q0 -25 -13.5 -47.5t-44.5 -40.5q-52 -14 -102 -25t-102 -16q-32 -5 -63.5 -5h-63.5q-115 0 -231.5 9.5t-232.5 9.5 q-59 0 -120 -4.5t-120 -16.5h-9q-52 0 -74 45q-14 20 -14 46z" />
<glyph unicode="[" horiz-adv-x="635" d="M134 -206v1679q11 45 34.5 65.5t69.5 22.5h260q43 -14 63.5 -40.5t19 -55t-24 -54.5t-65.5 -35h-172v-1496h179q43 -14 63.5 -41t19 -55t-24 -54t-65.5 -36q-66 0 -130.5 1.5t-129.5 1.5q-88 9 -97 97z" />
<glyph unicode="\" horiz-adv-x="1063" d="M106 1475q0 48 26 74t60 26q52 0 89 -52q170 -387 340.5 -766t342.5 -766q7 -20 7 -41q0 -43 -26 -68t-60 -25q-25 0 -51 16t-42 50q-20 45 -73.5 164t-122.5 274t-146 328t-146 328t-122 274t-73 164q0 5 -1.5 10.5t-1.5 9.5z" />
<glyph unicode="]" horiz-adv-x="611" d="M51 -216q-1 28 19.5 55t63.5 41h178v1496h-172q-43 9 -65.5 35t-23.5 54.5t19.5 55.5t63.5 40h260q45 -2 69 -22.5t35 -65.5v-1679q-9 -88 -97 -97q-66 0 -130.5 -1.5t-130.5 -1.5q-43 9 -65.5 35.5t-23.5 54.5z" />
<glyph unicode="^" horiz-adv-x="988" d="M138 1288q0 43 29 79q127 120 191 183q84 84 149 84q63 0 145 -88q61 -68 174 -179q27 -36 27 -77q0 -54 -21.5 -69t-75.5 -15q-63 0 -100 57l-156 190l-170 -197q-38 -52 -97 -52q-54 0 -74.5 14.5t-20.5 69.5z" />
<glyph unicode="_" horiz-adv-x="1301" d="M-32 -145q0 34 26 61t78 32h1209q43 -11 63.5 -38.5t20.5 -54.5q0 -32 -23 -56.5t-68 -36.5h-1208q-50 5 -74 33t-24 60z" />
<glyph unicode="`" horiz-adv-x="604" d="M54 1439q0 36 24 61t62 25t70 -25q79 -72 161 -141t161 -142q25 -34 25 -70t-24 -59.5t-62 -23.5q-27 0 -59 13q-79 70 -159.5 140.5t-161.5 142.5q-36 38 -37 79z" />
<glyph unicode="a" horiz-adv-x="1097" d="M119 280q-5 35 -5 70q0 39 6 80q11 77 38 147q11 32 29.5 61.5t36.5 60.5q25 45 56.5 85t72.5 69q29 20 57.5 40.5t57.5 38.5q20 14 62.5 28.5t91 25t97 10.5t82.5 -14q6 1 12 1q25 -1 51 -17q30 -20 46 -65q0 -155 -2 -311q0 -15 -1 -30q0 -141 21 -279q2 -20 17 -48.5 t31.5 -56t30.5 -50t14 -29.5q0 -2 -3 -2q9 -21 9 -40q0 -10 -2 -19q-7 -27 -26 -44q-19 -18 -49 -22q-6 -1 -13 0q-25 0 -54 14q-20 20 -38.5 44t-32.5 49q-45 -38 -97 -71t-104 -35q-61 -3 -120 -3h-59q-88 2 -167 59q-66 48 -101 113.5t-45 139.5zM301 303q5 -18 11.5 -36 t11.5 -36q11 -11 23.5 -25t25.5 -25q20 -9 40.5 -16t41.5 -13q39 0 75 -2q7 0 13 -1q30 0 59 9q34 23 66.5 45.5t64.5 49.5q5 2 7 4.5t7 5.5q-28 131 -28 272v9q1 146 3 268q-20 0 -45 -4.5t-49 -12t-43 -14.5t-28 -12q-68 -32 -115.5 -82.5t-78 -113t-46.5 -131.5t-16 -139 z" />
<glyph unicode="b" horiz-adv-x="1145" d="M146 95v8q0 30 19 64l7 7v1177q9 43 35 65q27 22 55 24q2 0 3 1q26 1 52 -19q27 -20 41 -64v-539q50 48 106 75q52 29 98.5 41.5t105.5 19.5q18 3 35 3q40 0 76 -14q52 -20 101 -50q66 -38 100 -106t48 -146q11 -66 11 -134q-1 -12 -1 -25q-2 -80 -13 -144 q-5 -36 -20.5 -68.5t-33.5 -64.5q-32 -63 -86 -107.5t-121 -70.5q-66 -26 -138 -36q-51 -7 -98 -7q-19 0 -37 1q-52 5 -99.5 16.5t-92.5 38.5q-1 -3 -3 -5q-33 -20 -63 -20h-9q-34 4 -54.5 24.5t-23.5 54.5zM358 222q7 -5 24 -14q5 -5 9.5 -7t9.5 -6q72 -27 139 -27 q43 0 85 11q106 29 187 124q23 54 33 100.5t10 93t-9 94t-29 101.5q-11 11 -19 24t-20 24q-11 5 -21 11.5t-22 11.5q-11 2 -24.5 4t-24.5 5q-109 -18 -179 -73.5t-131 -141.5l-18 -18v-317z" />
<glyph unicode="c" horiz-adv-x="1009" d="M122 491q7 109 51 218.5t120 191t179 119.5q50 18 106 18q57 0 119 -20q61 -20 111 -49.5t95 -74.5q25 -36 25 -70t-20 -56q-20 -21 -52 -28q-8 -2 -16 -2q-26 0 -57 16q-75 76 -145 90q-24 5 -47 5q-44 -1 -83 -19q-60 -28 -106.5 -87.5t-71 -135t-24.5 -158t31 -153.5 q27 -63 73 -97q47 -33 99 -39l22 -2q41 0 85 17q56 21 99 69q36 30 71 30h4q38 -2 61 -25q25 -25 25 -64q0 -35 -30 -72q-76 -81 -176 -115q-70 -24 -139 -24q-29 0 -59 4q-98 14 -182 78t-125 173q-25 61 -36 129q-8 50 -8 98q0 17 1 35z" />
<glyph unicode="d" horiz-adv-x="1052" d="M16 408.5q0 78.5 19 154t49 141.5q27 59 78 106.5t107 76.5q52 29 116.5 48.5t123.5 21.5q54 0 108.5 -2t106.5 -18q-2 163 -3 275t-1 150q9 43 35 66t54 24h3q26 0 52 -20q28 -20 41 -63v-1183q5 -7 10.5 -12.5t10.5 -12.5q24 -34 24 -66v-13q-6 -38 -30 -58 q-22 -20 -57 -21q-3 1 -5 1q-38 2 -73 37q-11 11 -20 23.5t-14 23.5q-68 -59 -157 -91.5t-181 -32.5t-175.5 37t-140.5 117q-43 61 -62 136.5t-19 154zM202 421q4 -52 13 -122q9 -18 17 -36.5t17 -36.5l45 -45q27 -9 52 -23q30 -3 58 -3q58 1 108 13q76 18 147 79 q2 5 10 12.5t17 16.5l17 17l10 10l13 21v31v184.5t-2 191.5l-13 7q-7 5 -13 9t-12 9q-62 18 -129 18h-14q-75 -2 -140.5 -28t-116.5 -76t-71 -127q-14 -56 -14 -100q0 -12 1 -22z" />
<glyph unicode="e" horiz-adv-x="1077" d="M100 452q0 6 -1 12q1 115 45 221q46 112 146 179q104 70 226 106q69 20 140 20q53 0 107 -12q61 -14 110.5 -58t80 -102t32.5 -122q0 -4 1 -9q0 -60 -32 -112q-38 -63 -110.5 -107.5t-157.5 -75t-170 -51t-148 -38.5q-27 -7 -52 -2q35 -73 101 -119q58 -40 140 -40 q13 0 26 1q79 5 159 44.5t146 77.5q27 10 50 10q17 1 32 -5q35 -14 49 -44q9 -17 8 -37q0 -15 -4 -29q-10 -36 -53 -60q-75 -43 -161 -79.5t-174 -50.5q-42 -7 -84 -6q-45 0 -90 8q-86 14 -166 69q-95 66 -144.5 177.5t-51.5 233.5zM283 462q16 11 34 18q41 11 82.5 23.5 t84.5 23.5q27 7 73.5 20.5t96.5 31.5t90.5 42t54.5 53q1 8 1 16q0 62 -37 86q-41 27 -97.5 27t-118 -19t-99.5 -37q-84 -43 -124.5 -121t-40.5 -164z" />
<glyph unicode="f" horiz-adv-x="884" d="M147 797q0 32 26 62t78 30h41v254q0 79 25 147t69 116.5t105 75.5t136 27q32 0 82.5 -10t98 -30.5t83 -51t35.5 -71.5q0 -36 -25 -61t-64 -25q-23 0 -47.5 10.5t-51.5 21.5t-56.5 21.5t-56.5 10.5q-59 0 -96.5 -39.5t-51.5 -125.5v-265q63 2 137 3t140 4q43 -11 63 -37.5 t20 -55.5q0 -45 -38.5 -65.5t-94.5 -27.5q-47 -6 -97 -6q-10 0 -21 1h-39q-38 0 -70 -2v-640q-2 -52 -30 -78t-62 -26q-32 0 -59 23.5t-34 73.5v643h-48q-50 7 -73.5 34t-23.5 59z" />
<glyph unicode="g" horiz-adv-x="1079" d="M90 448q-1 4 -1 9q0 110 38 208q32 81 93 149.5t137.5 108t164.5 45.5q13 1 26 1q75 0 147 -32q66 -32 124 -70q14 32 39 46.5t52 11t50.5 -24t35.5 -58.5v-964q0 -122 -36.5 -209.5t-140.5 -155.5q-43 -27 -92.5 -47t-99.5 -25q-41 -5 -81 -5q-65 0 -127 14 q-72 16 -122 42t-116 62q-29 29 -35 63.5t9 59t47 37.5q15 6 33 6q19 0 41 -7q29 -16 49.5 -28.5t41 -22.5t42 -17t50.5 -14q41 -9 88.5 -9t94 11.5t86 36t62.5 65.5q16 27 18 65.5t2 70.5v147q-36 -18 -72 -29.5t-75 -22.5q-54 -11 -109 -14q-13 -1 -26 -1q-41 0 -82 8 q-118 20 -197 95t-118.5 177t-40.5 217zM278 500q-2 -16 -2 -33q0 -107 57 -232q11 -14 24.5 -27t24.5 -27q89 -44 174 -44q123 0 238 92q9 5 16 4v407q-2 0 -2 3q-45 43 -103 81.5t-121 56.5q-27 -2 -54.5 -4.5t-54.5 -4.5q-18 -9 -37 -18t-37 -19q-113 -115 -123 -235z " />
<glyph unicode="h" horiz-adv-x="1113" d="M145 63v1259q9 43 35 65.5t54 23.5h3q27 1 53 -19q27 -20 40 -64v-531q34 34 64 54q45 32 84.5 51t91.5 30q26 7 52 7q15 -1 31 -3q42 -6 82 -17q68 -20 117 -65.5t81.5 -105.5t48.5 -128t18 -131q1 -73 1 -144v-70v-53q0 -80 2 -161q-2 -50 -29.5 -76t-60.5 -27h-3 q-31 0 -58 23q-28 24 -35 73v214t-2 214q-2 81 -30.5 147t-98.5 111q-30 8 -56 8t-50 -8q-48 -16 -87.5 -48.5t-73.5 -75.5t-66 -84q-5 -7 -11.5 -12.5t-11.5 -10.5v-439q-2 -50 -29 -76t-60 -27h-3q-31 0 -58 23q-28 24 -35 73z" />
<glyph unicode="i" horiz-adv-x="511" d="M131 1303q0 50 32 85t77 35t78 -35t33 -85q0 -48 -33 -82.5t-78 -34.5t-77 34.5t-32 82.5zM147 935q11 45 36 67.5t57 22.5q29 0 55 -20.5t38 -63.5q2 -213 3 -434.5t3 -434.5q-2 -52 -30 -78t-62 -26q-32 0 -59 24t-34 74q-2 213 -3.5 434.5t-3.5 434.5z" />
<glyph unicode="j" horiz-adv-x="794" d="M27 -122q0 38 24 63t60 25t70 -25q16 -18 27.5 -32.5t22.5 -25t26 -19.5t35 -16q7 -2 23 -2q61 18 83.5 68t22.5 109q0 75 1 150.5t1 150.5q0 152 -1 302t-1 302q11 45 36 67.5t57 22.5q29 0 55 -20t37 -63l3 -926q-11 -86 -26 -131t-44 -91q-18 -32 -45.5 -52t-56.5 -38 q-63 -38 -129 -39q-79 0 -146 48.5t-121 114.5q-14 29 -14 57zM407 1306q0 50 32 85t77 35t78 -35t33 -85q0 -48 -33 -83t-78 -35t-77 35t-32 83z" />
<glyph unicode="k" horiz-adv-x="1081" d="M149 75v1290q9 43 35 65.5t54 23.5h3q27 0 53 -20q27 -20 41 -63v-663q59 34 105.5 70.5t91.5 79.5t91.5 94t100.5 112q35 30 70 30h6q38 -2 60 -26q25 -25 25 -64q0 -35 -30 -72q-86 -100 -158 -173t-154 -132q115 -129 218 -243.5t219 -243.5q24 -34 24 -66v-12 q-6 -36 -30 -58q-23 -21 -58 -21h-3q-37 1 -73 37q-120 134 -226.5 254t-226.5 251q-14 -7 -26.5 -13.5t-25.5 -13.5v-417q-2 -50 -29.5 -75.5t-59.5 -27.5h-4q-30 0 -58 23q-28 24 -35 74z" />
<glyph unicode="l" horiz-adv-x="615" d="M165 84v1256q9 43 35 65.5t54 23.5h3q27 1 53 -19q27 -20 41 -64v-1217q7 -5 14.5 -10t16.5 -10q41 -29 48 -67q2 -11 2 -21q0 -23 -12 -43q-17 -28 -52 -39q-12 -4 -25 -4q-26 0 -56 15q-20 14 -40.5 27.5t-42.5 27.5q-20 18 -27 33.5t-12 45.5z" />
<glyph unicode="m" horiz-adv-x="1509" d="M104 61v876q11 45 36 66.5t57 21.5q27 0 53 -19t37 -60q36 25 87 46.5t108 21.5q81 0 166 -42t137 -105q25 25 53.5 51t60 47.5t65.5 36t68 14.5q70 0 138 -23.5t121 -65.5t86 -97.5t33 -116.5q0 -5 -1 -7t-1 -7q2 -2 2 -4.5t2 -4.5v-613q-2 -52 -30.5 -78t-62.5 -26 q-32 0 -59 23.5t-33 73.5v620q-25 79 -77 107.5t-105 28.5q-59 0 -106 -29.5t-79 -108.5v-609q-2 -52 -30.5 -78t-62.5 -26q-32 0 -59 24t-34 73v564q0 7 3 9q-2 7 -3 18v25q-27 70 -85.5 101.5t-129.5 34.5q-50 -16 -95 -48l-47 -61q-7 -9 -14 -14.5t-13 -10.5v-622 q-2 -52 -30.5 -78t-62.5 -26q-32 0 -59 23.5t-34 73.5z" />
<glyph unicode="n" horiz-adv-x="1045" d="M136 689v212q11 45 36 67.5t57 22.5q29 0 55 -20.5t37 -63.5v-18q66 57 148.5 90t166.5 33t157.5 -38.5t118.5 -124.5q16 -29 22 -73q5 -46 6 -94v-32q0 -33 -1 -67q-2 -51 -2 -96v-267v-152q-2 -52 -30.5 -78t-62.5 -26q-32 0 -59 23.5t-34 73.5q0 104 -1 207t-1 207 q0 75 1 149v13q0 68 -10 137q-18 34 -39.5 42t-51.5 8q-77 0 -151.5 -37.5t-117.5 -103.5q-25 -38 -39.5 -64t-19.5 -76v-230.5t3 -231.5q-2 -52 -30.5 -78t-62.5 -26q-32 0 -59 24t-34 74v210.5t-1 201t-1 202.5z" />
<glyph unicode="o" horiz-adv-x="997" d="M69 407q3 59 15 118l7 29q25 72 61 141.5t85.5 126t114 97.5t144.5 59q48 11 92 10q76 0 138 -31q98 -50 156 -143q58 -92 78 -211q8 -47 8 -92q0 -69 -18 -135q-34 -134 -119.5 -249.5t-217.5 -167.5q-77 -30 -149 -30q-20 0 -38 2q-90 10 -160.5 57.5t-120.5 124.5 t-68 174q-9 48 -9 95q0 12 1 25zM254 415q-1 -13 -1 -27q0 -28 5 -62q7 -61 38.5 -110t77.5 -75q43 -25 94 -24q2 -1 6 -1q56 2 112 36q75 45 119 117.5t67 155.5q11 43 11 89q1 27 -3 56q-10 77 -46.5 136t-97.5 85q-26 11 -57 11q-40 0 -88 -19q-91 -38 -143 -115.5 t-81 -165.5q-9 -48 -13 -87z" />
<glyph unicode="p" horiz-adv-x="1081" d="M140 -464v1378q11 45 36 68t57 23q29 0 55.5 -20.5t37.5 -63.5v-20q52 45 118.5 66.5t130.5 21.5q88 0 164 -38.5t132.5 -104t88 -153t31.5 -186.5q0 -109 -35 -199.5t-103 -156t-168.5 -103t-234.5 -37.5q-32 0 -62 2.5t-62 6.5v-477q-2 -52 -30.5 -78t-62.5 -26 q-32 0 -59 23.5t-34 73.5zM326 208q32 -7 62.5 -11.5t61.5 -4.5q77 0 143 20.5t114.5 59t75.5 95t27 129.5q0 54 -17 109.5t-47.5 100.5t-71 73.5t-90.5 28.5q-38 0 -72.5 -13.5t-63.5 -35t-54.5 -47.5t-45.5 -53q-5 -7 -11.5 -13t-10.5 -10v-428z" />
<glyph unicode="q" horiz-adv-x="1056" d="M100 520q13 109 52 204q29 72 84.5 124.5t125.5 85t148 46.5q54 9 106 9q23 0 45 -2q75 -7 133 -37q22 15 48 15q15 0 32 -5q45 -16 63 -75v-1351q-2 -50 -29.5 -76t-59.5 -27h-3q-31 0 -59 23t-35 73v514q-81 -32 -163 -39q-27 -3 -57 -3q-24 0 -51 2q-59 4 -104 17 q-115 32 -180 111t-88 180q-14 63 -14 130q0 39 6 81zM281 484q0 -86 13 -167q9 -14 17 -28.5t17 -30.5q11 -11 21.5 -19t21.5 -19q84 -34 171 -34q12 0 24 1q99 5 185 57v514q-11 7 -13 16q-54 23 -116 28h-28q-48 0 -92 -12q-58 -16 -106 -52t-77 -93q-38 -75 -38 -161z " />
<glyph unicode="r" horiz-adv-x="896" d="M104 880q0 34 25 60t68 26q32 0 79.5 -22.5t74.5 -49.5q70 59 144.5 97.5t151.5 38.5q23 0 66 -11.5t85 -34t73.5 -59t31.5 -83.5q0 -38 -25 -62t-61 -24q-25 0 -44 14.5t-38.5 31.5t-41 30.5t-48.5 13.5q-32 0 -69 -19t-74.5 -46t-71.5 -59t-59 -57v-602 q-2 -52 -30.5 -78t-62.5 -26q-32 0 -59 24t-33 74v617q0 5 -1.5 10.5t-1.5 10.5t1.5 10.5t1.5 9.5v66q-9 5 -16 7q-34 18 -50 42.5t-16 49.5z" />
<glyph unicode="s" horiz-adv-x="882" d="M54 239q6 33 28 52t56 19t70 -25q52 -66 123.5 -102t152.5 -43l48 14q18 14 24.5 18.5t10 7.5t9.5 10t19 25q5 9 7 18t7 20q0 11 1 20.5t1 20.5l-14 41q-7 9 -14.5 18t-14.5 18q-57 36 -113.5 52t-109.5 33t-104 44t-96 88q-43 54 -47 126v16q0 62 23 121q26 66 77 116.5 t117 64.5q53 13 106 13q43 -1 87 -9q98 -18 184 -63q41 -29 48 -67q2 -11 2 -20q0 -24 -12 -44q-17 -26 -52 -38q-12 -4 -25 -4q-26 0 -56 15q-54 29 -114 38q-30 4 -60.5 4.5t-60.5 -4.5q-7 -5 -15 -7t-14 -6q-25 -28 -37 -54q-10 -23 -9 -53v-11q2 -9 12 -27 q7 -9 13.5 -16t13.5 -16q54 -29 118.5 -46t125.5 -38.5t113 -56.5t82 -103q32 -77 32 -146q0 -48 -15 -92q-37 -109 -151 -183q-29 -18 -65 -30.5t-68 -12.5q-122 0 -240 55t-190 155q-15 31 -15 57q-1 9 1 17z" />
<glyph unicode="t" horiz-adv-x="936" d="M165 889q0 32 26 62.5t78 30.5h127v358q11 45 36 67.5t57 22.5q29 0 55 -20.5t38 -63.5v-364h217q43 -11 63.5 -37t20.5 -56q0 -32 -23 -56.5t-68 -35.5h-210q-1 -87 -1 -177t1 -182q2 -185 2 -359q0 -52 -30.5 -78t-62.5 -26t-59 24t-34 73q0 177 -1 362.5t-1 362.5 h-133q-50 7 -74 34t-24 58z" />
<glyph unicode="u" horiz-adv-x="1081" d="M109 550q0 93 4.5 181t4.5 156q11 45 36 68t56 23q29 0 55.5 -20.5t37.5 -63.5q0 -106 -3.5 -204.5t-3.5 -209.5q0 -127 54.5 -208.5t147.5 -81.5q34 0 68 13.5t63.5 36.5t54 52t45.5 59q5 5 11.5 8t10.5 8q-13 105 -13 213v15q0 66 1 132.5t11 122t34 90.5t67 35 q34 0 61 -26t27 -75q0 -52 -8 -127t-8 -156q0 -63 4.5 -126.5t15 -121.5t27.5 -105.5t44 -81.5q25 -32 25 -70t-25 -62t-61 -24q-50 0 -86 46.5t-61 105.5q-59 -63 -138.5 -107.5t-162.5 -44.5q-61 0 -118 21.5t-105.5 59t-86 87t-55.5 104.5q-18 59 -24.5 130t-6.5 148z " />
<glyph unicode="v" horiz-adv-x="952" d="M38 940q12 35 39 52q20 12 45 12q10 0 20 -2q38 -6 66 -47q79 -158 149.5 -321t135.5 -331q16 43 31 86l30 86q41 118 82 234.5t75 238.5q23 38 53 51q19 8 37 8q11 0 21 -3q28 -8 48 -36q17 -26 17 -64v-8q-32 -122 -73.5 -238.5t-82.5 -234.5q-38 -109 -75.5 -214 t-82.5 -209q-36 -44 -79 -44q-6 0 -12 1q-50 7 -77 63q-81 215 -166 425.5t-189 414.5q-15 30 -15 56q-1 12 3 24z" />
<glyph unicode="w" horiz-adv-x="1475" d="M88 892q-2 12 -2 22q0 34 18 58q22 30 54 38q8 2 17 1q24 0 48 -14q33 -19 46 -67q25 -152 67 -303.5t94 -300.5q29 75 55 140.5l52 131t57 140t67 167.5q18 32 44 45.5t52 10t48.5 -22.5t34.5 -55q20 -72 48.5 -141.5t55.5 -137.5q29 -77 59.5 -152.5t62.5 -150.5 q63 158 111.5 321t98.5 326q23 38 53.5 51t59 5t47.5 -36q17 -26 17 -64v-8q-66 -220 -135 -440.5t-168 -428.5q-34 -41 -75 -43h-4q-39 0 -75 36q-63 127 -117.5 256t-106.5 260q-9 18 -17 37.5t-15 39.5q-29 -72 -56.5 -141t-54.5 -140.5t-56.5 -146t-63.5 -160.5 q-36 -44 -78 -44q-7 0 -13 1q-50 7 -76 63q-52 124 -92 250t-78 255q-27 86 -48.5 171t-35.5 171z" />
<glyph unicode="x" horiz-adv-x="1140" d="M110 921q0 35 20 58q22 23 59 29q6 1 12 1q32 0 66 -25q77 -79 154 -157t149 -157q75 84 154.5 165.5t160.5 160.5q35 30 70 30h5q38 -2 60 -25q24 -23 26 -61v-5q0 -35 -30 -71q-84 -81 -164 -164.5t-157 -169.5q95 -109 180 -223.5t159 -236.5q7 -23 7 -42 q1 -16 -5 -32q-12 -32 -38 -47q-19 -12 -43 -12q-7 -1 -15 1q-33 4 -64 37q-66 109 -143 212t-160 200q-149 -183 -286 -392q-32 -39 -69 -43q-7 -1 -14 0q-28 0 -50 15q-27 19 -35 57q-2 9 -2 17q0 30 21 63q70 111 148 217.5t162 208.5q-72 79 -148 157t-153 157 q-37 37 -37 77z" />
<glyph unicode="y" horiz-adv-x="1097" d="M68 898q0 59 23.5 89.5t64.5 30.5q29 0 55.5 -19t37.5 -62q25 -95 60 -175.5t81.5 -149.5t104 -131t127.5 -121q75 147 137 296.5t103 312.5q18 32 41 45t47 13q38 0 63.5 -29t25.5 -81q-48 -183 -120.5 -355.5t-158.5 -337.5t-181 -327t-185 -327q-18 -25 -41 -35 t-43 -10q-34 0 -59 25t-25 70v14.5t3 17.5q75 138 154 271.5t153 268.5q-91 72 -163 148t-129.5 161t-100.5 183.5t-75 213.5z" />
<glyph unicode="z" horiz-adv-x="1095" d="M62 882q-1 5 0 9q0 25 15 49q18 30 59 44q186 18 371 21q86 2 173 2q99 0 200 -2q61 -18 76 -67q4 -13 4 -26q0 -35 -30 -70q-149 -161 -301 -320.5t-285 -335.5q98 3 193 4q57 0 115 -2q152 -3 305 -23q48 -15 67 -47q14 -24 14 -47q0 -9 -2 -17q-6 -32 -36 -54 q-23 -18 -59 -18q-11 0 -22 2q-165 22 -331 22h-46q-189 -4 -377 -15q-66 9 -86 53q-8 17 -8 36q0 30 20 65q122 183 270 348.5t298 327.5q-127 0 -250.5 -4.5t-250.5 -15.5q-43 5 -67.5 29t-28.5 52z" />
<glyph unicode="{" horiz-adv-x="703" d="M61.5 653q-4.5 58 58.5 123q7 7 18 15t22.5 17t21.5 16t15 9q41 27 60 38.5t55 29.5q-29 86 -49.5 173t-22.5 180q-2 68 17 140t58.5 127.5t99.5 86t142 17.5q48 -14 67 -46.5t12 -64.5t-37.5 -54.5t-80.5 -15.5q-7 0 -11 2q-14 -2 -25 -11q-48 -50 -55.5 -120t5 -146 t36 -148.5t41.5 -124.5q11 -45 0 -74.5t-50 -52.5q-52 -29 -101.5 -56t-97.5 -61q38 -41 98.5 -72.5t107.5 -61.5q32 -23 42 -44t8 -58q-9 -50 -25 -125.5t-26 -157t-5.5 -156t33.5 -122.5q16 -11 31 -15.5t33 -9.5q48 -14 67 -46.5t12 -64t-37.5 -54.5t-80.5 -16 q-84 16 -134.5 60t-75.5 106.5t-29.5 137t2 151.5t20.5 150.5t23 132.5q-48 32 -110 71.5t-105 88t-47.5 106.5z" />
<glyph unicode="|" horiz-adv-x="515" d="M165 -102v1652q11 45 36 68t57 23q29 0 55 -20.5t38 -63.5v-1652q-2 -52 -30.5 -78t-62.5 -26q-32 0 -59 23.5t-34 73.5z" />
<glyph unicode="}" horiz-adv-x="719" d="M84 -280.5q-7 31.5 12 64t67 46.5q18 5 32.5 9.5t30.5 15.5q32 48 35.5 122.5t-7 156t-26 157.5t-24.5 125q-2 36 8 58t41 44q48 29 108 61t98 73q-48 34 -97.5 61t-101.5 56q-38 23 -49.5 52.5t-0.5 74.5q18 52 42 124.5t36.5 148.5t4.5 146t-55 120q-11 9 -25 11 q-5 -2 -12 -2q-50 -7 -80 15.5t-37 54.5t12 64.5t67 46.5q81 14 141 -17t100 -86.5t59 -127.5t17 -140q-2 -93 -22.5 -180t-50.5 -173q36 -18 55.5 -29.5t60.5 -38.5q5 -2 15 -9t22.5 -16t22.5 -17t17 -15q43 -43 53 -83.5t-1.5 -77t-40.5 -69t-66.5 -61t-77 -53.5 t-71.5 -45q11 -59 23.5 -132.5t19.5 -150.5t2.5 -151.5t-29.5 -137t-76 -106.5t-135 -60q-50 -7 -80 16t-37 54.5z" />
<glyph unicode="~" horiz-adv-x="1308" d="M161 1136q0 38 37 79t91.5 75t116.5 55.5t112 21.5q57 0 102 -21.5t87 -47.5t83 -47.5t84 -21.5q45 0 87 30.5t80 80.5q36 29 75 29q36 0 61 -25t25 -61q0 -43 -34 -86t-85 -77t-107.5 -55.5t-101.5 -21.5q-14 0 -28.5 1t-30.5 4q-41 7 -78.5 29.5t-73.5 46t-73.5 42 t-78.5 18.5t-75.5 -20.5t-67.5 -46.5t-62.5 -46.5t-58.5 -20.5q-38 0 -62 26t-24 60z" />
<glyph horiz-adv-x="1045" />
<glyph unicode="&#xa1;" horiz-adv-x="742" d="M240 1027q0 57 37.5 94.5t91.5 37.5t92.5 -39t38.5 -93t-37.5 -92.5t-93.5 -38.5q-54 0 -91.5 38.5t-37.5 92.5zM287 643q0 -233 1.5 -465t1.5 -465q7 -50 34 -74t58 -24q34 0 62.5 26t30.5 78q-2 233 -2 464v466q-11 43 -37 63.5t-56 20.5q-32 0 -57 -22.5t-36 -67.5z " />
<glyph unicode="&#xa2;" horiz-adv-x="1002" d="M84 588q0 75 29.5 148.5t78 138t115 114.5t141.5 77q0 66 1 129t1 129q11 45 36 67.5t57 22.5q29 0 55.5 -20t37.5 -63q0 -59 -1 -119t-1 -119q27 -2 64 -10t70 -24t57 -41t24 -63q0 -36 -24 -60t-62 -24q-34 0 -66 18t-63 23q-2 -122 -2.5 -244.5t-0.5 -244.5 q27 9 53.5 27t51 37.5t47.5 33t45 13.5q36 0 61 -25t25 -61q0 -41 -29.5 -76t-72.5 -62t-92.5 -46.5t-88.5 -28.5v-163q0 -52 -30.5 -78t-61.5 -26q-32 0 -59 24t-34 74v156q-11 0 -20.5 2t-20.5 5q-81 16 -141 55.5t-101 90t-60 107.5t-19 106zM272 597q0 -32 12 -62 t36 -56t56 -44t68 -25l4 -3v457q-72 -45 -124 -118.5t-52 -148.5z" />
<glyph unicode="&#xa3;" horiz-adv-x="1278" d="M91 50q0 25 13.5 49.5t33.5 52t44 54.5t42 52q7 23 23 34q50 72 87 155t71 169l-129 -7q-48 5 -72.5 32t-24.5 58q0 43 30.5 63.5t75.5 29.5t97 9t95 2q52 129 104.5 239t113.5 223q45 81 108.5 114t151.5 44q54 0 82.5 -24.5t28.5 -63.5q0 -27 -21.5 -57.5t-66.5 -37.5 l-46 -7q-18 0 -33.5 -9t-24.5 -20q-61 -84 -105.5 -188t-89.5 -204q57 2 112 4.5t112 7.5q54 0 82.5 -25t28.5 -64q0 -48 -43 -70t-106.5 -30t-132.5 -8t-123 -2q-36 -93 -74.5 -188t-90.5 -177q86 -45 177.5 -88t177.5 -43q54 0 104 25t90 84v2l3 2l-3 -2q11 38 36.5 57.5 t54.5 19.5q27 0 54 -20.5t39 -61.5q0 -70 -42 -125.5t-101 -92.5t-122 -56.5t-109 -19.5q-57 0 -115.5 15t-116 38.5t-115.5 53t-117 58.5q-16 -23 -35 -47.5t-39.5 -46t-42 -35t-45.5 -13.5q-34 0 -60 23.5t-26 62.5zM993 235v3v-3z" />
<glyph unicode="&#xa5;" horiz-adv-x="1129" d="M75 1236q0 59 23.5 89.5t64.5 30.5q29 0 55 -19.5t38 -62.5q23 -88 45.5 -147t53 -103t72 -80.5t103.5 -79.5q93 113 180 230t154 243q18 32 42 45.5t47 13.5q34 0 61 -25t27 -65q0 -20 -11 -50q-77 -147 -179 -280.5t-206 -262.5l-9 -9q0 -11 -1 -25t-1 -25 q66 20 130 40.5t130 43.5q52 0 81.5 -25t29.5 -64q0 -25 -13.5 -47.5t-45.5 -40.5l-312 -102v-95q66 20 131.5 40.5t130.5 43.5q52 0 81.5 -25t29.5 -63q0 -25 -13.5 -47.5t-45.5 -40.5q-79 -25 -157 -51t-157 -51v-145q0 -52 -30.5 -78t-62.5 -26t-59 23.5t-34 73.5v93 q-48 -16 -104.5 -36.5t-99.5 -20.5q-45 0 -71 26t-26 60q0 36 30.5 62.5t77 44.5t98.5 31.5t95 27.5v95l-176 -55q-7 -2 -15 -2h-15q-45 0 -71 26t-26 60q0 27 18 54t57 39l230 74v98q-167 100 -248.5 234.5t-126.5 306.5z" />
<glyph unicode="&#xa6;" horiz-adv-x="515" d="M163 629v634q11 45 36 67.5t57 22.5q29 0 55 -20t37 -63v-634q-2 -52 -30 -78t-62 -26q-32 0 -59 23.5t-34 73.5zM165 215q11 45 36 68t57 23q29 0 55 -20.5t38 -63.5v-634q-2 -52 -30.5 -78t-62.5 -26q-32 0 -59 24t-34 73v634z" />
<glyph unicode="&#xa7;" horiz-adv-x="977" d="M97 523q0 43 21.5 83.5t56.5 74.5t80.5 62.5t95.5 44.5q-2 2 -4.5 3t-4.5 3q-61 41 -111 109t-50 142q0 68 39.5 120t102 93t138 72.5t145.5 56.5q52 0 81.5 -25t29.5 -63q0 -34 -22.5 -55.5t-56.5 -37.5t-76 -29.5t-80 -31.5t-69 -43t-44 -63q0 -11 2 -16 q41 -63 107.5 -98.5t137 -71.5t132.5 -84.5t92 -139.5q14 -29 13 -70q0 -41 -22.5 -89.5t-57.5 -89.5t-78 -69t-84 -28q-38 0 -62 26t-24 60q0 32 18 53.5t42 41.5t47.5 41.5t32.5 51.5q0 23 -13.5 43t-32.5 37t-42 31.5t-41 23.5q-14 -29 -52 -54q-18 -7 -50.5 -17 t-65.5 -26t-57 -34t-24 -41v-15q32 -68 95.5 -113.5t134.5 -88.5t139 -92.5t111 -129.5q32 -54 32 -117q0 -66 -29.5 -121.5t-78 -95t-112 -62t-133.5 -22.5q-75 0 -143 20q-34 18 -49.5 42t-15.5 49q0 34 26 61t78 29q48 -16 102 -16q18 0 47 6t56.5 18.5t46.5 32.5t19 50 q0 45 -39.5 85.5t-77.5 65.5q-48 34 -116 71.5t-131 87.5t-107.5 112t-44.5 146z" />
<glyph unicode="&#xa8;" horiz-adv-x="941" d="M88 1539q0 25 18 51t43 45t54.5 31.5t52.5 12.5q50 0 86 -36t36 -88q0 -25 -16 -51t-39.5 -45.5t-54 -33t-58.5 -13.5q-50 0 -86 37.5t-36 89.5zM568 1555q0 27 17 52t42 44t52 30.5t50 11.5q48 0 82.5 -35t34.5 -85q0 -27 -15.5 -52t-39.5 -45.5t-52 -32t-53 -11.5 q-48 0 -83 35.5t-35 87.5z" />
<glyph unicode="&#xa9;" horiz-adv-x="1837" d="M161 699q11 147 59.5 275t159.5 250q109 118 249 173.5t292 55.5q170 0 314.5 -62.5t251 -171t166.5 -254.5t60 -313q0 -158 -66.5 -296.5t-176.5 -238t-252.5 -157t-294.5 -57.5q-122 0 -236 40.5t-210.5 112t-169 168.5t-110.5 210q-23 63 -28.5 123.5t-7.5 141.5z M344 690q11 -147 46 -243t126 -187t196 -132.5t214 -41.5q115 0 223.5 44t191 123.5t133.5 190t51 246.5q0 129 -49.5 234.5t-131 182.5t-189 118.5t-223.5 41.5q-154 0 -261.5 -54t-177.5 -140t-131 -240zM588 638q0 111 40 205t102 162t139 106.5t152 38.5q111 0 181 -145 q11 -29 11 -45q0 -41 -30.5 -69.5t-71.5 -28.5t-62.5 28.5t-41.5 55.5q-102 -23 -160.5 -114.5t-58.5 -213.5q0 -36 5.5 -70t16.5 -61.5t28 -43t40 -15.5q27 0 56.5 23.5t58 53t55.5 53.5t50 24q41 0 71 -28.5t30 -69.5q0 -29 -13 -54q-124 -204 -299 -204q-68 0 -123.5 33 t-94 89.5t-60 131t-21.5 158.5z" />
<glyph unicode="&#xaa;" horiz-adv-x="1131" d="M170 971q0 113 45 207t114 160.5t151.5 104t159.5 37.5q18 0 41 -2.5t45.5 -12.5t43 -29t29.5 -51v-233q0 -79 4.5 -155t58.5 -155q41 -48 41 -88q0 -36 -24 -61t-62 -25q-45 0 -75.5 35t-51.5 66q-25 -27 -47.5 -44t-51 -26t-64.5 -12.5t-88 -3.5q-57 0 -105.5 26 t-84.5 67t-57.5 92t-21.5 103zM172 430q0 32 26 62.5t78 30.5h600q43 -11 63.5 -37.5t20.5 -55.5q0 -32 -23 -57t-68 -36h-600q-50 7 -73.5 34t-23.5 59zM357.5 1034q-9.5 -61 18.5 -115q11 -25 41.5 -38.5t91.5 -6.5q25 5 46.5 26t39.5 46q7 5 12.5 9.5t12.5 8.5 q-7 45 -9 90.5t-2 92.5q0 36 1 71.5t1 71.5q-66 -11 -121.5 -49.5t-89 -92t-43 -114.5z" />
<glyph unicode="&#xab;" horiz-adv-x="1267" d="M95 665q0 29 20 64q102 97 200.5 194.5t202.5 194.5q18 18 38.5 23.5t36.5 5.5q36 0 61 -24.5t25 -61.5q0 -38 -30 -74q-95 -93 -171.5 -164.5t-160.5 -152.5q77 -75 153.5 -148.5t160.5 -139.5q25 -34 25 -70t-23.5 -59.5t-62.5 -23.5q-27 0 -59 13q-102 79 -193.5 171 t-186.5 180q-36 36 -36 72zM654 665q0 29 20 64q86 77 173.5 155t173.5 155q18 16 38 22.5t36 6.5q36 0 61 -25t25 -61q0 -29 -31.5 -70t-78 -82.5t-96 -83.5t-86.5 -74l258 -197q25 -34 25 -70t-23.5 -60t-62.5 -24q-27 0 -59 14q-84 66 -167.5 129t-169.5 129 q-36 36 -36 72z" />
<glyph unicode="&#xac;" horiz-adv-x="1056" d="M102 491q0 34 26 62.5t78 30.5h665q36 -11 53 -28t29 -54v-396q-2 -52 -30.5 -78t-62.5 -26q-32 0 -59 24t-34 74v298h-568q-50 7 -73.5 34t-23.5 59z" />
<glyph unicode="&#xad;" horiz-adv-x="902" d="M70 457q0 32 26 62.5t78 30.5h114.5t188 1t187.5 1h115q43 -11 63 -37t20 -56q0 -32 -22.5 -56.5t-67.5 -35.5q-152 0 -302 -1.5t-302 -1.5q-50 7 -74 34t-24 59z" />
<glyph unicode="&#xae;" horiz-adv-x="1787" d="M134 683q14 163 62 291t159 250q109 118 249.5 173.5t291.5 55.5q170 0 315 -62.5t251 -171t166 -254.5t60 -313q0 -158 -66.5 -296.5t-176.5 -238t-252.5 -157t-294.5 -57.5q-122 0 -236 40.5t-210.5 112t-169 168.5t-110.5 210q-23 63 -28 123t-10 126zM319 688 q11 -122 46.5 -229.5t125.5 -198.5q91 -91 196 -132.5t214 -41.5q115 0 223.5 44t191.5 123.5t133.5 190t50.5 246.5q0 129 -49.5 234.5t-131 182.5t-189 118.5t-223.5 41.5q-142 1 -273 -65q-79 -41 -134.5 -95.5t-93 -120t-58 -141.5t-29.5 -157zM552 563q0 79 68 96v135 q0 48 35 83t83 35q77 0 77 -79v-143q41 14 77 34.5t63 42t44 45t17 46.5q0 32 -43 55.5t-115 23.5q-29 0 -59 -8t-54.5 -18t-44 -18t-30.5 -8q-41 0 -69 29.5t-28 69.5q0 34 26 62.5t66.5 46.5t89 28t94.5 10q70 0 135.5 -19t116.5 -55t81.5 -87t30.5 -115q0 -147 -183 -273 q95 -84 155 -137.5t60 -98.5q0 -41 -28.5 -70t-69.5 -29q-34 0 -65 27l-245 219l-22 -6v-168q0 -48 -35 -84t-83 -36q-77 0 -77 82v187q-68 18 -68 95z" />
<glyph unicode="&#xaf;" horiz-adv-x="1090" d="M70 1369q0 29 26 54t78 28h747q43 -9 63.5 -33t20.5 -49q0 -27 -22.5 -49.5t-68.5 -31.5h-747q-50 7 -73.5 30.5t-23.5 50.5z" />
<glyph unicode="&#xb0;" horiz-adv-x="812" d="M165 1260q0 54 19.5 101t53.5 80.5t80 54t101 20.5q52 0 98 -20.5t81.5 -55.5t55.5 -81.5t20 -98.5q0 -54 -20 -100.5t-54 -80.5t-80.5 -53t-100.5 -19t-100.5 19t-80.5 53t-53.5 80.5t-19.5 100.5zM321 1260q0 -41 28.5 -69t69.5 -28t70 28t29 69t-29.5 70.5t-69.5 29.5 q-41 0 -69.5 -29.5t-28.5 -70.5z" />
<glyph unicode="&#xb1;" horiz-adv-x="1136" d="M113 -41q0 34 26 62.5t78 30.5h724q43 -11 63.5 -37t20.5 -56q0 -32 -22.5 -56.5t-67.5 -36.5h-725q-50 7 -73.5 34.5t-23.5 58.5zM140 690q0 34 26 62.5t78 30.5h249v333q11 45 36 67.5t57 22.5q29 0 55.5 -20.5t37.5 -63.5v-339h290q43 -11 63 -37t20 -56 q0 -32 -22.5 -56.5t-67.5 -36.5h-283v-316q-2 -52 -30.5 -78t-62.5 -26q-32 0 -59 23.5t-34 73.5v323h-255q-50 7 -74 34.5t-24 58.5z" />
<glyph unicode="&#xb2;" horiz-adv-x="760" d="M75 523q9 93 40.5 177.5t115.5 143.5q34 23 81.5 46.5t90.5 52t73.5 63.5t30.5 89q0 14 -6 30t-8 18q-14 23 -35 41t-42 18q-75 0 -130 -30.5t-103 -80.5q-25 -11 -49 -12q-25 0 -42 16t-17 43q0 32 35 67t84.5 63.5t105 45.5t98.5 17q48 0 93 -19.5t78 -53.5t53.5 -81.5 t20.5 -103.5q0 -11 -1.5 -20.5t-3.5 -20.5q-18 -61 -54 -103t-79 -71.5t-89.5 -53t-88.5 -51t-71.5 -68t-40.5 -101.5h303q23 0 34 8t21.5 18t23 19t37.5 9q27 0 45 -18t18 -43t-19 -46.5t-44 -37.5t-57 -26t-54 -10h-380q-61 7 -68 66z" />
<glyph unicode="&#xb3;" horiz-adv-x="672" d="M66 586q0 23 17 38.5t39 15.5q20 0 40.5 -13.5t43.5 -30.5t47.5 -30.5t52.5 -13.5q41 0 72.5 17t53 45.5t32.5 63.5t11 73t-26 63.5t-64.5 40t-78 20t-68.5 5.5q-29 7 -42 25t-13 36q0 20 15 37.5t44 24.5q25 5 55.5 11.5t59 16.5t52 27t35.5 42v38l-7 32q-2 16 -13.5 26 t-29.5 15.5t-36.5 8t-36.5 2.5q-36 0 -74.5 -7t-58.5 -16q-16 -14 -29.5 -21.5t-29.5 -7.5q-25 0 -42 18t-17 54q5 25 26.5 43t49.5 28.5t60 16t56.5 9t38.5 3.5t9 0q54 0 99.5 -12.5t80.5 -38.5t55.5 -65.5t20.5 -96.5q0 -9 -1.5 -29.5t-10.5 -45t-30.5 -52t-61.5 -56.5 q27 -14 52 -35.5t46.5 -48.5t32.5 -60t11 -69q0 -57 -26 -111t-66.5 -97t-92.5 -69t-104 -26q-66 0 -124 33t-110 76q-16 23 -15 47z" />
<glyph unicode="&#xb4;" horiz-adv-x="685" d="M100 1154q0 20 10 43t33 41q81 61 164 122t164 120q29 11 49 11q38 0 57.5 -18t19.5 -54q0 -38 -29 -75q-84 -61 -165.5 -122t-162.5 -120q-34 -20 -66 -20q-38 0 -56 19t-18 53z" />
<glyph unicode="&#xb5;" horiz-adv-x="1355" d="M54 -216q0 8 3 17q143 283 233 582.5t158 609.5q14 32 38.5 45.5t49.5 13.5q32 0 57 -23.5t29 -66.5q2 -20 -3.5 -48.5t-9.5 -46.5l-14 -61q-18 -81 -32.5 -176.5t-14.5 -185.5q0 -45 4.5 -90.5t18 -84t37 -67t60.5 -41.5q66 23 122 88.5t101.5 146.5t80.5 166t58 146 q18 43 37 95t19 100q11 45 36 67.5t57 22.5q29 0 55 -20t38 -63q0 -66 -20.5 -130.5t-45.5 -123.5q-34 -88 -72.5 -178.5t-85.5 -176.5q2 -7 2 -23q-2 -11 -3.5 -20t-1.5 -18q0 -27 11.5 -50t36.5 -47q50 -29 71.5 -48.5t21.5 -58.5q0 -34 -26 -60t-74 -26q-32 0 -61 15 t-55 35t-44.5 45t-29.5 46q-72 -59 -121 -87.5t-107 -28.5q-84 0 -149.5 54.5t-106.5 140.5q-79 -226 -190 -451q-18 -25 -41 -35t-43 -10q-34 0 -59 25t-25 70v15z" />
<glyph unicode="&#xb6;" horiz-adv-x="1219" d="M104 1036q0 54 21.5 102t46.5 93q36 63 98.5 101.5t136 59t153.5 27.5t155 7q93 0 180 -4.5t166 -4.5q43 -11 63.5 -37.5t20.5 -55.5q0 -32 -22.5 -57t-67.5 -36h-105v-1303q-2 -52 -30 -78.5t-62 -26.5q-32 0 -59 24t-34 74v1312q-66 0 -140.5 1.5t-142.5 -14.5 t-120 -60t-72 -133q7 -50 20.5 -82.5t32.5 -54t41.5 -35t45.5 -24.5l95 -21q36 -11 53 -28t28 -53q-2 -154 0.5 -305.5t2.5 -305.5q0 -52 -30.5 -78t-62.5 -26t-59 23.5t-34 73.5v265t-2 267q-143 32 -229 139t-88 254z" />
<glyph unicode="&#xb7;" horiz-adv-x="683" d="M197 681q0 66 46.5 112.5t111.5 46.5q66 0 112.5 -46.5t46.5 -112.5t-47.5 -112t-111.5 -46q-66 0 -112 46.5t-46 111.5z" />
<glyph unicode="&#xb8;" horiz-adv-x="696" d="M115 -434q0 34 21.5 53t51.5 19q14 0 20 -2q16 -5 41 -7t57 -2q152 0 153 122q-32 38 -160 45q-134 5 -134 52q0 25 9 50l43 111q20 50 70 50q75 0 75 -82q0 -23 -11 -56q251 -32 251 -175q0 -79 -25 -131t-84 -81q-95 -45 -197 -46q-181 0 -181 80z" />
<glyph unicode="&#xb9;" horiz-adv-x="608" d="M131 509q0 23 18 43.5t55 20.5h45v586q-20 -18 -48 -18q-27 0 -42.5 18t-15.5 43q0 16 6.5 31.5t22.5 26.5l109 73q20 7 34 7q52 0 63 -55v-712h70q29 -7 44 -26.5t15 -37.5q0 -23 -16 -41t-47 -24h-245q-34 2 -51 22.5t-17 42.5z" />
<glyph unicode="&#xba;" horiz-adv-x="1074" d="M145 419q0 32 26 62t78 30h62.5h107.5t130 -1t131 -1h107.5h61.5q43 -11 63 -37t20 -56q0 -29 -22.5 -54t-67.5 -36h-600q-50 7 -73.5 34t-23.5 59zM152 973q0 45 11 102l7 29q20 63 56.5 120t85 100t110.5 68t135 25q72 0 130 -28.5t98.5 -76t63 -109.5t22.5 -130 q0 -77 -30.5 -154t-83.5 -138t-125.5 -98.5t-156.5 -37.5q-63 0 -121 23.5t-103 66.5t-72 103t-27 135zM337 978q0 -77 41 -112t93 -35q43 0 81.5 20t67.5 54t47.5 77t18.5 91q0 61 -36.5 110.5t-97.5 49.5q-38 0 -71 -15.5t-59 -41.5t-45.5 -59t-30.5 -65q-5 -23 -7 -39.5 t-2 -34.5z" />
<glyph unicode="&#xbb;" horiz-adv-x="1267" d="M84 964q0 36 25 61t61 25q43 0 74 -29q88 -77 174.5 -155t172.5 -155q20 -34 20 -64q0 -36 -36 -72q-86 -66 -170 -129.5t-167 -128.5q-29 -14 -57 -14q-38 0 -63 24t-25 60t25 70l258 197q-36 32 -86 73.5t-95.5 83.5t-78 83t-32.5 70zM586 1043q0 36 25 61t61 25 q18 0 37.5 -5.5t37.5 -23.5q104 -97 202.5 -194.5t200.5 -194.5q20 -34 20 -64q0 -36 -36 -72q-95 -88 -187 -180t-193 -171q-29 -14 -57 -14q-38 0 -63 24t-25 60t25 70q84 66 160.5 139.5t153.5 148.5q-84 81 -160.5 152.5t-171.5 164.5q-29 36 -30 74z" />
<glyph unicode="&#xbd;" horiz-adv-x="2009" d="M29 520q0 7 23 37.5t68 30.5h57v525q-27 -23 -59 -22q-34 0 -54.5 25t-20.5 58q0 20 9 43t29 41l136 102q25 11 43 11q61 0 79 -79v-704h86q36 -11 54.5 -37t18.5 -31q0 -32 -20.5 -56.5t-58.5 -35.5h-304q-45 5 -65.5 33t-20.5 59zM342 0q0 7 2 15t7 12 q206 328 413 650.5t415 650.5q41 45 84 32q25 -7 42 -35t10 -65q-5 -18 -18 -43q-208 -326 -415.5 -648t-415.5 -648q-20 -20 -39.5 -25t-35.5 0q-27 7 -42.5 34t-6.5 70zM1251 111q5 59 16.5 115.5t30.5 108.5t49.5 97t75.5 82q41 32 94.5 61t102 63t81 80.5t32.5 112.5 q0 18 -6.5 37t-8.5 21q-14 32 -37.5 53.5t-48.5 23.5q-79 0 -142.5 -40.5t-118.5 -99.5q-25 -16 -52 -16q-32 0 -50 20.5t-18 52.5q0 27 16 54q34 36 72.5 70t84 61t91.5 43t96 16q57 0 106.5 -24t86 -68t58 -104t21.5 -130q0 -25 -5 -50q-20 -81 -59.5 -132t-88.5 -87 t-101 -65.5t-97 -66t-79 -86t-45 -128.5h337q23 0 33 6.5t14 8.5q5 5 19.5 22t21.5 21q9 5 20.5 7t20.5 2q34 0 53 -22.5t19 -51.5q0 -20 -4.5 -30.5t-8.5 -14.5q-34 -48 -79.5 -77.5t-104.5 -29.5h-421q-70 7 -77 84z" />
<glyph unicode="&#xbf;" horiz-adv-x="1086" d="M179 -84q0 100 53 168t125.5 121t149.5 101.5t127 109.5l2 5v9q-16 32 -37.5 51t-44 29t-42 15t-28.5 5q-45 5 -71 33t-26 59q0 34 26 62.5t78 30.5q18 0 44 -9t42 -14q106 -32 175 -103t69 -175q0 -50 -24 -90q-43 -68 -115.5 -120t-143 -98.5t-121 -89.5t-50.5 -95 q0 -11 6.5 -29.5t20 -37.5t35 -37t53.5 -25q104 5 188 63.5t142 137.5q34 32 77 32q34 0 59 -25t25 -63q0 -20 -11 -50q-38 -52 -87 -102t-106.5 -89.5t-122 -64.5t-132.5 -25q-61 0 -121 25t-107.5 67t-77 98.5t-29.5 119.5zM382 1032q0 52 36.5 88t88.5 36t88 -36t36 -88 t-36 -88.5t-88 -36.5t-88.5 36.5t-36.5 88.5z" />
<glyph unicode="&#xc0;" horiz-adv-x="1321" d="M50 102q75 328 180 641.5t264 612.5q14 43 63 54q25 9 47.5 3.5t38.5 -21.5q2 0 2 -1.5t3 -1.5q118 -113 197 -255.5t144 -289.5q25 -52 46.5 -104t41.5 -104l120 2q43 -14 63.5 -41t19.5 -55t-23.5 -54t-65.5 -35h-48q29 -93 51 -187t33 -191q-2 -43 -22.5 -70.5 t-50 -33t-59 10.5t-49.5 54q-14 106 -39 209t-58 205l-600 -4q-5 0 -10.5 1t-10.5 1q-57 -192 -101 -398q-18 -48 -52 -63.5t-64.5 -6.5t-50 40.5t-10.5 81.5zM335 1835q0 36 24 61t62 25t70 -25q79 -72 161 -141t161 -142q25 -34 25 -70t-24 -59.5t-62 -23.5q-27 0 -59 13 q-79 70 -159.5 140.5t-161.5 142.5q-36 38 -37 79zM387 631l494 5q-29 68 -60 133.5t-63 131.5q-36 66 -72 133.5t-84 128.5q-63 -129 -116 -262.5t-99 -269.5z" />
<glyph unicode="&#xc1;" horiz-adv-x="1321" d="M50 102q75 328 180 641.5t264 612.5q14 43 63 54q25 9 47.5 3.5t38.5 -21.5q2 0 2 -1.5t3 -1.5q118 -113 197 -255.5t144 -289.5q25 -52 46.5 -104t41.5 -104l120 2q43 -14 63.5 -41t19.5 -55t-23.5 -54t-65.5 -35h-48q29 -93 51 -187t33 -191q-2 -43 -22.5 -70.5 t-50 -33t-59 10.5t-49.5 54q-14 106 -39 209t-58 205l-600 -4q-5 0 -10.5 1t-10.5 1q-57 -192 -101 -398q-18 -48 -52 -63.5t-64.5 -6.5t-50 40.5t-10.5 81.5zM286 1618q0 20 10 43t33 41q81 61 164 122t164 120q29 11 49 11q38 0 57.5 -18t19.5 -54q0 -38 -29 -75 q-84 -61 -165.5 -122t-162.5 -120q-34 -20 -66 -20q-38 0 -56 19t-18 53zM387 631l494 5q-29 68 -60 133.5t-63 131.5q-36 66 -72 133.5t-84 128.5q-63 -129 -116 -262.5t-99 -269.5z" />
<glyph unicode="&#xc2;" horiz-adv-x="1321" d="M50 102q75 328 180 641.5t264 612.5q14 43 63 54q25 9 47.5 3.5t38.5 -21.5q2 0 2 -1.5t3 -1.5q118 -113 197 -255.5t144 -289.5q25 -52 46.5 -104t41.5 -104l120 2q43 -14 63.5 -41t19.5 -55t-23.5 -54t-65.5 -35h-48q29 -93 51 -187t33 -191q-2 -43 -22.5 -70.5 t-50 -33t-59 10.5t-49.5 54q-14 106 -39 209t-58 205l-600 -4q-5 0 -10.5 1t-10.5 1q-57 -192 -101 -398q-18 -48 -52 -63.5t-64.5 -6.5t-50 40.5t-10.5 81.5zM220 1591q0 45 40 81q63 52 124.5 103t124.5 103q27 11 48 11q29 0 61 -22q59 -50 116.5 -96.5t116.5 -93.5 q23 -36 23 -68q0 -36 -23 -47.5t-59 -11.5q-29 0 -56 13q-45 36 -90.5 72.5t-90.5 72.5l-190 -158q-29 -20 -62 -20q-38 0 -60.5 14.5t-22.5 46.5zM387 631l494 5q-29 68 -60 133.5t-63 131.5q-36 66 -72 133.5t-84 128.5q-63 -129 -116 -262.5t-99 -269.5z" />
<glyph unicode="&#xc3;" horiz-adv-x="1321" d="M50 102q75 328 180 641.5t264 612.5q14 43 63 54q25 9 47.5 3.5t38.5 -21.5q2 0 2 -1.5t3 -1.5q118 -113 197 -255.5t144 -289.5q25 -52 46.5 -104t41.5 -104l120 2q43 -14 63.5 -41t19.5 -55t-23.5 -54t-65.5 -35h-48q29 -93 51 -187t33 -191q-2 -43 -22.5 -70.5 t-50 -33t-59 10.5t-49.5 54q-14 106 -39 209t-58 205l-600 -4q-5 0 -10.5 1t-10.5 1q-57 -192 -101 -398q-18 -48 -52 -63.5t-64.5 -6.5t-50 40.5t-10.5 81.5zM190 1606q0 43 47 73l163 108q38 25 69 36.5t56 11.5q27 0 66.5 -19.5t78 -43t69 -44t37.5 -20.5q20 0 50.5 19.5 t62.5 41t61.5 40.5t49.5 19q41 0 69 -19.5t28 -57.5q0 -34 -36 -68q-163 -145 -267 -145q-23 0 -63.5 20.5t-84.5 44.5t-81.5 43t-51.5 19q-23 0 -52 -19t-58.5 -42t-52 -42t-29.5 -21h-14q-41 0 -79 11t-38 54zM387 631l494 5q-29 68 -60 133.5t-63 131.5q-36 66 -72 133.5 t-84 128.5q-63 -129 -116 -262.5t-99 -269.5z" />
<glyph unicode="&#xc4;" horiz-adv-x="1321" d="M50 102q75 328 180 641.5t264 612.5q14 43 63 54q25 9 47.5 3.5t38.5 -21.5q2 0 2 -1.5t3 -1.5q118 -113 197 -255.5t144 -289.5q25 -52 46.5 -104t41.5 -104l120 2q43 -14 63.5 -41t19.5 -55t-23.5 -54t-65.5 -35h-48q29 -93 51 -187t33 -191q-2 -43 -22.5 -70.5 t-50 -33t-59 10.5t-49.5 54q-14 106 -39 209t-58 205l-600 -4q-5 0 -10.5 1t-10.5 1q-57 -192 -101 -398q-18 -48 -52 -63.5t-64.5 -6.5t-50 40.5t-10.5 81.5zM169 1682q0 25 18 51t43 45t54.5 31.5t52.5 12.5q50 0 86 -36t36 -88q0 -25 -16 -51t-39.5 -45.5t-54 -33 t-58.5 -13.5q-50 0 -86 37.5t-36 89.5zM387 631l494 5q-29 68 -60 133.5t-63 131.5q-36 66 -72 133.5t-84 128.5q-63 -129 -116 -262.5t-99 -269.5zM649 1698q0 27 17 52t42 44t52 30.5t50 11.5q48 0 82.5 -35t34.5 -85q0 -27 -15.5 -52t-39.5 -45.5t-52 -32t-53 -11.5 q-48 0 -83 35.5t-35 87.5z" />
<glyph unicode="&#xc5;" horiz-adv-x="1321" d="M38 102q70 310 167.5 605.5t240.5 580.5q-32 16 -57 43q-34 34 -53 80t-19 101q0 54 19 100.5t53 80.5t80.5 54t100.5 20q52 0 98.5 -20t81.5 -55t55.5 -81.5t20.5 -98.5q0 -54 -20.5 -100.5t-54.5 -80.5q-16 -16 -34 -30q84 -102 145 -219.5t116 -237.5q25 -52 46 -104 l42 -104l120 2q43 -14 63.5 -41t19 -55t-24 -54t-65.5 -35h-48q29 -93 51 -187t33 -191q-2 -43 -22.5 -70.5t-50 -33t-58.5 10.5t-50 54q-14 106 -38.5 209t-58.5 205l-600 -4q-5 0 -10.5 1t-9.5 1q-57 -192 -102 -398q-18 -48 -52 -63.5t-64.5 -6.5t-50 40.5t-10.5 81.5z M376 631l493 5q-29 68 -60 133.5t-62 131.5q-36 66 -72 133.5t-84 128.5q-63 -129 -116.5 -262.5t-98.5 -269.5zM473 1512q0 -41 27 -70q27 -25 63 -28h16q34 2 61 28q30 29 30 70t-29.5 70t-70.5 29t-69 -29.5t-28 -69.5z" />
<glyph unicode="&#xc6;" horiz-adv-x="1830" d="M102 5q52 382 213.5 699t438.5 586q29 25 57.5 28.5t51 -6t37 -31t14.5 -48.5q9 7 20.5 15t25.5 12q79 25 170.5 37.5t187.5 16t190 2.5t176 -6q43 -14 63 -41t19 -55t-23.5 -54t-65.5 -35q-66 2 -140.5 4t-151.5 1t-153 -7.5t-144 -20.5v-405q122 -5 245.5 3t246.5 22 q50 2 78 -23t32.5 -56.5t-17 -62t-71.5 -41.5q-129 -16 -258 -24t-256 -4v-357q136 -11 271 -12.5t268 41.5q43 2 71.5 -17t36 -47t-4.5 -59t-51 -53q-59 -20 -150.5 -28t-189 -9.5t-189 2t-150.5 10.5q-61 7 -80 51t-19 85l2 258h-527q-63 -181 -91 -394q-16 -41 -45.5 -59 t-57.5 -14.5t-52 27t-28 69.5zM450 561h453v555q-13 18 -18 43q-143 -136 -250.5 -284.5t-184.5 -313.5z" />
<glyph unicode="&#xc7;" horiz-adv-x="1201" d="M95 593q0 95 25 176q34 109 79 190.5t107.5 143.5t143 111t184.5 92q68 29 125.5 45t109.5 16q79 0 142.5 -45.5t119.5 -153.5q7 -20 7 -41q0 -41 -25 -66t-61 -25q-43 0 -79 37q-32 61 -56.5 86t-56.5 25q-25 0 -59 -12.5t-86 -30.5q-86 -34 -165 -83t-139 -118 t-95 -159.5t-35 -205.5q0 -81 24.5 -159.5t71 -140.5t114.5 -99.5t156 -37.5q52 0 97.5 20.5t84 54.5t70 74.5t56.5 81.5q36 29 75 29q36 0 61 -25t25 -63q0 -20 -12 -50q-38 -59 -84.5 -113t-102 -97t-123.5 -69t-147 -26q9 -18 9 -46q0 -23 -11 -56q251 -31 251 -174 q0 -79 -25 -131.5t-83 -81.5q-95 -45 -197 -45q-181 0 -181 79q0 34 21.5 53t50.5 19q14 0 20 -2q16 -5 41 -7t57 -2q152 0 154 122q-32 38 -161 45q-134 5 -134 52q0 25 9 50l43 111q7 16 14 27q-97 20 -176.5 77t-136 139.5t-87 186.5t-30.5 222z" />
<glyph unicode="&#xc8;" horiz-adv-x="1131" d="M138 1208.5q0 27.5 18 53.5t56 39q88 27 180 37.5t184.5 14t185.5 3.5t183 4q50 2 78.5 -22.5t33 -56.5t-17 -62.5t-71.5 -41.5q-136 -7 -288.5 -5t-295.5 -20v-398q118 -5 237 0.5t238 17.5q50 2 78.5 -23t33 -56.5t-17 -62t-71.5 -42.5q-124 -11 -250 -18t-248 -2v-367 q136 -20 282 -10t273 44q43 2 71 -17t36 -47t-4.5 -59t-50.5 -53q-81 -23 -174 -36.5t-188 -17t-188 3.5t-177 27q-36 18 -52 44t-13 51v3v993q-29 9 -45 31.5t-16 50zM314 1819q0 36 24 61t62 25t70 -25q79 -72 161 -141t161 -142q25 -34 25 -70t-24 -59.5t-62 -23.5 q-27 0 -59 13q-79 70 -159.5 140.5t-161.5 142.5q-36 38 -37 79z" />
<glyph unicode="&#xc9;" horiz-adv-x="1120" d="M138 1208.5q0 27.5 18 53.5t56 39q88 27 180 37.5t184.5 14t185.5 3.5t183 4q50 2 78.5 -22.5t33 -56.5t-17 -62.5t-71.5 -41.5q-136 -7 -288.5 -5t-295.5 -20v-398q118 -5 237 0.5t238 17.5q50 2 78.5 -23t33 -56.5t-17 -62t-71.5 -42.5q-124 -11 -250 -18t-248 -2v-367 q136 -20 282 -10t273 44q43 2 71 -17t36 -47t-4.5 -59t-50.5 -53q-81 -23 -174 -36.5t-188 -17t-188 3.5t-177 27q-36 18 -52 44t-13 51v3v993q-29 9 -45 31.5t-16 50zM353 1496q0 20 10 43t33 41q81 61 164 122t164 120q29 11 49 11q38 0 57.5 -18t19.5 -54q0 -38 -29 -75 q-84 -61 -165.5 -122t-162.5 -120q-34 -20 -66 -20q-38 0 -56 19t-18 53z" />
<glyph unicode="&#xca;" horiz-adv-x="1131" d="M138 1208.5q0 27.5 18 53.5t56 39q88 27 180 37.5t184.5 14t185.5 3.5t183 4q50 2 78.5 -22.5t33 -56.5t-17 -62.5t-71.5 -41.5q-136 -7 -288.5 -5t-295.5 -20v-398q118 -5 237 0.5t238 17.5q50 2 78.5 -23t33 -56.5t-17 -62t-71.5 -42.5q-124 -11 -250 -18t-248 -2v-367 q136 -20 282 -10t273 44q43 2 71 -17t36 -47t-4.5 -59t-50.5 -53q-81 -23 -174 -36.5t-188 -17t-188 3.5t-177 27q-36 18 -52 44t-13 51v3v993q-29 9 -45 31.5t-16 50zM229 1560q0 45 40 81q63 52 124.5 103t124.5 103q27 11 48 11q29 0 61 -22q59 -50 116.5 -96.5 t116.5 -93.5q23 -36 23 -68q0 -36 -23 -47.5t-59 -11.5q-29 0 -56 13q-45 36 -90.5 72.5t-90.5 72.5l-190 -158q-29 -20 -62 -20q-38 0 -60.5 14.5t-22.5 46.5z" />
<glyph unicode="&#xcb;" horiz-adv-x="1131" d="M138 1208.5q0 27.5 18 53.5t56 39q88 27 180 37.5t184.5 14t185.5 3.5t183 4q50 2 78.5 -22.5t33 -56.5t-17 -62.5t-71.5 -41.5q-136 -7 -288.5 -5t-295.5 -20v-398q118 -5 237 0.5t238 17.5q50 2 78.5 -23t33 -56.5t-17 -62t-71.5 -42.5q-124 -11 -250 -18t-248 -2v-367 q136 -20 282 -10t273 44q43 2 71 -17t36 -47t-4.5 -59t-50.5 -53q-81 -23 -174 -36.5t-188 -17t-188 3.5t-177 27q-36 18 -52 44t-13 51v3v993q-29 9 -45 31.5t-16 50zM179 1643q0 25 18 51t43 45t54.5 31.5t52.5 12.5q50 0 86 -36t36 -88q0 -25 -16 -51t-39.5 -45.5 t-54 -33t-58.5 -13.5q-50 0 -86 37.5t-36 89.5zM659 1659q0 27 17 52t42 44t52 30.5t50 11.5q48 0 82.5 -35t34.5 -85q0 -27 -15.5 -52t-39.5 -45.5t-52 -32t-53 -11.5q-48 0 -83 35.5t-35 87.5z" />
<glyph unicode="&#xcc;" horiz-adv-x="907" d="M125.5 1275q1.5 33 27.5 60t76 30h466q43 -14 63 -41t19 -55.5t-23.5 -54.5t-65.5 -35h-138v-991q29 0 58.5 1t61.5 3q50 2 78 -22.5t32.5 -56.5t-17 -62.5t-71.5 -41.5q-118 -5 -234 -3.5t-234 1.5q-50 7 -73.5 35t-22.5 61t27 60t76 29h66.5t66.5 -2v989h-142 q-50 7 -74 35t-22.5 61zM176 1815q0 36 24 61t62 25t70 -25q79 -72 161 -141t161 -142q25 -34 25 -70t-24 -59.5t-62 -23.5q-27 0 -59 13q-79 70 -159.5 140.5t-161.5 142.5q-36 38 -37 79z" />
<glyph unicode="&#xcd;" horiz-adv-x="907" d="M125.5 1275q1.5 33 27.5 60t76 30h466q43 -14 63 -41t19 -55.5t-23.5 -54.5t-65.5 -35h-138v-991q29 0 58.5 1t61.5 3q50 2 78 -22.5t32.5 -56.5t-17 -62.5t-71.5 -41.5q-118 -5 -234 -3.5t-234 1.5q-50 7 -73.5 35t-22.5 61t27 60t76 29h66.5t66.5 -2v989h-142 q-50 7 -74 35t-22.5 61zM229 1527q0 20 10 43t33 41q81 61 164 122t164 120q29 11 49 11q38 0 57.5 -18t19.5 -54q0 -38 -29 -75q-84 -61 -165.5 -122t-162.5 -120q-34 -20 -66 -20q-38 0 -56 19t-18 53z" />
<glyph unicode="&#xce;" horiz-adv-x="927" d="M136 1564q0 45 40 81q63 52 124.5 103t124.5 103q27 11 48 11q29 0 61 -22q59 -50 116.5 -96.5t116.5 -93.5q23 -36 23 -68q0 -36 -23 -47.5t-59 -11.5q-29 0 -56 13q-45 36 -90.5 72.5t-90.5 72.5l-190 -158q-29 -20 -62 -20q-38 0 -60.5 14.5t-22.5 46.5zM143.5 1275 q1.5 33 27.5 60t76 30h466q43 -14 63 -41t19 -55.5t-23.5 -54.5t-65.5 -35h-138v-991q29 0 58.5 1t61.5 3q50 2 78 -22.5t32.5 -56.5t-17 -62.5t-71.5 -41.5q-118 -5 -234 -3.5t-234 1.5q-50 7 -73.5 35t-22.5 61t27 60t76 29h66.5t66.5 -2v989h-142q-50 7 -74 35t-22.5 61z " />
<glyph unicode="&#xcf;" horiz-adv-x="907" d="M136 1639q0 25 18 51t43 45t54.5 31.5t52.5 12.5q50 0 86 -36t36 -88q0 -25 -16 -51t-39.5 -45.5t-54 -33t-58.5 -13.5q-50 0 -86 37.5t-36 89.5zM161.5 1275q1.5 33 27.5 60t76 30h466q43 -14 63 -41t19 -55.5t-23.5 -54.5t-65.5 -35h-138v-991q29 0 58.5 1t61.5 3 q50 2 78 -22.5t32.5 -56.5t-17 -62.5t-71.5 -41.5q-118 -5 -234 -3.5t-234 1.5q-50 7 -73.5 35t-22.5 61t27 60t76 29h66.5t66.5 -2v989h-142q-50 7 -74 35t-22.5 61zM616 1655q0 27 17 52t42 44t52 30.5t50 11.5q48 0 82.5 -35t34.5 -85q0 -27 -15.5 -52t-39.5 -45.5 t-52 -32t-53 -11.5q-48 0 -83 35.5t-35 87.5z" />
<glyph unicode="&#xd0;" horiz-adv-x="1337" d="M-32 654q0 29 26 54t78 27h611q43 -9 63.5 -32.5t20.5 -48.5q0 -27 -22.5 -49.5t-67.5 -31.5h-611q-50 7 -74 30.5t-24 50.5zM93 1154q0 50 57.5 86t137 60t166.5 35t143 11q165 0 294.5 -54t217.5 -145.5t134.5 -214t46.5 -255.5q0 -136 -50 -266t-152 -228 q-70 -68 -157 -107.5t-182 -63t-192 -35t-190 -20.5q-34 5 -57 19.5t-34 34.5l-7 14q-5 11 -9 23.5t-4 23.5v1016q-20 -7 -33 -12.5t-35 -5.5q-43 0 -69 25t-26 59zM441 149q66 7 139.5 16t143.5 27t131.5 47.5t101.5 75.5q72 79 109.5 178.5t37.5 203.5q0 91 -32.5 174.5 t-97 148t-160 103t-219.5 38.5q-38 0 -76.5 -4.5t-77.5 -11.5v-996z" />
<glyph unicode="&#xd1;" horiz-adv-x="1357" d="M102 1297q9 41 34 63.5t56 22.5q32 0 68 -25q104 -124 203.5 -243t196 -239t187 -245.5t176.5 -261.5q9 249 12.5 477.5t3.5 479.5q11 45 36 68t56 23q29 0 55.5 -20.5t37.5 -63.5q0 -324 -4.5 -627t-22.5 -627l2 -2h-2q-2 -11 -2 -19v-17q-14 -36 -37.5 -54.5 t-50.5 -18.5q-41 0 -77 37q-5 9 -9.5 15.5t-8.5 13.5h-3v4q-81 138 -167 264t-176.5 247t-184.5 239.5t-194 243.5v-232v-226.5t1.5 -239t1.5 -268.5q-2 -52 -30.5 -78t-62.5 -26q-32 0 -59 23.5t-34 73.5q0 306 -1 619t-1 619zM197 1606q0 43 47 73l163 108q38 25 69 36.5 t56 11.5q27 0 66.5 -19.5t78 -43t69 -44t37.5 -20.5q20 0 50.5 19.5t62.5 41t61.5 40.5t49.5 19q41 0 69 -19.5t28 -57.5q0 -34 -36 -68q-163 -145 -267 -145q-23 0 -63.5 20.5t-84.5 44.5t-81.5 43t-51.5 19q-23 0 -52 -19t-58.5 -42t-52 -42t-29.5 -21h-14q-41 0 -79 11 t-38 54z" />
<glyph unicode="&#xd2;" horiz-adv-x="1486" d="M102 593q0 34 2 66.5t7 64.5q11 72 39.5 156t71.5 164.5t98.5 148t118.5 108.5q79 52 169.5 78t183.5 26q154 0 289.5 -72.5t215.5 -221.5q38 -72 54 -152.5t16 -161.5q0 -52 -4.5 -105.5t-13.5 -105.5q-20 -79 -57.5 -167.5t-88.5 -167.5t-118 -144.5t-146 -99.5 q-36 -14 -63 -24t-54.5 -17t-58 -12.5t-68.5 -7.5q-5 0 -11.5 -1.5t-13.5 -1.5q-59 0 -120 19.5t-116 37.5q-93 34 -156 97.5t-102.5 143.5t-56.5 170.5t-17 181.5zM283 584q0 -91 23.5 -173.5t74.5 -144.5t128 -100.5t181 -38.5q43 0 87 11t81 32q66 36 116.5 88t89 113 t65.5 130t45 137l-6 -29q7 45 12.5 91.5t5.5 93.5q0 59 -11.5 120t-40.5 113q-52 97 -151.5 149.5t-208.5 52.5q-129 0 -231 -75q-63 -48 -112 -115.5t-81.5 -144.5t-49.5 -157.5t-17 -152.5zM452 1885q0 36 24 61t62 25t70 -25q79 -72 161 -141t161 -142q25 -34 25 -70 t-24 -59.5t-62 -23.5q-27 0 -59 13q-79 70 -159.5 140.5t-161.5 142.5q-36 38 -37 79z" />
<glyph unicode="&#xd3;" horiz-adv-x="1486" d="M102 593q0 34 2 66.5t7 64.5q11 72 39.5 156t71.5 164.5t98.5 148t118.5 108.5q79 52 169.5 78t183.5 26q154 0 289.5 -72.5t215.5 -221.5q38 -72 54 -152.5t16 -161.5q0 -52 -4.5 -105.5t-13.5 -105.5q-20 -79 -57.5 -167.5t-88.5 -167.5t-118 -144.5t-146 -99.5 q-36 -14 -63 -24t-54.5 -17t-58 -12.5t-68.5 -7.5q-5 0 -11.5 -1.5t-13.5 -1.5q-59 0 -120 19.5t-116 37.5q-93 34 -156 97.5t-102.5 143.5t-56.5 170.5t-17 181.5zM283 584q0 -91 23.5 -173.5t74.5 -144.5t128 -100.5t181 -38.5q43 0 87 11t81 32q66 36 116.5 88t89 113 t65.5 130t45 137l-6 -29q7 45 12.5 91.5t5.5 93.5q0 59 -11.5 120t-40.5 113q-52 97 -151.5 149.5t-208.5 52.5q-129 0 -231 -75q-63 -48 -112 -115.5t-81.5 -144.5t-49.5 -157.5t-17 -152.5zM516 1584q0 20 10 43t33 41q81 61 164 122t164 120q29 11 49 11q38 0 57.5 -18 t19.5 -54q0 -38 -29 -75q-84 -61 -165.5 -122t-162.5 -120q-34 -20 -66 -20q-38 0 -56 19t-18 53z" />
<glyph unicode="&#xd4;" horiz-adv-x="1486" d="M102 593q0 34 2 66.5t7 64.5q11 72 39.5 156t71.5 164.5t98.5 148t118.5 108.5q79 52 169.5 78t183.5 26q154 0 289.5 -72.5t215.5 -221.5q38 -72 54 -152.5t16 -161.5q0 -52 -4.5 -105.5t-13.5 -105.5q-20 -79 -57.5 -167.5t-88.5 -167.5t-118 -144.5t-146 -99.5 q-36 -14 -63 -24t-54.5 -17t-58 -12.5t-68.5 -7.5q-5 0 -11.5 -1.5t-13.5 -1.5q-59 0 -120 19.5t-116 37.5q-93 34 -156 97.5t-102.5 143.5t-56.5 170.5t-17 181.5zM283 584q0 -91 23.5 -173.5t74.5 -144.5t128 -100.5t181 -38.5q43 0 87 11t81 32q66 36 116.5 88t89 113 t65.5 130t45 137l-6 -29q7 45 12.5 91.5t5.5 93.5q0 59 -11.5 120t-40.5 113q-52 97 -151.5 149.5t-208.5 52.5q-129 0 -231 -75q-63 -48 -112 -115.5t-81.5 -144.5t-49.5 -157.5t-17 -152.5zM390 1584q0 45 40 81q63 52 124.5 103t124.5 103q27 11 48 11q29 0 61 -22 q59 -50 116.5 -96.5t116.5 -93.5q23 -36 23 -68q0 -36 -23 -47.5t-59 -11.5q-29 0 -56 13q-45 36 -90.5 72.5t-90.5 72.5l-190 -158q-29 -20 -62 -20q-38 0 -60.5 14.5t-22.5 46.5z" />
<glyph unicode="&#xd5;" horiz-adv-x="1486" d="M102 593q0 34 2 66.5t7 64.5q11 72 39.5 156t71.5 164.5t98.5 148t118.5 108.5q79 52 169.5 78t183.5 26q154 0 289.5 -72.5t215.5 -221.5q38 -72 54 -152.5t16 -161.5q0 -52 -4.5 -105.5t-13.5 -105.5q-20 -79 -57.5 -167.5t-88.5 -167.5t-118 -144.5t-146 -99.5 q-36 -14 -63 -24t-54.5 -17t-58 -12.5t-68.5 -7.5q-5 0 -11.5 -1.5t-13.5 -1.5q-59 0 -120 19.5t-116 37.5q-93 34 -156 97.5t-102.5 143.5t-56.5 170.5t-17 181.5zM283 584q0 -91 23.5 -173.5t74.5 -144.5t128 -100.5t181 -38.5q43 0 87 11t81 32q66 36 116.5 88t89 113 t65.5 130t45 137l-6 -29q7 45 12.5 91.5t5.5 93.5q0 59 -11.5 120t-40.5 113q-52 97 -151.5 149.5t-208.5 52.5q-129 0 -231 -75q-63 -48 -112 -115.5t-81.5 -144.5t-49.5 -157.5t-17 -152.5zM331 1615q0 43 47 73l163 108q38 25 69 36.5t56 11.5q27 0 66.5 -19.5t78 -43 t69 -44t37.5 -20.5q20 0 50.5 19.5t62.5 41t61.5 40.5t49.5 19q41 0 69 -19.5t28 -57.5q0 -34 -36 -68q-163 -145 -267 -145q-23 0 -63.5 20.5t-84.5 44.5t-81.5 43t-51.5 19q-23 0 -52 -19t-58.5 -42t-52 -42t-29.5 -21h-14q-41 0 -79 11t-38 54z" />
<glyph unicode="&#xd6;" horiz-adv-x="1486" d="M102 593q0 34 2 66.5t7 64.5q11 72 39.5 156t71.5 164.5t98.5 148t118.5 108.5q79 52 169.5 78t183.5 26q154 0 289.5 -72.5t215.5 -221.5q38 -72 54 -152.5t16 -161.5q0 -52 -4.5 -105.5t-13.5 -105.5q-20 -79 -57.5 -167.5t-88.5 -167.5t-118 -144.5t-146 -99.5 q-36 -14 -63 -24t-54.5 -17t-58 -12.5t-68.5 -7.5q-5 0 -11.5 -1.5t-13.5 -1.5q-59 0 -120 19.5t-116 37.5q-93 34 -156 97.5t-102.5 143.5t-56.5 170.5t-17 181.5zM283 584q0 -91 23.5 -173.5t74.5 -144.5t128 -100.5t181 -38.5q43 0 87 11t81 32q66 36 116.5 88t89 113 t65.5 130t45 137l-6 -29q7 45 12.5 91.5t5.5 93.5q0 59 -11.5 120t-40.5 113q-52 97 -151.5 149.5t-208.5 52.5q-129 0 -231 -75q-63 -48 -112 -115.5t-81.5 -144.5t-49.5 -157.5t-17 -152.5zM335 1686q0 25 18 51t43 45t54.5 31.5t52.5 12.5q50 0 86 -36t36 -88 q0 -25 -16 -51t-39.5 -45.5t-54 -33t-58.5 -13.5q-50 0 -86 37.5t-36 89.5zM815 1702q0 27 17 52t42 44t52 30.5t50 11.5q48 0 82.5 -35t34.5 -85q0 -27 -15.5 -52t-39.5 -45.5t-52 -32t-53 -11.5q-48 0 -83 35.5t-35 87.5z" />
<glyph unicode="&#xd8;" horiz-adv-x="1486" d="M102 593q0 34 2 66.5t7 64.5q11 72 39.5 156t71.5 164.5t98.5 148t118.5 108.5q79 52 169.5 78t183.5 26q81 0 158 -20q14 29 26.5 57.5t26.5 57.5q36 59 88 59q34 0 61 -25t27 -65q0 -20 -11 -50q-11 -29 -24 -56.5t-24 -54.5q52 -36 97.5 -85t79.5 -112 q38 -72 54 -152.5t16 -161.5q0 -52 -4.5 -105.5t-13.5 -105.5q-20 -79 -57.5 -167.5t-88.5 -167.5t-118 -144.5t-146 -99.5q-36 -14 -63 -24t-54.5 -17t-58 -12.5t-68.5 -7.5q-5 0 -11.5 -1.5t-13.5 -1.5q-32 0 -66 6t-68 17q-14 -32 -26 -61t-26 -61q-18 -25 -40.5 -35 t-42.5 -10q-34 0 -59 24.5t-25 70.5v14.5t2 16.5q11 27 22.5 54.5t22.5 52.5q-72 41 -123 103t-81.5 136.5t-44 157t-13.5 164.5zM283 584q0 -115 38.5 -213.5t117.5 -164.5q111 253 219.5 504.5t219.5 504.5q-50 14 -104 14q-129 0 -231 -75q-63 -48 -112 -115.5 t-81.5 -144.5t-49.5 -157.5t-17 -152.5zM611 134q38 -7 79 -7q43 0 87.5 11.5t80.5 31.5q63 34 113 83.5t87 108.5t65.5 124.5t46.5 133.5l-2 -7q7 45 12.5 90.5t5.5 90.5q0 59 -11.5 120t-40.5 113q-36 63 -89 107q-109 -251 -217 -500t-217 -500zM1168 609v4v-4z" />
<glyph unicode="&#xd9;" horiz-adv-x="1346" d="M172 1014q2 136 2 256q11 45 36 67.5t57 22.5q29 0 55 -20.5t38 -63.5q0 -75 -2.5 -171t-3.5 -199t2.5 -206t13.5 -193.5t31.5 -160.5t57.5 -106q48 -50 108 -67t116 -17q68 0 134 29.5t118 95.5q27 34 44 105t29.5 161.5t19 193.5t11 202.5t6 188t3.5 149.5 q11 45 36 67.5t57 22.5q29 0 55 -20t37 -63q-2 -143 -7.5 -300t-20.5 -305.5t-41 -278.5t-71 -221q-25 -54 -71.5 -93.5t-104 -65.5t-121 -38.5t-122.5 -12.5q-70 0 -136.5 16t-124.5 48.5t-102 81t-67 114.5q-38 109 -52.5 239t-18 268t-1.5 274zM405 1735q0 36 24 61 t62 25t70 -25q79 -72 161 -141t161 -142q25 -34 25 -70t-24 -59.5t-62 -23.5q-27 0 -59 13q-79 70 -159.5 140.5t-161.5 142.5q-36 38 -37 79z" />
<glyph unicode="&#xda;" horiz-adv-x="1346" d="M172 1014q2 136 2 256q11 45 36 67.5t57 22.5q29 0 55 -20.5t38 -63.5q0 -75 -2.5 -171t-3.5 -199t2.5 -206t13.5 -193.5t31.5 -160.5t57.5 -106q48 -50 108 -67t116 -17q68 0 134 29.5t118 95.5q27 34 44 105t29.5 161.5t19 193.5t11 202.5t6 188t3.5 149.5 q11 45 36 67.5t57 22.5q29 0 55 -20t37 -63q-2 -143 -7.5 -300t-20.5 -305.5t-41 -278.5t-71 -221q-25 -54 -71.5 -93.5t-104 -65.5t-121 -38.5t-122.5 -12.5q-70 0 -136.5 16t-124.5 48.5t-102 81t-67 114.5q-38 109 -52.5 239t-18 268t-1.5 274zM514 1471q0 20 10 43 t33 41q81 61 164 122t164 120q29 11 49 11q38 0 57.5 -18t19.5 -54q0 -38 -29 -75q-84 -61 -165.5 -122t-162.5 -120q-34 -20 -66 -20q-38 0 -56 19t-18 53z" />
<glyph unicode="&#xdb;" horiz-adv-x="1346" d="M172 1014q2 136 2 256q11 45 36 67.5t57 22.5q29 0 55 -20.5t38 -63.5q0 -75 -2.5 -171t-3.5 -199t2.5 -206t13.5 -193.5t31.5 -160.5t57.5 -106q48 -50 108 -67t116 -17q68 0 134 29.5t118 95.5q27 34 44 105t29.5 161.5t19 193.5t11 202.5t6 188t3.5 149.5 q11 45 36 67.5t57 22.5q29 0 55 -20t37 -63q-2 -143 -7.5 -300t-20.5 -305.5t-41 -278.5t-71 -221q-25 -54 -71.5 -93.5t-104 -65.5t-121 -38.5t-122.5 -12.5q-70 0 -136.5 16t-124.5 48.5t-102 81t-67 114.5q-38 109 -52.5 239t-18 268t-1.5 274zM381 1532q0 45 40 81 q63 52 124.5 103t124.5 103q27 11 48 11q29 0 61 -22q59 -50 116.5 -96.5t116.5 -93.5q23 -36 23 -68q0 -36 -23 -47.5t-59 -11.5q-29 0 -56 13q-45 36 -90.5 72.5t-90.5 72.5l-190 -158q-29 -20 -62 -20q-38 0 -60.5 14.5t-22.5 46.5z" />
<glyph unicode="&#xdc;" horiz-adv-x="1346" d="M172 1014q2 136 2 256q11 45 36 67.5t57 22.5q29 0 55 -20.5t38 -63.5q0 -75 -2.5 -171t-3.5 -199t2.5 -206t13.5 -193.5t31.5 -160.5t57.5 -106q48 -50 108 -67t116 -17q68 0 134 29.5t118 95.5q27 34 44 105t29.5 161.5t19 193.5t11 202.5t6 188t3.5 149.5 q11 45 36 67.5t57 22.5q29 0 55 -20t37 -63q-2 -143 -7.5 -300t-20.5 -305.5t-41 -278.5t-71 -221q-25 -54 -71.5 -93.5t-104 -65.5t-121 -38.5t-122.5 -12.5q-70 0 -136.5 16t-124.5 48.5t-102 81t-67 114.5q-38 109 -52.5 239t-18 268t-1.5 274zM348 1614q0 25 18 51 t43 45t54.5 31.5t52.5 12.5q50 0 86 -36t36 -88q0 -25 -16 -51t-39.5 -45.5t-54 -33t-58.5 -13.5q-50 0 -86 37.5t-36 89.5zM828 1630q0 27 17 52t42 44t52 30.5t50 11.5q48 0 82.5 -35t34.5 -85q0 -27 -15.5 -52t-39.5 -45.5t-52 -32t-53 -11.5q-48 0 -83 35.5t-35 87.5z " />
<glyph unicode="&#xdd;" horiz-adv-x="1201" d="M29 1285q0 48 26 74t60 26q52 0 89 -52q50 -161 142.5 -291t207.5 -245q109 129 219 259t189 279q18 32 41.5 45.5t46.5 13.5q34 0 61 -25t27 -66q0 -20 -11 -49q-93 -170 -219.5 -320.5t-248.5 -299.5l-10 -9q0 -136 0.5 -270.5t2.5 -270.5q-2 -52 -30.5 -78t-62.5 -26 q-32 0 -59 23.5t-34 73.5q0 138 -1 275t-1 277q-140 136 -256.5 291t-175.5 345q0 5 -1.5 10.5t-1.5 9.5zM313 1541q0 20 10 43t33 41q81 61 164 122t164 120q29 11 49 11q38 0 57.5 -18t19.5 -54q0 -38 -29 -75q-84 -61 -165.5 -122t-162.5 -120q-34 -20 -66 -20 q-38 0 -56 19t-18 53z" />
<glyph unicode="&#xde;" horiz-adv-x="889" d="M109 1283q9 41 32.5 62.5t53 22.5t55.5 -18t40 -60v-132.5t2 -132.5q57 34 115.5 64.5t124.5 41.5q61 9 117.5 -5.5t98.5 -48.5t63.5 -85t12.5 -116q-14 -93 -48 -184.5t-82.5 -176.5t-111 -161t-129.5 -139q-45 -25 -82.5 -17t-55.5 40q7 -197 6 -396q-2 -50 -28 -75 t-59 -27.5t-60 21.5t-34 74q0 364 -15.5 724t-15.5 724zM296 821l16 -500l12 23q50 45 107.5 115.5t106 151.5t79 165t26.5 154l-5 7q-34 23 -77 16t-88 -27.5t-86 -47.5t-70 -43z" />
<glyph unicode="&#xdf;" horiz-adv-x="1278" d="M53 -21.5q-15 32.5 8 75.5q2 7 40.5 49t38.5 287.5v349.5v129v94t12 92q18 70 59.5 136.5t101.5 118.5t130.5 84t142.5 32q52 0 108.5 -23t104 -63.5t79.5 -97t32 -124.5q0 -54 -20.5 -105t-54.5 -94q-32 -38 -71.5 -74.5t-50.5 -88.5q5 -34 25 -58t47 -43t58 -34t55 -28 q52 -29 103 -65.5t90.5 -80.5t63.5 -97.5t24 -114.5q0 -70 -31.5 -122t-81.5 -87t-106.5 -52t-83.5 -21.5t-108.5 2t-165.5 54.5q-27 20 -39 43q-16 36 -4.5 69t45.5 49q23 11 52.5 5.5t60 -16t63 -16t71 -2t80.5 19.5t60 59q0 59 -34 99.5t-86 73t-112 64.5t-112 70.5 t-86 90.5t-34 127q0 63 29.5 123t74.5 105q29 32 61 67t32 76q0 29 -14.5 51.5t-37.5 38.5t-47.5 24t-45.5 8q-45 0 -89 -21.5t-80.5 -58t-58 -80.5t-18.5 -211q2 -217 -5 -399q-2 -77 -6.5 -153.5t-11.5 -141t-15 -111t-19 -64.5q-50 -77 -101 -79.5t-78 11.5 q-29 16 -44 48.5z" />
<glyph unicode="&#xe0;" horiz-adv-x="1097" d="M119 279.5q-10 73.5 1 150.5t38 147q11 32 29.5 61.5t36.5 60.5q25 45 56.5 85t72.5 69q29 20 57.5 40.5t57.5 38.5q20 14 62.5 28.5t91 25t97 10.5t82.5 -14q32 5 62.5 -15.5t46.5 -65.5q0 -154 -2.5 -310.5t20.5 -309.5q2 -20 17 -48.5t31.5 -56t30.5 -50t14 -29.5 q0 -2 -3 -2q14 -32 7 -59t-26 -44t-49.5 -21.5t-66.5 13.5q-20 20 -38.5 44t-32.5 49q-45 -38 -97 -71t-104 -35q-91 -5 -179 -2.5t-167 58.5q-66 48 -101 113.5t-45 139zM147 1559q0 36 24 61t62 25t70 -25q79 -72 161 -141t161 -142q25 -34 25 -70t-24 -59.5t-62 -23.5 q-27 0 -59 13q-79 70 -159.5 140.5t-161.5 142.5q-36 38 -37 79zM301 303q5 -18 11.5 -36t11.5 -36q11 -11 23.5 -25t25.5 -25q20 -9 40.5 -16t41.5 -13q38 0 74.5 -2.5t72.5 8.5q34 23 66.5 45.5t64.5 49.5q5 2 7 4.5t7 5.5q-29 136 -28 281.5t3 267.5q-20 0 -45 -4.5 t-49 -12t-43 -14.5t-28 -12q-68 -32 -115.5 -82.5t-78 -113t-46.5 -131.5t-16 -139z" />
<glyph unicode="&#xe1;" horiz-adv-x="1097" d="M121 279.5q-10 73.5 1 150.5t38 147q11 32 29.5 61.5t36.5 60.5q25 45 56.5 85t72.5 69q29 20 57.5 40.5t57.5 38.5q20 14 62.5 28.5t91 25t97 10.5t82.5 -14q32 5 62.5 -15.5t46.5 -65.5q0 -154 -2.5 -310.5t20.5 -309.5q2 -20 17 -48.5t31.5 -56t30.5 -50t14 -29.5 q0 -2 -3 -2q14 -32 7 -59t-26 -44t-49.5 -21.5t-66.5 13.5q-20 20 -38.5 44t-32.5 49q-45 -38 -97 -71t-104 -35q-91 -5 -179 -2.5t-167 58.5q-66 48 -101 113.5t-45 139zM270 1251q0 20 10 43t33 41q81 61 164 122t164 120q29 11 49 11q38 0 57.5 -18t19.5 -54 q0 -38 -29 -75q-84 -61 -165.5 -122t-162.5 -120q-34 -20 -66 -20q-38 0 -56 19t-18 53zM303 303q5 -18 11.5 -36t11.5 -36q11 -11 23.5 -25t25.5 -25q20 -9 40.5 -16t41.5 -13q38 0 74.5 -2.5t72.5 8.5q34 23 66.5 45.5t64.5 49.5q5 2 7 4.5t7 5.5q-29 136 -28 281.5 t3 267.5q-20 0 -45 -4.5t-49 -12t-43 -14.5t-28 -12q-68 -32 -115.5 -82.5t-78 -113t-46.5 -131.5t-16 -139z" />
<glyph unicode="&#xe2;" horiz-adv-x="1097" d="M119 279.5q-10 73.5 1 150.5t38 147q11 32 29.5 61.5t36.5 60.5q25 45 56.5 85t72.5 69q29 20 57.5 40.5t57.5 38.5q20 14 62.5 28.5t91 25t97 10.5t82.5 -14q32 5 62.5 -15.5t46.5 -65.5q0 -154 -2.5 -310.5t20.5 -309.5q2 -20 17 -48.5t31.5 -56t30.5 -50t14 -29.5 q0 -2 -3 -2q14 -32 7 -59t-26 -44t-49.5 -21.5t-66.5 13.5q-20 20 -38.5 44t-32.5 49q-45 -38 -97 -71t-104 -35q-91 -5 -179 -2.5t-167 58.5q-66 48 -101 113.5t-45 139zM222 1308q0 45 40 81q63 52 124.5 103t124.5 103q27 11 48 11q29 0 61 -22q59 -50 116.5 -96.5 t116.5 -93.5q23 -36 23 -68q0 -36 -23 -47.5t-59 -11.5q-29 0 -56 13q-45 36 -90.5 72.5t-90.5 72.5l-190 -158q-29 -20 -62 -20q-38 0 -60.5 14.5t-22.5 46.5zM301 303q5 -18 11.5 -36t11.5 -36q11 -11 23.5 -25t25.5 -25q20 -9 40.5 -16t41.5 -13q38 0 74.5 -2.5t72.5 8.5 q34 23 66.5 45.5t64.5 49.5q5 2 7 4.5t7 5.5q-29 136 -28 281.5t3 267.5q-20 0 -45 -4.5t-49 -12t-43 -14.5t-28 -12q-68 -32 -115.5 -82.5t-78 -113t-46.5 -131.5t-16 -139z" />
<glyph unicode="&#xe3;" horiz-adv-x="1097" d="M84 1330q0 43 47 73l163 108q38 25 69 36.5t56 11.5q27 0 66.5 -19.5t78 -43t69 -44t37.5 -20.5q20 0 50.5 19.5t62.5 41t61.5 40.5t49.5 19q41 0 69 -19.5t28 -57.5q0 -34 -36 -68q-163 -145 -267 -145q-23 0 -63.5 20.5t-84.5 44.5t-81.5 43t-51.5 19q-23 0 -52 -19 t-58.5 -42t-52 -42t-29.5 -21h-14q-41 0 -79 11t-38 54zM119 279.5q-10 73.5 1 150.5t38 147q11 32 29.5 61.5t36.5 60.5q25 45 56.5 85t72.5 69q29 20 57.5 40.5t57.5 38.5q20 14 62.5 28.5t91 25t97 10.5t82.5 -14q32 5 62.5 -15.5t46.5 -65.5q0 -154 -2.5 -310.5 t20.5 -309.5q2 -20 17 -48.5t31.5 -56t30.5 -50t14 -29.5q0 -2 -3 -2q14 -32 7 -59t-26 -44t-49.5 -21.5t-66.5 13.5q-20 20 -38.5 44t-32.5 49q-45 -38 -97 -71t-104 -35q-91 -5 -179 -2.5t-167 58.5q-66 48 -101 113.5t-45 139zM301 303q5 -18 11.5 -36t11.5 -36 q11 -11 23.5 -25t25.5 -25q20 -9 40.5 -16t41.5 -13q38 0 74.5 -2.5t72.5 8.5q34 23 66.5 45.5t64.5 49.5q5 2 7 4.5t7 5.5q-29 136 -28 281.5t3 267.5q-20 0 -45 -4.5t-49 -12t-43 -14.5t-28 -12q-68 -32 -115.5 -82.5t-78 -113t-46.5 -131.5t-16 -139z" />
<glyph unicode="&#xe4;" horiz-adv-x="1097" d="M119 279.5q-10 73.5 1 150.5t38 147q11 32 29.5 61.5t36.5 60.5q25 45 56.5 85t72.5 69q29 20 57.5 40.5t57.5 38.5q20 14 62.5 28.5t91 25t97 10.5t82.5 -14q32 5 62.5 -15.5t46.5 -65.5q0 -154 -2.5 -310.5t20.5 -309.5q2 -20 17 -48.5t31.5 -56t30.5 -50t14 -29.5 q0 -2 -3 -2q14 -32 7 -59t-26 -44t-49.5 -21.5t-66.5 13.5q-20 20 -38.5 44t-32.5 49q-45 -38 -97 -71t-104 -35q-91 -5 -179 -2.5t-167 58.5q-66 48 -101 113.5t-45 139zM169 1390q0 25 18 51t43 45t54.5 31.5t52.5 12.5q50 0 86 -36t36 -88q0 -25 -16 -51t-39.5 -45.5 t-54 -33t-58.5 -13.5q-50 0 -86 37.5t-36 89.5zM301 303q5 -18 11.5 -36t11.5 -36q11 -11 23.5 -25t25.5 -25q20 -9 40.5 -16t41.5 -13q38 0 74.5 -2.5t72.5 8.5q34 23 66.5 45.5t64.5 49.5q5 2 7 4.5t7 5.5q-29 136 -28 281.5t3 267.5q-20 0 -45 -4.5t-49 -12t-43 -14.5 t-28 -12q-68 -32 -115.5 -82.5t-78 -113t-46.5 -131.5t-16 -139zM649 1406q0 27 17 52t42 44t52 30.5t50 11.5q48 0 82.5 -35t34.5 -85q0 -27 -15.5 -52t-39.5 -45.5t-52 -32t-53 -11.5q-48 0 -83 35.5t-35 87.5z" />
<glyph unicode="&#xe5;" horiz-adv-x="1097" d="M121 279.5q-10 73.5 1 150.5t38 147q11 32 29.5 61.5t36.5 60.5q25 45 56.5 85t72.5 69q29 20 57.5 40.5t57.5 38.5q20 14 62.5 28.5t91 25t97 10.5t82.5 -14q32 5 62.5 -15.5t46.5 -65.5q0 -154 -2.5 -310.5t20.5 -309.5q2 -20 17 -48.5t31.5 -56t30.5 -50t14 -29.5 q0 -2 -3 -2q14 -32 7 -59t-26 -44t-49.5 -21.5t-66.5 13.5q-20 20 -38.5 44t-32.5 49q-45 -38 -97 -71t-104 -35q-91 -5 -179 -2.5t-167 58.5q-66 48 -101 113.5t-45 139zM251 1378q0 54 19.5 101t53.5 80.5t80 54t101 20.5q52 0 98.5 -20.5t81.5 -55.5t55 -81.5t20 -98.5 q0 -54 -20 -100.5t-54 -80.5t-80.5 -53t-100.5 -19t-100.5 19t-80.5 53t-53.5 80.5t-19.5 100.5zM303 303q5 -18 11.5 -36t11.5 -36q11 -11 23.5 -25t25.5 -25q20 -9 40.5 -16t41.5 -13q38 0 74.5 -2.5t72.5 8.5q34 23 66.5 45.5t64.5 49.5q5 2 7 4.5t7 5.5 q-29 136 -28 281.5t3 267.5q-20 0 -45 -4.5t-49 -12t-43 -14.5t-28 -12q-68 -32 -115.5 -82.5t-78 -113t-46.5 -131.5t-16 -139zM407 1378q0 -41 28.5 -69t69.5 -28t70 28t29 69t-29.5 70.5t-69.5 29.5q-41 0 -69.5 -29.5t-28.5 -70.5z" />
<glyph unicode="&#xe6;" horiz-adv-x="1679" d="M143 391q0 152 60 294.5t161 242.5q27 27 69 56.5t91 54.5t101 40.5t99 15.5q66 0 113 -47l-9 4q18 -32 16 -61t-16 -54l-2 -122q41 68 95 108.5t109.5 64.5t111 31.5t100.5 7.5q57 0 111 -15q84 -25 139.5 -104.5t55.5 -174.5q0 -29 -11.5 -66.5t-22.5 -62.5 q-34 -50 -96 -89.5t-136 -69t-150.5 -51t-138.5 -36.5l-52 -14h12l-79 -2q45 -88 120.5 -145t175.5 -57q48 0 81 9q52 14 87.5 30t66.5 34h-4q11 5 21 12.5t24 14.5l-9 -2q45 11 72.5 -13t27.5 -62q0 -52 -37 -86l9 4q-91 -52 -175.5 -85.5t-168.5 -33.5q-91 0 -190 45 q-25 11 -60 37t-75 65q-59 -45 -111 -84t-91 -52q-59 -20 -118 -21q-54 0 -106 16t-98.5 45.5t-81.5 73.5t-55 99q-36 104 -36 205zM312.5 400.5q2.5 -70.5 33.5 -140.5q9 -20 37.5 -57.5t82.5 -46.5q23 -5 37.5 -6t26 0.5t24 3.5t30.5 7q34 16 66 41.5t61 50.5 q-25 59 -36.5 152t-15 188t1 178.5t13.5 129.5q-70 -27 -110.5 -52t-83.5 -68q-54 -54 -93 -115.5t-58 -128t-16.5 -137zM860 500q140 36 236.5 66.5t184.5 67.5q32 11 72.5 33.5t58.5 54.5q5 72 -44 110.5t-119 38.5q-61 0 -122 -18t-93 -34q-86 -45 -123 -134.5 t-51 -184.5z" />
<glyph unicode="&#xe7;" horiz-adv-x="1009" d="M122 491q7 109 51 218.5t120 191t179 119t225 -1.5q61 -20 111 -49.5t95 -74.5q25 -36 25 -70t-19.5 -55.5t-52 -28.5t-73.5 14q-75 75 -145 89.5t-130 -13t-106.5 -87.5t-71 -135.5t-24.5 -158t31 -153.5q27 -63 73.5 -97t98.5 -39.5t107.5 16t98.5 68.5q38 32 75.5 30 t60.5 -25t25 -60t-30 -76q-57 -61 -128 -95t-145 -41q14 -20 13 -56q0 -23 -11 -57q251 -31 251 -174q0 -79 -25 -131t-84 -82q-95 -45 -197 -45q-181 0 -181 79q0 34 21.5 53.5t51.5 19.5q14 0 20 -3q16 -5 41 -7t57 -2q152 0 153 122q-32 38 -160 46q-134 5 -134 52 q0 25 9 50l43 110q7 18 18 30q-95 18 -175 78t-119 169q-25 61 -36 128.5t-7 133.5z" />
<glyph unicode="&#xe8;" horiz-adv-x="1077" d="M115.5 451.5q-2.5 121.5 44 233.5t146.5 179q104 70 226 105.5t247 8.5q61 -14 110.5 -58t80 -102t33 -122.5t-31.5 -120.5q-38 -63 -110.5 -107.5t-157.5 -75t-170 -51t-148 -38.5q-27 -7 -52 -2q34 -72 100.5 -118.5t166.5 -39.5q79 5 159 44.5t146 77.5q48 18 82 4.5 t48.5 -43t4.5 -66t-53 -60.5q-75 -43 -161 -79.5t-174 -50t-174 1t-166 69.5q-95 66 -144.5 177.5t-52 233zM233 1570q0 36 24 61t62 25t70 -25q79 -72 161 -141t161 -142q25 -34 25 -70t-24 -59.5t-62 -23.5q-27 0 -59 13q-79 70 -159.5 140.5t-161.5 142.5q-36 38 -37 79z M299 462q16 11 34 18q41 11 82.5 23.5t84.5 23.5q27 7 73.5 20.5t96.5 31.5t90.5 42t54.5 53q5 75 -36 102t-97.5 27t-118 -19t-99.5 -37q-84 -43 -124.5 -121t-40.5 -164z" />
<glyph unicode="&#xe9;" horiz-adv-x="1077" d="M122.5 451.5q-2.5 121.5 44 233.5t146.5 179q104 70 226 105.5t247 8.5q61 -14 110.5 -58t80 -102t33 -122.5t-31.5 -120.5q-38 -63 -110.5 -107.5t-157.5 -75t-170 -51t-148 -38.5q-27 -7 -52 -2q34 -72 100.5 -118.5t166.5 -39.5q79 5 159 44.5t146 77.5q48 18 82 4.5 t48.5 -43t4.5 -66t-53 -60.5q-75 -43 -161 -79.5t-174 -50t-174 1t-166 69.5q-95 66 -144.5 177.5t-52 233zM306 462q16 11 34 18q41 11 82.5 23.5t84.5 23.5q27 7 73.5 20.5t96.5 31.5t90.5 42t54.5 53q5 75 -36 102t-97.5 27t-118 -19t-99.5 -37q-84 -43 -124.5 -121 t-40.5 -164zM306 1288q0 20 10 43t33 41q81 61 164 122t164 120q29 11 49 11q38 0 57.5 -18t19.5 -54q0 -38 -29 -75q-84 -61 -165.5 -122t-162.5 -120q-34 -20 -66 -20q-38 0 -56 19t-18 53z" />
<glyph unicode="&#xea;" horiz-adv-x="1077" d="M115.5 451.5q-2.5 121.5 44 233.5t146.5 179q104 70 226 105.5t247 8.5q61 -14 110.5 -58t80 -102t33 -122.5t-31.5 -120.5q-38 -63 -110.5 -107.5t-157.5 -75t-170 -51t-148 -38.5q-27 -7 -52 -2q34 -72 100.5 -118.5t166.5 -39.5q79 5 159 44.5t146 77.5q48 18 82 4.5 t48.5 -43t4.5 -66t-53 -60.5q-75 -43 -161 -79.5t-174 -50t-174 1t-166 69.5q-95 66 -144.5 177.5t-52 233zM213 1304q0 45 40 81q63 52 124.5 103t124.5 103q27 11 48 11q29 0 61 -22q59 -50 116.5 -96.5t116.5 -93.5q23 -36 23 -68q0 -36 -23 -47.5t-59 -11.5 q-29 0 -56 13q-45 36 -90.5 72.5t-90.5 72.5l-190 -158q-29 -20 -62 -20q-38 0 -60.5 14.5t-22.5 46.5zM299 462q16 11 34 18q41 11 82.5 23.5t84.5 23.5q27 7 73.5 20.5t96.5 31.5t90.5 42t54.5 53q5 75 -36 102t-97.5 27t-118 -19t-99.5 -37q-84 -43 -124.5 -121 t-40.5 -164z" />
<glyph unicode="&#xeb;" horiz-adv-x="1077" d="M92.5 451.5q-2.5 121.5 44 233.5t146.5 179q104 70 226 105.5t247 8.5q61 -14 110.5 -58t80 -102t33 -122.5t-31.5 -120.5q-38 -63 -110.5 -107.5t-157.5 -75t-170 -51t-148 -38.5q-27 -7 -52 -2q34 -72 100.5 -118.5t166.5 -39.5q79 5 159 44.5t146 77.5q48 18 82 4.5 t48.5 -43t4.5 -66t-53 -60.5q-75 -43 -161 -79.5t-174 -50t-174 1t-166 69.5q-95 66 -144.5 177.5t-52 233zM138 1403q0 25 18 51t43 45t54.5 31.5t52.5 12.5q50 0 86 -36t36 -88q0 -25 -16 -51t-39.5 -45.5t-54 -33t-58.5 -13.5q-50 0 -86 37.5t-36 89.5zM276 462 q16 11 34 18q41 11 82.5 23.5t84.5 23.5q27 7 73.5 20.5t96.5 31.5t90.5 42t54.5 53q5 75 -36 102t-97.5 27t-118 -19t-99.5 -37q-84 -43 -124.5 -121t-40.5 -164zM618 1419q0 27 17 52t42 44t52 30.5t50 11.5q48 0 82.5 -35t34.5 -85q0 -27 -15.5 -52t-39.5 -45.5t-52 -32 t-53 -11.5q-48 0 -83 35.5t-35 87.5z" />
<glyph unicode="&#xec;" horiz-adv-x="540" d="M16 1525q0 36 23.5 61t62.5 25q38 0 70 -25q79 -72 160.5 -141t160.5 -142q25 -34 25 -70t-23.5 -59.5t-62.5 -23.5q-27 0 -59 13q-79 70 -159.5 140.5t-161.5 142.5q-36 38 -36 79zM161 991q11 45 36 68t56 23q29 0 55.5 -20.5t37.5 -63.5q0 -226 1 -451.5t4 -451.5 q-2 -52 -30.5 -78t-62.5 -26q-32 0 -59 23.5t-34 73.5q-2 226 -2 451.5t-2 451.5z" />
<glyph unicode="&#xed;" horiz-adv-x="552" d="M45 1267q0 20 10.5 43t32.5 41q81 61 164 122t164 120q29 11 50 11q38 0 63 -24.5t25 -61.5q0 -38 -29 -74q-84 -61 -165.5 -122.5t-162.5 -119.5q-34 -20 -66 -21q-38 0 -62 26t-24 60zM172 991q11 45 36 68t57 23q29 0 55 -20.5t38 -63.5q0 -226 1 -451.5t3 -451.5 q-2 -52 -30.5 -78t-62.5 -26q-32 0 -59 23.5t-33 73.5q-2 226 -2.5 451.5t-2.5 451.5z" />
<glyph unicode="&#xee;" horiz-adv-x="640" d="M-2 1285q0 45 40 82q63 52 124.5 103t124.5 103q27 11 48 11q29 0 61 -23q59 -50 116.5 -96t116.5 -94q23 -36 23 -68q0 -36 -23 -58.5t-59 -22.5q-29 0 -56 14q-45 36 -90.5 72t-90.5 72l-190 -158q-29 -20 -62 -20q-38 0 -60.5 26t-22.5 57zM224 991q11 45 36 68t57 23 q29 0 55 -20.5t38 -63.5q0 -226 1 -451.5t3 -451.5q-2 -52 -30.5 -78t-62.5 -26q-32 0 -59 23.5t-33 73.5q-2 226 -2.5 451.5t-2.5 451.5z" />
<glyph unicode="&#xef;" horiz-adv-x="663" d="M-59 1333q0 25 18 51t43 45t54.5 31.5t52.5 12.5q50 0 86 -36t36 -88q0 -25 -16 -51t-39.5 -45.5t-54 -33t-58.5 -13.5q-50 0 -86 37.5t-36 89.5zM213 984q2 -226 2 -451t2 -452q7 -50 34 -73.5t59 -23.5q34 0 62.5 26t30.5 78q-2 226 -3.5 451.5t-1.5 451.5 q-11 43 -37 63.5t-55 20.5q-32 0 -57 -23t-36 -68zM421 1349q0 27 17 52t42 44t52 30.5t50 11.5q48 0 82.5 -35t34.5 -85q0 -27 -15.5 -52t-39.5 -45.5t-52.5 -31.5t-52.5 -11q-48 0 -83 35t-35 87z" />
<glyph unicode="&#xf0;" horiz-adv-x="943" d="M57.5 910q3.5 36 42.5 68q43 32 84.5 63.5t84.5 62.5q-34 23 -71 42t-76 40q-45 20 -57.5 54t-1 63.5t44 46.5t80.5 3q124 -61 228 -131l229 186q41 16 72.5 8t48.5 -32t14.5 -57t-29.5 -67l-192 -156q95 -95 154 -210l29 13q48 18 82 4.5t47.5 -41.5t3 -63t-50.5 -60 q-25 -11 -46 -18q11 -34 19.5 -70.5t14.5 -74.5q16 -102 3.5 -201.5t-56.5 -180t-122 -134.5t-193 -63q-111 -9 -184.5 43t-109 134.5t-31 179.5t47.5 181q27 52 68 94t91 76t105.5 61t111.5 52q-50 95 -124 165q-52 -41 -105.5 -81.5t-107.5 -78.5q-43 -25 -79 -17.5 t-54.5 34t-15 62.5zM300 304.5q6 -41.5 26 -75.5t65 -41q59 -11 109 15t91 64q45 93 47 184.5t-22 191.5l-7 18q-86 -36 -163 -85t-118 -114q-16 -27 -25 -71.5t-3 -86z" />
<glyph unicode="&#xf1;" horiz-adv-x="1045" d="M93 1301q0 43 47 73l163 108q38 25 69 36.5t56 11.5q27 0 66.5 -19.5t78 -43t69 -44t37.5 -20.5q20 0 50.5 19.5t62.5 41t61.5 40.5t49.5 19q41 0 69 -19.5t28 -57.5q0 -34 -36 -68q-163 -145 -267 -145q-23 0 -63.5 20.5t-84.5 44.5t-81.5 43t-51.5 19q-23 0 -52 -19 t-58.5 -42t-52 -42t-29.5 -21h-14q-41 0 -79 11t-38 54zM136 689v212q11 45 36 67.5t57 22.5q29 0 55 -20.5t37 -63.5v-18q66 57 148.5 90t166.5 33t157.5 -38.5t118.5 -124.5q16 -29 21.5 -73.5t6.5 -93t-1 -99.5t-2 -96v-267v-152q-2 -52 -30.5 -78t-62.5 -26 q-32 0 -59 23.5t-34 73.5q0 104 -1 207t-1 207q0 75 1 149.5t-10 149.5q-18 34 -39.5 42t-51.5 8q-77 0 -151.5 -37.5t-117.5 -103.5q-25 -38 -39.5 -64t-19.5 -76v-230.5t3 -231.5q-2 -52 -30.5 -78t-62.5 -26q-32 0 -59 24t-34 74v210.5t-1 201t-1 202.5z" />
<glyph unicode="&#xf2;" horiz-adv-x="1131" d="M164 407q3 59 15 118l7 29q25 72 61 141.5t85.5 126t114 97.5t144.5 59q131 29 229.5 -21t157 -142.5t78 -211.5t-10.5 -227q-34 -134 -119.5 -249.5t-217.5 -167.5q-97 -38 -186.5 -28t-160.5 57.5t-121 124.5t-68 174q-11 61 -8 120zM276 1539q0 36 24 61t62 25t70 -25 q79 -72 161 -141t161 -142q25 -34 25 -70t-24 -59.5t-62 -23.5q-27 0 -59 13q-79 70 -159.5 140.5t-161.5 142.5q-36 38 -37 79zM349.5 415q-3.5 -39 3.5 -89q7 -61 38.5 -110t77 -75t101 -24.5t111.5 35.5q75 45 119 117.5t67 155.5q18 68 7.5 145t-46.5 136t-97 85 t-145 -8q-91 -38 -143 -115.5t-81 -165.5q-9 -48 -12.5 -87z" />
<glyph unicode="&#xf3;" horiz-adv-x="1131" d="M164 407q3 59 15 118l7 29q25 72 61 141.5t85.5 126t114 97.5t144.5 59q131 29 229.5 -21t157 -142.5t78 -211.5t-10.5 -227q-34 -134 -119.5 -249.5t-217.5 -167.5q-97 -38 -186.5 -28t-160.5 57.5t-121 124.5t-68 174q-11 61 -8 120zM338 1249q0 20 10 43t33 41 q81 61 164 122t164 120q29 11 49 11q38 0 57.5 -18t19.5 -54q0 -38 -29 -75q-84 -61 -165.5 -122t-162.5 -120q-34 -20 -66 -20q-38 0 -56 19t-18 53zM349.5 415q-3.5 -39 3.5 -89q7 -61 38.5 -110t77 -75t101 -24.5t111.5 35.5q75 45 119 117.5t67 155.5q18 68 7.5 145 t-46.5 136t-97 85t-145 -8q-91 -38 -143 -115.5t-81 -165.5q-9 -48 -12.5 -87z" />
<glyph unicode="&#xf4;" horiz-adv-x="1095" d="M141 407q3 59 15 118l7 29q25 72 61 141.5t85.5 126t114 97.5t144.5 59q131 29 229.5 -21t157 -142.5t78 -211.5t-10.5 -227q-34 -134 -119.5 -249.5t-217.5 -167.5q-97 -38 -186.5 -28t-160.5 57.5t-121 124.5t-68 174q-11 61 -8 120zM254 1288q0 45 40 81 q63 52 124.5 103t124.5 103q27 11 48 11q29 0 61 -22q59 -50 116.5 -96.5t116.5 -93.5q23 -36 23 -68q0 -36 -23 -47.5t-59 -11.5q-29 0 -56 13q-45 36 -90.5 72.5t-90.5 72.5l-190 -158q-29 -20 -62 -20q-38 0 -60.5 14.5t-22.5 46.5zM326.5 415q-3.5 -39 3.5 -89 q7 -61 38.5 -110t77 -75t101 -24.5t111.5 35.5q75 45 119 117.5t67 155.5q18 68 7.5 145t-46.5 136t-97 85t-145 -8q-91 -38 -143 -115.5t-81 -165.5q-9 -48 -12.5 -87z" />
<glyph unicode="&#xf5;" horiz-adv-x="1131" d="M141 407q3 59 15 118l7 29q25 72 61 141.5t85.5 126t114 97.5t144.5 59q131 29 229.5 -21t157 -142.5t78 -211.5t-10.5 -227q-34 -134 -119.5 -249.5t-217.5 -167.5q-97 -38 -186.5 -28t-160.5 57.5t-121 124.5t-68 174q-11 61 -8 120zM147 1319q0 43 47 73l163 108 q38 25 69 36.5t56 11.5q27 0 66.5 -19.5t78 -43t69 -44t37.5 -20.5q20 0 50.5 19.5t62.5 41t61.5 40.5t49.5 19q41 0 69 -19.5t28 -57.5q0 -34 -36 -68q-163 -145 -267 -145q-23 0 -63.5 20.5t-84.5 44.5t-81.5 43t-51.5 19q-23 0 -52 -19t-58.5 -42t-52 -42t-29.5 -21h-14 q-41 0 -79 11t-38 54zM326.5 415q-3.5 -39 3.5 -89q7 -61 38.5 -110t77 -75t101 -24.5t111.5 35.5q75 45 119 117.5t67 155.5q18 68 7.5 145t-46.5 136t-97 85t-145 -8q-91 -38 -143 -115.5t-81 -165.5q-9 -48 -12.5 -87z" />
<glyph unicode="&#xf6;" horiz-adv-x="1131" d="M141 407q3 59 15 118l7 29q25 72 61 141.5t85.5 126t114 97.5t144.5 59q131 29 229.5 -21t157 -142.5t78 -211.5t-10.5 -227q-34 -134 -119.5 -249.5t-217.5 -167.5q-97 -38 -186.5 -28t-160.5 57.5t-121 124.5t-68 174q-11 61 -8 120zM215 1347q0 25 18 51t43 45 t54.5 31.5t52.5 12.5q50 0 86 -36t36 -88q0 -25 -16 -51t-39.5 -45.5t-54 -33t-58.5 -13.5q-50 0 -86 37.5t-36 89.5zM326.5 415q-3.5 -39 3.5 -89q7 -61 38.5 -110t77 -75t101 -24.5t111.5 35.5q75 45 119 117.5t67 155.5q18 68 7.5 145t-46.5 136t-97 85t-145 -8 q-91 -38 -143 -115.5t-81 -165.5q-9 -48 -12.5 -87zM695 1363q0 27 17 52t42 44t52 30.5t50 11.5q48 0 82.5 -35t34.5 -85q0 -27 -15.5 -52t-39.5 -45.5t-52 -32t-53 -11.5q-48 0 -83 35.5t-35 87.5z" />
<glyph unicode="&#xf7;" horiz-adv-x="1104" d="M75 471q0 34 26 62t78 30h751q43 -11 63.5 -37t20.5 -55q0 -32 -22.5 -57t-68.5 -36h-751q-50 7 -73.5 34t-23.5 59zM412 79q0 57 40.5 95.5t97.5 38.5t95 -38.5t38 -95.5t-38.5 -95t-94.5 -38q-57 0 -97.5 38t-40.5 95zM428 860q0 57 38.5 95t94.5 38q57 0 95.5 -38 t38.5 -95t-38.5 -95.5t-95.5 -38.5t-95 38.5t-38 95.5z" />
<glyph unicode="&#xf8;" horiz-adv-x="997" d="M69 407q3 59 15 118l7 29q25 72 61 141.5t85.5 126t114 97.5t144.5 59q79 16 153 2q14 32 28.5 66t30.5 70q36 59 89 58q34 0 61 -24.5t27 -65.5q0 -20 -11 -50q-16 -36 -31 -70t-28 -68q50 -45 83.5 -106t50.5 -131.5t18.5 -142.5t-17.5 -140q-34 -134 -119.5 -249.5 t-217.5 -167.5q-109 -43 -212 -25q-18 -43 -38.5 -87t-41.5 -94q-18 -25 -40.5 -35t-42.5 -10q-34 0 -59 25t-25 70v15t2 17q20 48 39.5 92t37.5 84q-59 50 -99.5 120t-56.5 156q-11 61 -8 120zM254.5 415q-3.5 -39 3.5 -89q5 -38 18.5 -71t33.5 -60q34 79 65.5 153.5 t63.5 148t64.5 148.5t66.5 156q-18 -2 -37 -5.5t-42 -12.5q-91 -38 -143 -115.5t-81 -165.5q-9 -48 -12.5 -87zM480 115q54 5 106 37q75 45 119 117t67 156q18 68 9 145t-48 136q-68 -158 -128 -297.5t-125 -293.5z" />
<glyph unicode="&#xf9;" horiz-adv-x="1219" d="M209 550q0 93 4.5 181t4.5 156q11 45 36 68t56 23q29 0 55.5 -20.5t37.5 -63.5q0 -106 -3.5 -204.5t-3.5 -209.5q0 -127 54.5 -208.5t147.5 -81.5q34 0 68 13.5t63.5 36.5t54 52t45.5 59q5 5 11.5 8t10.5 8q-14 113 -13 228q0 66 1 132.5t11 122t34 90.5t67 35 q34 0 61 -26t27 -75q0 -52 -8 -127t-8 -156q0 -63 4.5 -126.5t15 -121.5t27.5 -105.5t44 -81.5q25 -32 25 -70t-25 -62t-61 -24q-50 0 -86 46.5t-61 105.5q-59 -63 -138.5 -107.5t-162.5 -44.5q-61 0 -118 21.5t-105.5 59t-86 87t-55.5 104.5q-18 59 -24.5 130t-6.5 148z M328 1457q0 36 24 61t62 25t70 -25q79 -72 161 -141t161 -142q25 -34 25 -70t-24 -59.5t-62 -23.5q-27 0 -59 13q-79 70 -159.5 140.5t-161.5 142.5q-36 38 -37 79z" />
<glyph unicode="&#xfa;" horiz-adv-x="1219" d="M222 550q0 93 4.5 181t4.5 156q11 45 36 68t56 23q29 0 55.5 -20.5t37.5 -63.5q0 -106 -3.5 -204.5t-3.5 -209.5q0 -127 54.5 -208.5t147.5 -81.5q34 0 68 13.5t63.5 36.5t54 52t45.5 59q5 5 11.5 8t10.5 8q-14 113 -13 228q0 66 1 132.5t11 122t34 90.5t67 35 q34 0 61 -26t27 -75q0 -52 -8 -127t-8 -156q0 -63 4.5 -126.5t15 -121.5t27.5 -105.5t44 -81.5q25 -32 25 -70t-25 -62t-61 -24q-50 0 -86 46.5t-61 105.5q-59 -63 -138.5 -107.5t-162.5 -44.5q-61 0 -118 21.5t-105.5 59t-86 87t-55.5 104.5q-18 59 -24.5 130t-6.5 148z M360 1199q0 20 10 43t33 41q81 61 164 122t164 120q29 11 49 11q38 0 57.5 -18t19.5 -54q0 -38 -29 -75q-84 -61 -165.5 -122t-162.5 -120q-34 -20 -66 -20q-38 0 -56 19t-18 53z" />
<glyph unicode="&#xfb;" horiz-adv-x="1219" d="M163 550q0 93 4.5 181t4.5 156q11 45 36 68t56 23q29 0 55.5 -20.5t37.5 -63.5q0 -106 -3.5 -204.5t-3.5 -209.5q0 -127 54.5 -208.5t147.5 -81.5q34 0 68 13.5t63.5 36.5t54 52t45.5 59q5 5 11.5 8t10.5 8q-14 113 -13 228q0 66 1 132.5t11 122t34 90.5t67 35 q34 0 61 -26t27 -75q0 -52 -8 -127t-8 -156q0 -63 4.5 -126.5t15 -121.5t27.5 -105.5t44 -81.5q25 -32 25 -70t-25 -62t-61 -24q-50 0 -86 46.5t-61 105.5q-59 -63 -138.5 -107.5t-162.5 -44.5q-61 0 -118 21.5t-105.5 59t-86 87t-55.5 104.5q-18 59 -24.5 130t-6.5 148z M213 1286q0 45 40 81q63 52 124.5 103t124.5 103q27 11 48 11q29 0 61 -22q59 -50 116.5 -96.5t116.5 -93.5q23 -36 23 -68q0 -36 -23 -47.5t-59 -11.5q-29 0 -56 13q-45 36 -90.5 72.5t-90.5 72.5l-190 -158q-29 -20 -62 -20q-38 0 -60.5 14.5t-22.5 46.5z" />
<glyph unicode="&#xfc;" horiz-adv-x="1219" d="M123 550q0 93 4.5 181t4.5 156q11 45 36 68t56 23q29 0 55.5 -20.5t37.5 -63.5q0 -106 -3.5 -204.5t-3.5 -209.5q0 -127 54.5 -208.5t147.5 -81.5q34 0 68 13.5t63.5 36.5t54 52t45.5 59q5 5 11.5 8t10.5 8q-14 113 -13 228q0 66 1 132.5t11 122t34 90.5t67 35 q34 0 61 -26t27 -75q0 -52 -8 -127t-8 -156q0 -63 4.5 -126.5t15 -121.5t27.5 -105.5t44 -81.5q25 -32 25 -70t-25 -62t-61 -24q-50 0 -86 46.5t-61 105.5q-59 -63 -138.5 -107.5t-162.5 -44.5q-61 0 -118 21.5t-105.5 59t-86 87t-55.5 104.5q-18 59 -24.5 130t-6.5 148z M176 1351q0 25 18 51t43 45t54.5 31.5t52.5 12.5q50 0 86 -36t36 -88q0 -25 -16 -51t-39.5 -45.5t-54 -33t-58.5 -13.5q-50 0 -86 37.5t-36 89.5zM656 1367q0 27 17 52t42 44t52 30.5t50 11.5q48 0 82.5 -35t34.5 -85q0 -27 -15.5 -52t-39.5 -45.5t-52 -32t-53 -11.5 q-48 0 -83 35.5t-35 87.5z" />
<glyph unicode="&#xfd;" horiz-adv-x="1097" d="M68 898q0 59 23.5 89.5t64.5 30.5q29 0 55.5 -19t37.5 -62q25 -95 60 -175.5t81.5 -149.5t104 -131t127.5 -121q75 147 137 296.5t103 312.5q18 32 41 45t47 13q38 0 63.5 -29t25.5 -81q-48 -183 -120.5 -355.5t-158.5 -337.5t-181 -327t-185 -327q-18 -25 -41 -35 t-43 -10q-34 0 -59 25t-25 70v14.5t3 17.5q75 138 154 271.5t153 268.5q-91 72 -163 148t-129.5 161t-100.5 183.5t-75 213.5zM283 1202q0 20 10 43t33 41q81 61 164 122t164 120q29 11 49 11q38 0 57.5 -18t19.5 -54q0 -38 -29 -75q-84 -61 -165.5 -122t-162.5 -120 q-34 -20 -66 -20q-38 0 -56 19t-18 53z" />
<glyph unicode="&#xfe;" horiz-adv-x="855" d="M104 976.5v329.5q9 41 33 62t53.5 22.5t55.5 -18t39 -59.5v-451q70 59 156 68t172 -70q38 -36 66.5 -82.5t47 -98.5t26 -107.5t7.5 -105.5q0 -54 -7.5 -113t-24.5 -114.5t-46.5 -106.5t-72.5 -89q-86 -72 -171 -63t-151 68v-320q-2 -50 -28 -74.5t-59 -27t-60 21.5 t-34 74v327v217v142.5v105v105t-1 141.5t-1 216.5zM312 466q0 -38 4.5 -83.5t17 -87.5t36.5 -78t64 -54q5 0 12 -1t11 1q61 29 93 113t32 180t-32 180t-93 113q-16 0 -23 -2q-36 -18 -59.5 -50t-37 -71.5t-19.5 -81.5t-6 -78z" />
<glyph unicode="&#xff;" horiz-adv-x="1097" d="M68 907q0 59 23.5 89.5t64.5 30.5q29 0 55.5 -19t37.5 -62q25 -95 60 -175.5t81.5 -149.5t104 -131t127.5 -121q75 147 137 296.5t103 312.5q18 32 41 45t47 13q38 0 63.5 -29t25.5 -81q-48 -183 -120.5 -355.5t-158.5 -337.5t-181 -327t-185 -327q-18 -25 -41 -35 t-43 -10q-34 0 -59 25t-25 70v14.5t3 17.5q75 138 154 271.5t153 268.5q-91 72 -163 148t-129.5 161t-100.5 183.5t-75 213.5zM169 1333q0 25 18 51t43 45t54.5 31.5t52.5 12.5q50 0 86 -36t36 -88q0 -25 -16 -51t-39.5 -45.5t-54 -33t-58.5 -13.5q-50 0 -86 37.5t-36 89.5z M649 1349q0 27 17 52t42 44t52 30.5t50 11.5q48 0 82.5 -35t34.5 -85q0 -27 -15.5 -52t-39.5 -45.5t-52 -32t-53 -11.5q-48 0 -83 35.5t-35 87.5z" />
<glyph unicode="&#x152;" horiz-adv-x="1857" d="M151.5 640.5q2.5 151.5 38.5 296.5t111 267t204 188q27 16 66.5 27t71.5 16q54 5 106 0t104 -23q59 -25 100 -79q5 2 10.5 4.5t9.5 4.5q79 25 171 37.5t188 16t190 2t175 -5.5q43 -14 63.5 -41t19.5 -55.5t-24 -54.5t-66 -35q-66 2 -140.5 4.5t-151 1.5t-152.5 -8 t-144 -20v-406q122 -5 245.5 3.5t245.5 21.5q50 2 78.5 -22.5t33 -56.5t-17 -62.5t-71.5 -41.5q-129 -16 -258 -24t-256 -3v-358q136 -11 270.5 -12t268.5 42q43 2 71 -17t36 -47.5t-4.5 -59t-50.5 -53.5q-163 -52 -331.5 -49.5t-338.5 20.5q-59 7 -82.5 43t-23.5 81v52 q-25 -45 -55.5 -84.5t-67.5 -71.5q-43 -38 -90.5 -64t-97.5 -51q-104 -25 -182 -1.5t-131 81.5t-84.5 140.5t-43.5 177.5q-16 127 -13.5 278.5zM333 548q0 -45 4.5 -105.5t18 -119t39.5 -108.5t71 -75q20 -5 38.5 -5.5t38.5 3.5q61 32 104 66t75 75.5t55.5 93.5t46.5 118 q29 86 42.5 170t18.5 174q2 59 0 118t-16 117q-9 32 -19 66t-29 61q-18 27 -47 39.5t-62 15t-66 -5.5t-60 -19q-77 -36 -126.5 -120t-79 -185t-40 -201.5t-7.5 -172.5z" />
<glyph unicode="&#x153;" horiz-adv-x="1590" d="M106 430q0 38 4.5 74.5t9.5 74.5l7 30q23 95 65.5 175t99 139t126 92t141.5 33q81 0 158 -43t134 -136l7 -14q32 32 76 66t97 63.5t113 47.5t121 18q66 0 112 -26t75.5 -64.5t44.5 -86t15 -90.5q0 -77 -30.5 -151.5t-82.5 -131.5q-36 -38 -79.5 -63t-89.5 -41t-96 -27 t-100 -25q-7 -2 -14.5 -2h-14.5q-45 0 -71.5 26t-26.5 60q0 41 32 63.5t78.5 37t100.5 28t100.5 37.5t78 63.5t31.5 107.5q0 34 -15.5 64.5t-54.5 30.5q-48 0 -95 -17t-90 -45.5t-77 -67t-57 -81.5t-22.5 -102.5t-11.5 -112.5q9 -88 43 -167t100 -113q32 -16 48.5 -18 t53.5 -7q70 14 114 40t103 69q29 11 50 11q38 0 63 -25t25 -61q0 -41 -38.5 -80.5t-95 -70t-120 -50t-113.5 -19.5q-122 0 -207 62.5t-137 159.5q-66 -95 -155 -143.5t-171 -48.5q-77 0 -142.5 35t-114 96t-77 145t-28.5 181zM292 430q0 -70 16 -121t39.5 -84t53 -48.5 t56.5 -15.5q54 0 98.5 27t78.5 71t56.5 98.5t33.5 106.5q0 32 2.5 62.5t6.5 61.5q-2 48 -11 97.5t-29.5 89.5t-51 64.5t-73.5 24.5q-61 0 -106.5 -31.5t-77 -79t-51 -100.5t-30.5 -96q-5 -32 -8 -63.5t-3 -63.5z" />
<glyph unicode="&#x178;" horiz-adv-x="1201" d="M29 1285q0 48 26 74t60 26q52 0 89 -52q50 -161 142.5 -291t207.5 -245q109 129 219 259t189 279q18 32 41.5 45.5t46.5 13.5q34 0 61 -25t27 -66q0 -20 -11 -49q-93 -170 -219.5 -320.5t-248.5 -299.5l-10 -9q0 -136 0.5 -270.5t2.5 -270.5q-2 -52 -30.5 -78t-62.5 -26 q-32 0 -59 23.5t-34 73.5q0 138 -1 275t-1 277q-140 136 -256.5 291t-175.5 345q0 5 -1.5 10.5t-1.5 9.5zM222 1605q0 25 18 51t43 45t54.5 31.5t52.5 12.5q50 0 86 -36t36 -88q0 -25 -16 -51t-39.5 -45.5t-54 -33t-58.5 -13.5q-50 0 -86 37.5t-36 89.5zM702 1621 q0 27 17 52t42 44t52 30.5t50 11.5q48 0 82.5 -35t34.5 -85q0 -27 -15.5 -52t-39.5 -45.5t-52 -32t-53 -11.5q-48 0 -83 35.5t-35 87.5z" />
<glyph unicode="&#x2c6;" horiz-adv-x="918" d="M118 1288q0 45 40 81q63 52 124.5 103t124.5 103q27 11 48 11q29 0 61 -22q59 -50 116.5 -96.5t116.5 -93.5q23 -36 23 -68q0 -36 -23 -47.5t-59 -11.5q-29 0 -56 13q-45 36 -90.5 72.5t-90.5 72.5l-190 -158q-29 -20 -62 -20q-38 0 -60.5 14.5t-22.5 46.5z" />
<glyph unicode="&#x2dc;" horiz-adv-x="1056" d="M84 1319q0 43 47 73l163 108q38 25 69 36.5t56 11.5q27 0 66.5 -19.5t78 -43t69 -44t37.5 -20.5q20 0 50.5 19.5t62.5 41t61.5 40.5t49.5 19q41 0 69 -19.5t28 -57.5q0 -34 -36 -68q-163 -145 -267 -145q-23 0 -63.5 20.5t-84.5 44.5t-81.5 43t-51.5 19q-23 0 -52 -19 t-58.5 -42t-52 -42t-29.5 -21h-14q-41 0 -79 11t-38 54z" />
<glyph unicode="&#x2000;" horiz-adv-x="985" />
<glyph unicode="&#x2001;" horiz-adv-x="1971" />
<glyph unicode="&#x2002;" horiz-adv-x="985" />
<glyph unicode="&#x2003;" horiz-adv-x="1971" />
<glyph unicode="&#x2004;" horiz-adv-x="657" />
<glyph unicode="&#x2005;" horiz-adv-x="492" />
<glyph unicode="&#x2006;" horiz-adv-x="328" />
<glyph unicode="&#x2007;" horiz-adv-x="328" />
<glyph unicode="&#x2008;" horiz-adv-x="246" />
<glyph unicode="&#x2009;" horiz-adv-x="394" />
<glyph unicode="&#x200a;" horiz-adv-x="109" />
<glyph unicode="&#x2010;" horiz-adv-x="975" d="M97 457q0 32 26 62.5t78 30.5h114.5t188 1t187.5 1h115q43 -11 63 -37t20 -56q0 -32 -22.5 -56.5t-67.5 -35.5q-152 0 -302 -1.5t-302 -1.5q-50 7 -74 34t-24 59z" />
<glyph unicode="&#x2011;" horiz-adv-x="975" d="M97 457q0 32 26 62.5t78 30.5h114.5t188 1t187.5 1h115q43 -11 63 -37t20 -56q0 -32 -22.5 -56.5t-67.5 -35.5q-152 0 -302 -1.5t-302 -1.5q-50 7 -74 34t-24 59z" />
<glyph unicode="&#x2012;" horiz-adv-x="975" d="M97 457q0 32 26 62.5t78 30.5h114.5t188 1t187.5 1h115q43 -11 63 -37t20 -56q0 -32 -22.5 -56.5t-67.5 -35.5q-152 0 -302 -1.5t-302 -1.5q-50 7 -74 34t-24 59z" />
<glyph unicode="&#x2013;" horiz-adv-x="1237" d="M183 629q0 34 26 62.5t78 30.5h727q43 -11 63.5 -37t20.5 -56q0 -32 -23 -56.5t-68 -36.5h-726q-50 7 -74 34t-24 59z" />
<glyph unicode="&#x2014;" horiz-adv-x="1301" d="M-61 629q0 34 26 62.5t78 30.5h1247q43 -11 63.5 -37t20.5 -56q0 -32 -23 -56.5t-68 -36.5h-1247q-50 7 -73.5 34t-23.5 59z" />
<glyph unicode="&#x2018;" horiz-adv-x="558" d="M124 1509q0 41 27.5 66t61.5 25q52 0 88 -59q43 -86 85 -174t85 -174q2 -7 2 -15v-15q0 -45 -27 -72t-61 -27q-50 0 -79 47q-52 81 -89.5 172t-80.5 177q-11 29 -12 49z" />
<glyph unicode="&#x2019;" horiz-adv-x="534" d="M77 1188q0 9 1 16t3 16q43 86 85 174t85 174q18 32 41 45.5t47 13.5q34 0 60 -25t26 -65q0 -25 -9 -50q-43 -86 -84.5 -174.5t-84.5 -174.5q-18 -25 -41 -35t-43 -10q-34 0 -60 26t-26 69z" />
<glyph unicode="&#x201a;" horiz-adv-x="635" d="M156 -235q0 18 2 29q43 86 85 174.5t85 174.5q36 59 88 58q34 0 61.5 -24.5t27.5 -65.5q0 -20 -12 -50q-43 -86 -80 -176.5t-89 -171.5q-29 -50 -80 -50q-34 0 -61 28t-27 74z" />
<glyph unicode="&#x201c;" horiz-adv-x="905" d="M104 1464q0 41 27 66t61 25q53 0 89 -59q43 -86 84.5 -174.5t84.5 -174.5q2 -11 3 -31q0 -43 -25 -69t-59 -26q-20 0 -43 10t-41 35q-43 86 -85 174t-85 174q-11 29 -11 50zM468 1537q0 41 27.5 65.5t61.5 24.5q52 0 88 -59q43 -86 85 -174t85 -174q2 -11 2 -32 q0 -43 -25 -69t-59 -26q-20 0 -42.5 10t-41.5 35q-43 86 -84.5 174.5t-84.5 174.5q-11 29 -12 50z" />
<glyph unicode="&#x201d;" horiz-adv-x="941" d="M134 1188q0 9 1 16t3 16q43 86 85 174t85 174q18 32 40.5 45.5t47.5 13.5q34 0 60 -25t26 -65q0 -25 -9 -50q-43 -86 -85 -174.5t-85 -174.5q-18 -25 -40.5 -35t-42.5 -10q-34 0 -60 26t-26 69zM498 1116q0 9 1 15.5t3 15.5q43 86 85 174.5t85 174.5q18 32 40.5 45.5 t47.5 13.5q34 0 60 -25t26 -66q0 -25 -9 -50q-43 -86 -84.5 -174t-84.5 -174q-18 -25 -41 -35t-43 -10q-34 0 -60 26t-26 69z" />
<glyph unicode="&#x201e;" horiz-adv-x="1108" d="M156 -235q0 18 2 29q43 86 85 174.5t85 174.5q36 59 88 58q34 0 61.5 -24.5t27.5 -65.5q0 -20 -12 -50q-43 -86 -80 -176.5t-89 -171.5q-29 -50 -80 -50q-34 0 -61 28t-27 74zM582 -235q0 18 2 29q43 86 85 174.5t85 174.5q36 59 88 58q34 0 61 -24.5t27 -65.5 q0 -20 -11 -50q-43 -86 -80.5 -176.5t-89.5 -171.5q-29 -50 -79 -50q-34 0 -61 28t-27 74z" />
<glyph unicode="&#x2022;" horiz-adv-x="916" d="M57 643q0 84 31.5 157.5t87 128.5t129 87t157.5 32t158.5 -32t130 -87t87 -129t31.5 -157q0 -84 -31.5 -158.5t-87 -130t-130.5 -87.5t-158 -32q-84 0 -157.5 32t-129 87.5t-87 130t-31.5 158.5z" />
<glyph unicode="&#x2026;" horiz-adv-x="1543" d="M220 118q0 63 41.5 111.5t102.5 48.5q118 0 118 -154q0 -66 -47.5 -107.5t-110.5 -41.5q-104 0 -104 143zM643 131q0 27 14.5 52t37 44.5t52 30.5t56.5 11q104 0 104 -138q0 -27 -13.5 -56.5t-35 -52t-49.5 -37t-55 -14.5t-47.5 14.5t-35.5 38.5t-21.5 52t-6.5 55z M1093 134q0 29 16 55t39.5 46.5t54 31.5t60.5 11q115 1 115 -144q0 -29 -16 -56.5t-40.5 -49t-55 -34t-62.5 -12.5q-111 0 -111 152z" />
<glyph unicode="&#x202f;" horiz-adv-x="394" />
<glyph unicode="&#x2039;" horiz-adv-x="801" d="M-7 616q0 45 43 79q11 9 51 41t96.5 75t119 92.5t119 92.5t97 76t49.5 40q29 11 50 11q38 0 63 -25t25 -61q0 -38 -29 -75q-38 -32 -97 -77t-122.5 -95t-122.5 -95t-97 -77q45 -34 105 -78t121 -90.5t121 -90.5t105 -78q25 -34 25 -70t-24.5 -60t-63.5 -24q-25 0 -56 14 q-57 41 -127 93t-142.5 106t-142.5 107.5t-129 93.5q-36 36 -37 75z" />
<glyph unicode="&#x203a;" horiz-adv-x="778" d="M66 226q0 36 25 70q45 34 105 78t121 90.5t121 90.5t106 78q-38 32 -97.5 77t-122.5 95t-122 95.5t-97 76.5q-29 36 -30 75q0 36 25 61t63 25q20 0 50 -11q11 -7 51 -40t96.5 -76t118.5 -92.5t118.5 -92.5t96.5 -75t51 -41q43 -34 43 -79q0 -38 -36 -75q-57 -41 -128 -94 t-143.5 -107t-142.5 -106t-127 -93q-29 -14 -57 -14q-38 0 -63 24t-25 60z" />
<glyph unicode="&#x205f;" horiz-adv-x="492" />
<glyph unicode="&#x20ac;" horiz-adv-x="1341" d="M88 525q0 32 26 62.5t78 30.5q41 0 83 -1t83 -1q2 29 3 57.5t6 57.5q-100 0 -163.5 14.5t-63.5 80.5q0 32 26 62.5t78 30.5h84t84 -2q11 32 23.5 61t28.5 61q27 52 86 116.5t134.5 121t159.5 95t161 38.5q38 0 84.5 -21.5t85 -55.5t64.5 -77t26 -88q0 -41 -25 -66 t-61 -25t-57.5 22.5t-37.5 51t-33 51t-44 22.5q-18 0 -42 -9t-28 -9q-109 -38 -193.5 -113t-137.5 -179q77 -2 153 -2h155q43 -11 63.5 -37t20.5 -56q0 -32 -22.5 -56.5t-68.5 -36.5q-91 0 -180 1.5t-177 1.5q-9 -52 -9 -116q79 0 159.5 -1t161.5 -1q43 -11 63.5 -37 t20.5 -56q0 -32 -22.5 -56.5t-68.5 -36.5h-149.5t-146.5 3q9 -59 31.5 -104.5t54.5 -77t69 -48.5t74 -17q79 0 155 63.5t139 165.5q36 29 74 29q36 0 61 -25t25 -63q0 -20 -11 -50q-81 -129 -195.5 -217.5t-263.5 -88.5q-88 0 -157.5 40t-118 102t-80 140t-45.5 153h-97.5 t-90 7t-68 27t-27.5 61z" />
<glyph unicode="&#x2122;" horiz-adv-x="1416" d="M68 1408q0 68 75 88l337 95q7 2 27 2q75 1 75 -56q0 -68 -66 -89l-125 -38v-398q0 -57 -79 -57q-63 0 -63 48v364l-70 -14q-5 -2 -25 -2q-86 0 -86 57zM665 1061l3 439q0 18 22.5 44.5t65.5 26.5q48 0 68 -25l190 -229q14 18 44 60t66.5 85t72.5 74.5t59 31.5 q18 0 37.5 -54t35 -129t26 -153t10.5 -128q0 -14 -1.5 -26t-1.5 -26t-12.5 -25t-27 -19t-29 -12.5t-21.5 -4.5q-66 0 -66 41q0 11 1 20t1 21q0 131 -36 276q-7 -9 -28.5 -41t-49.5 -67t-58.5 -63t-53.5 -28q-11 0 -20 4.5t-26 24.5t-47.5 61t-87.5 111l-9 -290 q0 -50 -75 -49q-52 0 -52 49z" />
<glyph unicode="&#x25fc;" horiz-adv-x="1029" d="M0 0v1030h1030v-1030h-1030z" />
</font>
</defs>
</svg>
